<svg xmlns="http://www.w3.org/2000/svg" xmlns:xlink="http://www.w3.org/1999/xlink" width="500" zoomAndPan="magnify" viewBox="0 0 375 374.999991" height="500" preserveAspectRatio="xMidYMid meet" version="1.0"><defs><clipPath id="e29aa82d4e"><path d="M 309 59.945312 L 373 59.945312 L 373 208 L 309 208 Z M 309 59.945312 " clip-rule="nonzero"/></clipPath></defs><path fill="#edb88e" d="M 300.71875 218.820312 C 305.195312 211.132812 302.636719 201.523438 294.960938 197.039062 L 151.679688 113.757812 C 145.921875 110.554688 139.527344 109.273438 133.128906 111.195312 L 122.894531 113.757812 C 112.019531 116.320312 100.507812 116.320312 88.992188 113.117188 L 40.382812 98.382812 L 14.796875 194.476562 L 78.121094 219.460938 L 208.609375 295.054688 C 216.285156 299.539062 225.878906 296.976562 230.355469 289.289062 C 234.835938 281.601562 232.273438 271.992188 224.597656 267.507812 L 230.355469 270.710938 C 238.03125 275.195312 247.628906 272.632812 252.105469 264.945312 C 256.582031 257.257812 254.023438 247.648438 246.347656 243.164062 L 251.464844 245.726562 C 259.140625 250.210938 268.734375 247.648438 273.214844 239.960938 C 277.691406 232.273438 275.132812 222.664062 267.457031 218.179688 L 278.328125 224.585938 C 286.007812 229.070312 296.238281 226.507812 300.71875 218.820312 Z M 300.71875 218.820312 " fill-opacity="1" fill-rule="nonzero"/><path fill="#da9367" d="M 301.355469 204.085938 C 296.878906 211.773438 287.285156 214.335938 279.609375 209.851562 L 232.273438 182.945312 C 225.878906 179.101562 218.203125 181.664062 215.003906 187.429688 L 278.96875 224.585938 C 286.644531 229.070312 296.238281 226.507812 300.71875 218.820312 C 303.277344 214.335938 303.277344 208.570312 301.355469 204.085938 Z M 301.355469 204.085938 " fill-opacity="1" fill-rule="nonzero"/><path fill="#da9367" d="M 274.492188 225.867188 C 270.015625 233.554688 260.417969 236.117188 252.742188 231.632812 L 216.921875 211.132812 C 210.527344 207.289062 202.851562 209.851562 199.652344 215.617188 L 251.464844 245.726562 C 259.140625 250.210938 268.734375 247.648438 273.214844 239.960938 C 275.769531 235.476562 276.410156 230.351562 274.492188 225.867188 Z M 274.492188 225.867188 " fill-opacity="1" fill-rule="nonzero"/><path fill="#da9367" d="M 252.746094 250.210938 C 248.265625 257.898438 238.671875 260.460938 230.996094 255.976562 L 200.292969 238.679688 C 193.894531 234.835938 186.21875 237.398438 183.023438 243.164062 L 230.355469 270.070312 C 238.03125 274.554688 247.628906 271.992188 252.105469 264.304688 C 254.664062 259.820312 254.664062 254.695312 252.746094 250.210938 Z M 252.746094 250.210938 " fill-opacity="1" fill-rule="nonzero"/><path fill="#da9367" d="M 230.996094 274.554688 C 226.519531 282.242188 216.921875 284.804688 209.246094 280.320312 L 167.671875 255.976562 C 124.8125 230.992188 110.101562 176.539062 135.046875 133.617188 L 147.839844 111.835938 C 142.722656 109.914062 137.605469 109.273438 132.488281 110.554688 L 122.253906 113.117188 C 111.382812 115.679688 99.867188 115.679688 88.355469 112.476562 L 40.382812 98.382812 L 14.796875 194.476562 L 78.121094 219.460938 L 208.609375 295.054688 C 216.285156 299.539062 225.878906 296.976562 230.355469 289.289062 C 232.914062 284.164062 232.914062 279.039062 230.996094 274.554688 Z M 230.996094 274.554688 " fill-opacity="1" fill-rule="nonzero"/><path fill="#da9367" d="M 174.707031 127.210938 L 167.671875 133.617188 C 155.519531 143.867188 141.445312 152.195312 126.09375 157.320312 C 119.699219 159.242188 115.859375 166.289062 117.777344 172.695312 C 117.140625 175.898438 117.140625 179.101562 119.058594 182.304688 C 125.453125 192.554688 138.246094 195.757812 148.480469 189.992188 L 174.707031 175.257812 L 179.824219 177.179688 C 188.78125 181.023438 199.011719 181.664062 207.96875 180.382812 C 216.285156 179.101562 223.320312 174.617188 227.160156 167.570312 C 228.4375 166.929688 229.078125 166.289062 230.355469 165.648438 L 282.167969 195.757812 C 287.285156 198.960938 293.042969 200.242188 298.800781 200.882812 C 297.519531 198.960938 295.601562 197.679688 293.683594 196.398438 Z M 174.707031 127.210938 " fill-opacity="1" fill-rule="nonzero"/><path fill="#48cae4" d="M 2.003906 72.757812 L 65.96875 91.976562 L 33.984375 220.101562 L 2.003906 213.695312 Z M 2.003906 72.757812 " fill-opacity="1" fill-rule="nonzero"/><path fill="#00b4d8" d="M 18.632812 148.351562 L 20.550781 78.523438 L 2.003906 72.757812 L 2.003906 213.695312 L 33.984375 220.101562 L 41.660156 189.351562 C 27.589844 181.023438 17.992188 165.648438 18.632812 148.351562 Z M 18.632812 148.351562 " fill-opacity="1" fill-rule="nonzero"/><path fill="#f9dbaf" d="M 75.5625 258.539062 C 67.886719 254.054688 65.328125 244.445312 69.804688 236.757812 L 79.398438 220.101562 C 83.878906 212.414062 93.472656 209.851562 101.148438 214.335938 C 108.824219 218.820312 111.382812 228.429688 106.90625 236.117188 L 97.308594 252.773438 C 92.832031 260.460938 83.238281 263.023438 75.5625 258.539062 Z M 75.5625 258.539062 " fill-opacity="1" fill-rule="nonzero"/><path fill="#f9dbaf" d="M 99.867188 280.320312 C 92.191406 275.835938 89.632812 266.226562 94.113281 258.539062 L 110.101562 230.992188 C 114.582031 223.304688 124.175781 220.742188 131.851562 225.226562 C 139.527344 229.710938 142.085938 239.320312 137.605469 247.007812 L 121.617188 274.554688 C 117.777344 282.242188 107.542969 284.804688 99.867188 280.320312 Z M 99.867188 280.320312 " fill-opacity="1" fill-rule="nonzero"/><path fill="#f9dbaf" d="M 131.210938 290.570312 C 123.535156 286.085938 120.976562 276.476562 125.453125 268.789062 L 135.050781 252.132812 C 139.527344 244.445312 149.121094 241.882812 156.796875 246.367188 C 164.472656 250.851562 167.03125 260.460938 162.554688 268.148438 L 152.960938 284.804688 C 148.480469 292.492188 138.886719 295.054688 131.210938 290.570312 Z M 131.210938 290.570312 " fill-opacity="1" fill-rule="nonzero"/><path fill="#f9dbaf" d="M 161.914062 301.460938 C 154.238281 296.976562 151.679688 287.367188 156.15625 279.679688 L 159.355469 273.914062 C 163.832031 266.226562 173.429688 263.664062 181.101562 268.148438 C 188.78125 272.632812 191.335938 282.242188 186.859375 289.929688 L 183.660156 295.695312 C 179.183594 302.742188 169.589844 305.945312 161.914062 301.460938 Z M 161.914062 301.460938 " fill-opacity="1" fill-rule="nonzero"/><path fill="#edb88e" d="M 102.425781 215.617188 C 102.425781 218.179688 101.789062 221.382812 100.507812 223.304688 L 90.914062 239.960938 C 86.4375 247.648438 76.839844 250.210938 69.164062 245.726562 C 68.527344 245.085938 67.886719 245.085938 67.886719 244.445312 C 67.886719 250.210938 70.445312 255.335938 75.5625 258.539062 C 83.238281 263.023438 92.832031 260.460938 97.308594 252.773438 L 106.90625 236.117188 C 111.382812 229.070312 108.824219 220.101562 102.425781 215.617188 Z M 102.425781 215.617188 " fill-opacity="1" fill-rule="nonzero"/><path fill="#edb88e" d="M 133.769531 225.867188 C 133.769531 228.429688 133.128906 231.632812 131.851562 233.554688 L 115.859375 261.101562 C 111.382812 268.789062 101.789062 271.351562 94.113281 266.867188 C 93.472656 266.226562 92.832031 266.226562 92.832031 265.585938 C 92.832031 271.351562 95.390625 276.476562 100.507812 279.679688 C 108.183594 284.164062 117.777344 281.601562 122.257812 273.914062 L 138.246094 246.367188 C 142.085938 239.320312 140.167969 230.992188 133.769531 225.867188 Z M 133.769531 225.867188 " fill-opacity="1" fill-rule="nonzero"/><path fill="#edb88e" d="M 158.078125 247.648438 C 158.078125 250.210938 157.4375 253.414062 156.15625 255.335938 L 146.5625 271.992188 C 142.085938 279.679688 132.492188 282.242188 124.816406 277.757812 C 124.175781 277.117188 123.535156 277.117188 123.535156 276.476562 C 123.535156 282.242188 126.09375 287.367188 131.210938 290.570312 C 138.886719 295.054688 148.480469 292.492188 152.960938 284.804688 L 162.554688 268.148438 C 166.390625 261.101562 164.472656 252.132812 158.078125 247.648438 Z M 158.078125 247.648438 " fill-opacity="1" fill-rule="nonzero"/><path fill="#edb88e" d="M 182.382812 268.789062 C 182.382812 271.351562 181.742188 274.554688 180.464844 276.476562 L 177.265625 282.242188 C 172.789062 289.929688 163.195312 292.492188 155.519531 288.007812 C 154.878906 287.367188 154.238281 287.367188 154.238281 286.726562 C 154.238281 292.492188 156.796875 297.617188 161.914062 300.820312 C 169.589844 305.304688 179.183594 302.742188 183.664062 295.054688 L 186.859375 289.289062 C 191.335938 282.882812 188.78125 273.914062 182.382812 268.789062 Z M 182.382812 268.789062 " fill-opacity="1" fill-rule="nonzero"/><path fill="#f9dbaf" d="M 230.996094 159.882812 L 294.320312 196.398438 L 353.808594 188.070312 L 328.222656 91.976562 L 266.816406 109.273438 C 248.265625 114.398438 229.078125 114.398438 210.527344 109.273438 C 200.292969 106.070312 188.78125 108.632812 181.105469 115.679688 L 168.3125 127.210938 C 156.15625 137.460938 142.085938 145.789062 126.734375 150.914062 C 119.058594 153.476562 115.859375 162.445312 119.699219 169.492188 C 126.09375 179.742188 138.886719 182.945312 149.121094 177.179688 L 174.707031 162.445312 L 179.824219 164.367188 C 196.457031 171.414062 215.644531 169.492188 230.996094 159.882812 Z M 230.996094 159.882812 " fill-opacity="1" fill-rule="nonzero"/><path fill="#edb88e" d="M 328.222656 91.976562 L 301.355469 99.664062 L 302.636719 105.429688 C 309.671875 133.617188 284.085938 159.882812 255.941406 152.835938 L 240.589844 148.992188 C 234.832031 147.710938 228.4375 148.351562 223.320312 150.914062 C 209.886719 156.679688 194.535156 157.320312 180.464844 151.554688 C 172.789062 150.273438 165.113281 152.195312 159.355469 157.320312 L 154.878906 161.164062 C 148.480469 165.007812 141.445312 166.289062 134.410156 165.648438 C 126.09375 164.367188 121.617188 161.164062 119.058594 157.320312 C 117.136719 161.164062 116.5 166.289062 119.058594 170.132812 C 125.453125 180.382812 138.246094 183.585938 148.480469 177.820312 L 174.707031 162.445312 L 179.824219 164.367188 C 196.453125 170.773438 215.644531 169.492188 230.996094 159.882812 L 294.320312 196.398438 L 353.808594 188.070312 Z M 328.222656 91.976562 " fill-opacity="1" fill-rule="nonzero"/><g clip-path="url(#e29aa82d4e)"><path fill="#ef5350" d="M 372.996094 59.945312 L 309.03125 79.164062 L 341.015625 207.289062 L 372.996094 200.882812 Z M 372.996094 59.945312 " fill-opacity="1" fill-rule="nonzero"/></g><path fill="#e53935" d="M 372.996094 169.492188 L 372.996094 200.882812 L 341.015625 207.289062 L 309.03125 79.164062 L 322.464844 75.320312 L 339.734375 143.226562 C 343.574219 159.242188 357.644531 169.492188 372.996094 169.492188 Z M 372.996094 169.492188 " fill-opacity="1" fill-rule="nonzero"/></svg>