<svg xmlns="http://www.w3.org/2000/svg" xmlns:xlink="http://www.w3.org/1999/xlink" width="500" zoomAndPan="magnify" viewBox="0 0 375 359.999987" height="480" preserveAspectRatio="xMidYMid meet" version="1.0"><defs><clipPath id="c0164a2f72"><path d="M 71.644531 0 L 303.394531 0 L 303.394531 233 L 71.644531 233 Z M 71.644531 0 " clip-rule="nonzero"/></clipPath></defs><path fill="#ffb300" d="M 150.972656 359.503906 C 149.78125 359.503906 148.621094 358.992188 147.816406 358.074219 L 120.507812 327.074219 L 81.34375 340.269531 C 79.875 340.769531 78.246094 340.410156 77.117188 339.351562 C 75.988281 338.292969 75.53125 336.691406 75.941406 335.191406 L 111.898438 201.023438 C 112.496094 198.777344 114.804688 197.445312 117.046875 198.050781 C 117.355469 198.125 117.644531 198.246094 117.917969 198.386719 L 132.644531 182.660156 L 132.976562 182.316406 L 133.417969 182.460938 L 175.339844 196.84375 L 175.691406 196.96875 L 175.804688 197.332031 L 183.625 224.046875 C 184.414062 223.753906 185.304688 223.695312 186.171875 223.925781 C 188.417969 224.523438 189.75 226.832031 189.148438 229.078125 L 155.035156 356.382812 C 154.636719 357.882812 153.441406 359.042969 151.933594 359.394531 C 151.609375 359.464844 151.289062 359.503906 150.972656 359.503906 Z M 150.972656 359.503906 " fill-opacity="1" fill-rule="evenodd"/><path fill="#ffb300" d="M 224.144531 359.503906 C 223.824219 359.503906 223.5 359.464844 223.183594 359.394531 C 221.675781 359.035156 220.484375 357.882812 220.078125 356.382812 L 185.960938 229.082031 C 185.359375 226.839844 186.691406 224.53125 188.9375 223.925781 C 190.125 223.613281 191.335938 223.835938 192.296875 224.453125 L 201.761719 192.421875 L 201.898438 191.980469 L 202.347656 191.90625 L 243.566406 184.890625 L 243.953125 184.828125 L 244.21875 185.113281 L 256.785156 198.632812 C 257.164062 198.371094 257.59375 198.175781 258.0625 198.050781 C 260.308594 197.445312 262.617188 198.777344 263.21875 201.023438 L 299.179688 335.191406 C 299.578125 336.691406 299.121094 338.292969 297.992188 339.351562 C 296.863281 340.410156 295.234375 340.769531 293.769531 340.269531 L 254.609375 327.074219 L 227.304688 358.074219 C 226.488281 358.992188 225.339844 359.503906 224.144531 359.503906 Z M 224.144531 359.503906 " fill-opacity="1" fill-rule="evenodd"/><g clip-path="url(#c0164a2f72)"><path fill="#99bac6" d="M 195.617188 232.199219 L 179.5 232.199219 L 179.5 227.988281 L 179.492188 232.199219 C 174.421875 232.199219 170.265625 228.183594 169.839844 222.867188 L 168.058594 200.617188 C 158.71875 198.46875 149.898438 194.816406 141.753906 189.714844 L 124.746094 204.195312 C 122.828125 205.820312 120.4375 206.71875 118.007812 206.71875 C 115.476562 206.71875 113.097656 205.746094 111.324219 203.964844 L 99.921875 192.570312 C 96.335938 188.980469 96.230469 183.207031 99.695312 179.144531 L 114.171875 162.140625 C 109.078125 153.996094 105.421875 145.179688 103.273438 135.847656 L 81.011719 134.058594 C 75.695312 133.632812 71.679688 129.476562 71.679688 124.40625 L 71.679688 108.292969 C 71.679688 103.214844 75.695312 99.0625 81.011719 98.640625 L 103.269531 96.851562 C 105.414062 87.515625 109.070312 78.691406 114.171875 70.554688 L 99.695312 53.550781 C 96.238281 49.488281 96.335938 43.714844 99.921875 40.128906 L 111.324219 28.730469 C 113.097656 26.957031 115.476562 25.972656 118.003906 25.972656 C 120.4375 25.972656 122.828125 26.871094 124.746094 28.503906 L 141.753906 42.976562 C 149.890625 37.878906 158.71875 34.222656 168.058594 32.078125 L 169.839844 9.832031 C 170.265625 4.507812 174.421875 0.496094 179.5 0.496094 L 195.617188 0.496094 C 200.691406 0.496094 204.84375 4.507812 205.273438 9.832031 L 207.0625 32.078125 C 216.394531 34.222656 225.21875 37.878906 233.359375 42.976562 L 250.367188 28.503906 C 252.28125 26.871094 254.675781 25.972656 257.109375 25.972656 C 259.632812 25.972656 262.011719 26.957031 263.789062 28.730469 L 275.191406 40.128906 C 278.773438 43.714844 278.878906 49.488281 275.414062 53.550781 L 260.941406 70.558594 C 266.035156 78.699219 269.6875 87.515625 271.835938 96.851562 L 294.097656 98.632812 C 299.417969 99.0625 303.429688 103.214844 303.429688 108.292969 L 303.429688 124.40625 C 303.429688 129.476562 299.417969 133.632812 294.097656 134.058594 L 271.84375 135.847656 C 269.695312 145.183594 266.039062 154.003906 260.941406 162.140625 L 275.414062 179.144531 C 278.875 183.207031 278.773438 188.980469 275.191406 192.5625 L 263.789062 203.964844 C 262.011719 205.738281 259.632812 206.71875 257.109375 206.71875 C 254.675781 206.71875 252.28125 205.820312 250.367188 204.1875 L 233.359375 189.707031 C 225.210938 194.808594 216.394531 198.464844 207.0625 200.609375 L 205.273438 222.859375 C 204.84375 228.183594 200.691406 232.199219 195.617188 232.199219 Z M 195.617188 232.199219 " fill-opacity="1" fill-rule="evenodd"/></g><path fill="#ffffff" d="M 187.554688 182.960938 C 150.816406 182.960938 120.929688 153.078125 120.929688 116.347656 C 120.929688 79.617188 150.816406 49.738281 187.554688 49.738281 C 224.292969 49.738281 254.183594 79.617188 254.183594 116.347656 C 254.183594 153.078125 224.292969 182.960938 187.554688 182.960938 Z M 187.554688 182.960938 " fill-opacity="1" fill-rule="evenodd"/><path fill="#ffb300" d="M 172.105469 147.597656 C 171.160156 147.597656 170.210938 147.28125 169.4375 146.652344 C 169.335938 146.558594 169.230469 146.46875 169.128906 146.363281 C 169.125 146.363281 169.125 146.363281 169.125 146.355469 L 145.941406 123.1875 C 144.300781 121.539062 144.300781 118.878906 145.941406 117.230469 C 147.582031 115.589844 150.25 115.589844 151.890625 117.230469 L 172.105469 137.441406 L 223.21875 86.328125 C 224.863281 84.6875 227.527344 84.6875 229.167969 86.328125 C 230.8125 87.976562 230.8125 90.636719 229.167969 92.285156 L 175.082031 146.363281 C 175.074219 146.371094 175.074219 146.371094 175.074219 146.371094 C 175.074219 146.371094 175.074219 146.371094 175.066406 146.371094 C 175.046875 146.398438 175.015625 146.425781 174.988281 146.449219 L 174.988281 146.453125 L 174.980469 146.453125 C 174.28125 147.121094 173.390625 147.492188 172.492188 147.578125 C 172.359375 147.589844 172.230469 147.597656 172.105469 147.597656 Z M 172.105469 147.597656 " fill-opacity="1" fill-rule="evenodd"/></svg>