<svg xmlns="http://www.w3.org/2000/svg" xmlns:xlink="http://www.w3.org/1999/xlink" width="500" zoomAndPan="magnify" viewBox="0 0 375 374.999991" height="500" preserveAspectRatio="xMidYMid meet" version="1.0"><defs><clipPath id="32a357d74f"><path d="M 175 348 L 200 348 L 200 368.296875 L 175 368.296875 Z M 175 348 " clip-rule="nonzero"/></clipPath></defs><path fill="#9facba" d="M 133.382812 307.648438 C 136.484375 308.414062 138.382812 311.550781 137.621094 314.65625 C 136.855469 317.761719 133.71875 319.660156 130.617188 318.894531 C 120.480469 316.398438 110.660156 312.753906 101.371094 308.023438 C 96.644531 305.617188 92.042969 302.921875 87.59375 299.949219 L 89.054688 303.929688 C 90.160156 306.933594 88.617188 310.265625 85.609375 311.367188 C 82.605469 312.46875 79.277344 310.925781 78.175781 307.917969 L 69.667969 284.773438 C 68.566406 281.769531 70.109375 278.4375 73.113281 277.335938 C 73.960938 277.023438 74.839844 276.925781 75.683594 277.007812 L 97.582031 277.761719 C 100.773438 277.863281 103.28125 280.53125 103.183594 283.726562 C 103.082031 286.917969 100.410156 289.425781 97.21875 289.328125 L 92.339844 289.160156 C 96.917969 292.324219 101.691406 295.171875 106.632812 297.683594 C 115.179688 302.039062 124.160156 305.375 133.382812 307.648438 Z M 80.429688 73.488281 C 77.246094 73.773438 74.4375 71.429688 74.148438 68.25 C 73.859375 65.066406 76.203125 62.253906 79.386719 61.96875 L 103.9375 59.738281 C 107.117188 59.449219 109.929688 61.792969 110.21875 64.976562 C 110.292969 65.804688 110.1875 66.609375 109.9375 67.351562 L 103.480469 88.515625 C 102.554688 91.574219 99.328125 93.296875 96.273438 92.371094 C 93.21875 91.445312 91.492188 88.214844 92.417969 85.160156 L 93.84375 80.496094 C 89.585938 84.105469 85.601562 87.984375 81.902344 92.09375 C 75.5 99.207031 69.957031 107.023438 65.363281 115.359375 C 63.824219 118.164062 60.300781 119.191406 57.5 117.648438 C 54.695312 116.109375 53.667969 112.585938 55.207031 109.78125 C 60.234375 100.652344 66.296875 92.109375 73.285156 84.339844 C 76.84375 80.382812 80.640625 76.628906 84.660156 73.101562 Z M 308.097656 87.089844 C 307.808594 83.90625 310.152344 81.09375 313.335938 80.804688 C 316.515625 80.519531 319.328125 82.863281 319.613281 86.042969 L 321.84375 110.605469 C 322.128906 113.785156 319.785156 116.597656 316.605469 116.886719 C 315.777344 116.960938 314.972656 116.855469 314.230469 116.605469 L 293.070312 110.148438 C 290.015625 109.21875 288.292969 105.992188 289.21875 102.933594 C 290.144531 99.878906 293.371094 98.15625 296.425781 99.082031 L 301.089844 100.503906 C 297.484375 96.25 293.605469 92.261719 289.496094 88.558594 C 282.382812 82.160156 274.570312 76.613281 266.234375 72.019531 C 263.429688 70.480469 262.40625 66.957031 263.945312 64.152344 C 265.484375 61.347656 269.007812 60.320312 271.8125 61.863281 C 280.9375 66.886719 289.480469 72.953125 297.246094 79.945312 C 301.199219 83.503906 304.953125 87.300781 308.480469 91.320312 Z M 268 317.65625 C 271.179688 317.367188 273.992188 319.714844 274.277344 322.894531 C 274.566406 326.074219 272.222656 328.886719 269.042969 329.175781 L 244.488281 331.40625 C 241.308594 331.691406 238.496094 329.347656 238.207031 326.167969 C 238.132812 325.335938 238.238281 324.53125 238.488281 323.792969 L 244.945312 302.625 C 245.871094 299.570312 249.101562 297.84375 252.152344 298.773438 C 255.207031 299.699219 256.933594 302.925781 256.007812 305.980469 L 254.585938 310.648438 C 258.839844 307.039062 262.824219 303.160156 266.527344 299.046875 C 272.925781 291.933594 278.472656 284.121094 283.0625 275.78125 C 284.601562 272.976562 288.125 271.953125 290.929688 273.492188 C 293.734375 275.03125 294.757812 278.554688 293.21875 281.359375 C 288.191406 290.488281 282.128906 299.035156 275.140625 306.800781 C 271.582031 310.757812 267.785156 314.511719 263.765625 318.039062 Z M 268 317.65625 " fill-opacity="1" fill-rule="evenodd"/><path fill="#8ac9fe" d="M 93.640625 129.992188 C 94.683594 130.238281 95.714844 130.507812 96.742188 130.804688 C 97.769531 131.101562 98.785156 131.421875 99.796875 131.769531 C 100.808594 132.117188 101.808594 132.488281 102.800781 132.882812 C 103.796875 133.28125 104.777344 133.699219 105.75 134.144531 C 106.722656 134.585938 107.679688 135.054688 108.628906 135.546875 C 109.578125 136.039062 110.515625 136.550781 111.4375 137.089844 C 112.363281 137.625 113.273438 138.1875 114.167969 138.769531 C 115.066406 139.347656 115.945312 139.953125 116.8125 140.578125 C 117.679688 141.203125 118.53125 141.847656 119.367188 142.515625 C 120.199219 143.183594 121.019531 143.871094 121.820312 144.578125 C 122.621094 145.285156 123.402344 146.011719 124.167969 146.757812 C 124.933594 147.503906 125.683594 148.265625 126.410156 149.046875 C 127.136719 149.832031 127.847656 150.628906 128.535156 151.449219 C 129.222656 152.265625 129.890625 153.097656 130.539062 153.949219 C 131.1875 154.796875 131.816406 155.664062 132.421875 156.542969 C 133.027344 157.425781 133.609375 158.320312 134.171875 159.230469 C 134.730469 160.136719 135.269531 161.0625 135.785156 161.996094 C 136.304688 162.933594 136.796875 163.878906 137.265625 164.839844 C 137.734375 165.800781 138.179688 166.769531 138.601562 167.753906 C 139.023438 168.734375 139.421875 169.726562 139.796875 170.726562 C 140.167969 171.730469 140.519531 172.738281 140.839844 173.757812 C 141.164062 174.777344 141.464844 175.800781 141.738281 176.835938 C 142.011719 177.867188 142.257812 178.90625 142.480469 179.953125 C 142.703125 181 142.898438 182.046875 143.070312 183.105469 C 143.242188 184.160156 143.386719 185.21875 143.503906 186.28125 C 143.625 187.339844 143.71875 188.40625 143.785156 189.472656 C 143.851562 190.539062 143.890625 191.605469 143.90625 192.675781 C 143.917969 193.746094 143.90625 194.8125 143.867188 195.882812 C 143.832031 196.949219 143.765625 198.015625 143.675781 199.082031 C 143.585938 200.144531 143.46875 201.207031 143.324219 202.265625 C 143.183594 203.324219 143.015625 204.378906 142.820312 205.433594 C 142.625 206.484375 142.40625 207.527344 142.160156 208.566406 C 141.914062 209.609375 141.644531 210.640625 141.347656 211.667969 C 141.050781 212.695312 140.726562 213.714844 140.382812 214.726562 C 140.035156 215.734375 139.664062 216.738281 139.269531 217.730469 C 138.871094 218.722656 138.453125 219.707031 138.007812 220.679688 C 137.566406 221.652344 137.097656 222.609375 136.605469 223.558594 C 136.113281 224.507812 135.601562 225.445312 135.0625 226.371094 C 134.527344 227.292969 133.96875 228.203125 133.386719 229.101562 C 132.804688 229.996094 132.199219 230.878906 131.574219 231.746094 C 130.949219 232.613281 130.304688 233.464844 129.636719 234.296875 C 128.972656 235.132812 128.285156 235.953125 127.578125 236.753906 C 126.871094 237.554688 126.144531 238.339844 125.398438 239.105469 C 124.652344 239.871094 123.890625 240.617188 123.105469 241.34375 C 122.324219 242.074219 121.527344 242.78125 120.707031 243.46875 C 119.890625 244.160156 119.058594 244.828125 118.210938 245.476562 C 117.359375 246.125 116.496094 246.75 115.613281 247.355469 C 114.734375 247.960938 113.839844 248.546875 112.929688 249.105469 C 112.019531 249.667969 111.097656 250.207031 110.164062 250.722656 C 109.226562 251.242188 108.28125 251.734375 107.320312 252.203125 C 106.359375 252.671875 105.390625 253.117188 104.40625 253.539062 C 103.425781 253.964844 102.433594 254.359375 101.433594 254.734375 C 100.433594 255.109375 99.421875 255.457031 98.40625 255.78125 C 97.386719 256.105469 96.359375 256.402344 95.328125 256.675781 C 94.292969 256.949219 93.253906 257.199219 92.210938 257.417969 C 91.164062 257.640625 90.117188 257.839844 89.0625 258.011719 C 88.007812 258.179688 86.949219 258.324219 85.886719 258.445312 C 84.824219 258.5625 83.761719 258.65625 82.695312 258.722656 C 81.628906 258.789062 80.558594 258.828125 79.492188 258.84375 C 78.421875 258.859375 77.355469 258.847656 76.289062 258.808594 C 75.21875 258.769531 74.152344 258.707031 73.089844 258.613281 C 72.023438 258.523438 70.960938 258.40625 69.902344 258.265625 C 68.84375 258.121094 67.789062 257.953125 66.738281 257.757812 C 65.6875 257.5625 64.644531 257.34375 63.601562 257.097656 C 62.5625 256.851562 61.53125 256.582031 60.503906 256.285156 C 59.476562 255.988281 58.457031 255.667969 57.449219 255.320312 C 56.4375 254.972656 55.433594 254.601562 54.441406 254.207031 C 53.449219 253.808594 52.46875 253.390625 51.496094 252.945312 C 50.523438 252.503906 49.5625 252.035156 48.613281 251.542969 C 47.667969 251.050781 46.730469 250.539062 45.804688 250 C 44.882812 249.464844 43.972656 248.902344 43.074219 248.320312 C 42.179688 247.738281 41.296875 247.136719 40.433594 246.511719 C 39.566406 245.886719 38.714844 245.238281 37.878906 244.574219 C 37.042969 243.90625 36.226562 243.21875 35.425781 242.511719 C 34.625 241.804688 33.839844 241.078125 33.074219 240.332031 C 32.308594 239.585938 31.5625 238.824219 30.835938 238.042969 C 30.105469 237.257812 29.398438 236.460938 28.710938 235.640625 C 28.019531 234.824219 27.351562 233.992188 26.703125 233.140625 C 26.058594 232.292969 25.429688 231.425781 24.824219 230.546875 C 24.21875 229.664062 23.636719 228.769531 23.074219 227.859375 C 22.511719 226.953125 21.972656 226.027344 21.457031 225.09375 C 20.941406 224.15625 20.449219 223.210938 19.980469 222.25 C 19.511719 221.289062 19.0625 220.320312 18.640625 219.335938 C 18.21875 218.355469 17.824219 217.363281 17.449219 216.363281 C 17.074219 215.359375 16.726562 214.351562 16.402344 213.332031 C 16.078125 212.3125 15.78125 211.289062 15.507812 210.253906 C 15.234375 209.222656 14.988281 208.183594 14.765625 207.136719 C 14.542969 206.089844 14.34375 205.039062 14.175781 203.984375 C 14.003906 202.929688 13.859375 201.871094 13.738281 200.808594 C 13.621094 199.746094 13.527344 198.683594 13.460938 197.617188 C 13.394531 196.550781 13.355469 195.484375 13.339844 194.414062 C 13.324219 193.34375 13.339844 192.277344 13.375 191.207031 C 13.414062 190.140625 13.480469 189.074219 13.570312 188.007812 C 13.660156 186.945312 13.777344 185.882812 13.917969 184.824219 C 14.0625 183.765625 14.230469 182.707031 14.425781 181.65625 C 14.621094 180.605469 14.839844 179.5625 15.085938 178.519531 C 15.332031 177.480469 15.601562 176.449219 15.898438 175.421875 C 16.195312 174.394531 16.515625 173.375 16.863281 172.363281 C 17.210938 171.351562 17.582031 170.351562 17.976562 169.359375 C 18.371094 168.367188 18.792969 167.382812 19.238281 166.410156 C 19.679688 165.4375 20.148438 164.480469 20.640625 163.53125 C 21.128906 162.582031 21.644531 161.644531 22.179688 160.71875 C 22.71875 159.796875 23.277344 158.886719 23.859375 157.988281 C 24.441406 157.09375 25.042969 156.210938 25.667969 155.34375 C 26.292969 154.476562 26.941406 153.625 27.609375 152.792969 C 28.273438 151.957031 28.960938 151.136719 29.667969 150.335938 C 30.375 149.535156 31.101562 148.75 31.847656 147.984375 C 32.59375 147.21875 33.355469 146.472656 34.136719 145.746094 C 34.921875 145.015625 35.71875 144.308594 36.535156 143.617188 C 37.351562 142.929688 38.1875 142.261719 39.035156 141.613281 C 39.886719 140.964844 40.75 140.339844 41.632812 139.734375 C 42.511719 139.128906 43.40625 138.542969 44.316406 137.984375 C 45.226562 137.421875 46.148438 136.882812 47.082031 136.367188 C 48.019531 135.847656 48.964844 135.355469 49.925781 134.886719 C 50.886719 134.417969 51.855469 133.972656 52.835938 133.546875 C 53.820312 133.125 54.808594 132.730469 55.8125 132.355469 C 56.8125 131.980469 57.824219 131.632812 58.839844 131.308594 C 59.859375 130.984375 60.882812 130.6875 61.917969 130.414062 C 62.949219 130.140625 63.988281 129.890625 65.035156 129.667969 C 66.078125 129.449219 67.128906 129.25 68.183594 129.078125 C 69.238281 128.910156 70.296875 128.765625 71.359375 128.644531 C 72.421875 128.527344 73.484375 128.433594 74.550781 128.367188 C 75.617188 128.300781 76.683594 128.261719 77.753906 128.246094 C 78.820312 128.230469 79.890625 128.242188 80.957031 128.28125 C 82.027344 128.320312 83.09375 128.382812 84.15625 128.476562 C 85.222656 128.566406 86.28125 128.683594 87.34375 128.824219 C 88.402344 128.96875 89.457031 129.136719 90.507812 129.332031 C 91.558594 129.523438 92.601562 129.746094 93.640625 129.992188 Z M 93.640625 129.992188 " fill-opacity="1" fill-rule="nonzero"/><path fill="#60b7ff" d="M 78.648438 128.175781 C 114.707031 128.175781 143.9375 157.414062 143.9375 193.480469 C 143.9375 229.546875 114.707031 258.785156 78.648438 258.785156 C 77.480469 258.785156 76.320312 258.753906 75.167969 258.691406 C 109.609375 256.882812 136.976562 228.378906 136.976562 193.480469 C 136.976562 158.582031 109.609375 130.078125 75.167969 128.265625 C 76.320312 128.207031 77.480469 128.175781 78.648438 128.175781 Z M 78.648438 128.175781 " fill-opacity="1" fill-rule="evenodd"/><path fill="#a79ba7" d="M 88.003906 154.285156 C 92.148438 155.273438 96.109375 156.917969 99.738281 159.152344 L 107.367188 155.765625 L 116.355469 164.753906 L 112.96875 172.382812 C 115.207031 176.015625 116.847656 179.976562 117.835938 184.125 L 125.617188 187.121094 L 125.617188 199.835938 L 117.835938 202.835938 C 116.847656 206.980469 115.203125 210.945312 112.96875 214.574219 L 116.355469 222.203125 L 107.367188 231.195312 L 99.742188 227.808594 C 96.113281 230.042969 92.148438 231.6875 88.003906 232.675781 L 85.007812 240.460938 L 72.292969 240.460938 L 69.296875 232.675781 C 65.152344 231.6875 61.191406 230.042969 57.5625 227.808594 L 49.933594 231.195312 L 40.945312 222.203125 L 44.332031 214.578125 C 42.09375 210.945312 40.449219 206.984375 39.464844 202.835938 L 31.683594 199.839844 L 31.683594 187.121094 L 39.464844 184.125 C 40.449219 179.976562 42.09375 176.015625 44.332031 172.382812 L 40.941406 164.757812 L 49.933594 155.765625 L 57.558594 159.152344 C 61.1875 156.917969 65.148438 155.273438 69.296875 154.285156 L 72.292969 146.5 L 85.003906 146.5 Z M 88.003906 154.285156 " fill-opacity="1" fill-rule="evenodd"/><path fill="#837683" d="M 88.003906 154.285156 C 92.148438 155.273438 96.109375 156.917969 99.738281 159.152344 L 97.507812 160.144531 C 93.878906 157.910156 88.214844 155.273438 84.066406 154.285156 L 81.074219 146.5 L 85.007812 146.5 Z M 104.644531 156.976562 L 107.367188 155.765625 L 116.355469 164.753906 L 112.96875 172.382812 C 115.207031 176.015625 116.847656 179.976562 117.835938 184.125 L 125.617188 187.121094 L 125.617188 199.835938 L 117.835938 202.835938 C 116.847656 206.980469 115.203125 210.945312 112.96875 214.574219 L 116.355469 222.203125 L 107.367188 231.195312 L 104.644531 229.984375 L 112.421875 222.203125 L 109.035156 214.574219 C 111.269531 210.945312 112.914062 206.980469 113.902344 202.835938 L 121.683594 199.835938 L 121.683594 187.121094 L 113.902344 184.125 C 112.914062 179.976562 111.273438 176.011719 109.035156 172.382812 L 112.421875 164.753906 Z M 99.742188 227.808594 C 96.113281 230.042969 92.148438 231.6875 88.003906 232.675781 L 85.007812 240.460938 L 81.074219 240.460938 L 84.066406 232.675781 C 88.214844 231.6875 93.878906 229.054688 97.511719 226.816406 Z M 57.5625 227.808594 L 49.933594 231.195312 L 48.722656 229.984375 L 55.859375 226.816406 C 56.417969 227.160156 56.984375 227.492188 57.5625 227.808594 Z M 48.722656 156.976562 L 49.933594 155.765625 L 57.5625 159.152344 C 56.988281 159.46875 56.417969 159.800781 55.859375 160.144531 Z M 48.722656 156.976562 " fill-opacity="1" fill-rule="evenodd"/><path fill="#eceff1" d="M 95.667969 176.417969 C 96.226562 176.976562 96.757812 177.558594 97.257812 178.171875 C 97.757812 178.78125 98.230469 179.414062 98.667969 180.070312 C 99.105469 180.726562 99.511719 181.40625 99.882812 182.101562 C 100.257812 182.796875 100.59375 183.511719 100.894531 184.242188 C 101.199219 184.96875 101.464844 185.714844 101.691406 186.46875 C 101.921875 187.222656 102.113281 187.988281 102.265625 188.765625 C 102.421875 189.539062 102.539062 190.320312 102.613281 191.105469 C 102.691406 191.890625 102.730469 192.679688 102.730469 193.46875 C 102.730469 194.257812 102.691406 195.046875 102.613281 195.832031 C 102.539062 196.617188 102.421875 197.398438 102.265625 198.171875 C 102.113281 198.949219 101.921875 199.714844 101.691406 200.46875 C 101.464844 201.226562 101.199219 201.96875 100.894531 202.699219 C 100.59375 203.425781 100.257812 204.140625 99.882812 204.835938 C 99.511719 205.535156 99.105469 206.210938 98.667969 206.867188 C 98.230469 207.523438 97.757812 208.15625 97.257812 208.765625 C 96.757812 209.378906 96.226562 209.960938 95.667969 210.519531 C 95.109375 211.078125 94.527344 211.609375 93.917969 212.109375 C 93.304688 212.609375 92.671875 213.082031 92.015625 213.519531 C 91.359375 213.957031 90.683594 214.363281 89.988281 214.738281 C 89.289062 215.109375 88.578125 215.445312 87.847656 215.75 C 87.117188 216.050781 86.375 216.316406 85.621094 216.546875 C 84.863281 216.773438 84.101562 216.964844 83.324219 217.121094 C 82.550781 217.273438 81.769531 217.390625 80.984375 217.46875 C 80.199219 217.546875 79.410156 217.582031 78.621094 217.582031 C 77.832031 217.582031 77.042969 217.546875 76.257812 217.46875 C 75.472656 217.390625 74.691406 217.273438 73.917969 217.121094 C 73.144531 216.964844 72.378906 216.773438 71.625 216.546875 C 70.867188 216.316406 70.125 216.050781 69.394531 215.75 C 68.667969 215.445312 67.953125 215.109375 67.257812 214.738281 C 66.5625 214.363281 65.882812 213.957031 65.226562 213.519531 C 64.570312 213.082031 63.9375 212.609375 63.328125 212.109375 C 62.71875 211.609375 62.132812 211.078125 61.574219 210.519531 C 61.015625 209.960938 60.488281 209.378906 59.984375 208.765625 C 59.484375 208.15625 59.015625 207.523438 58.578125 206.867188 C 58.136719 206.210938 57.730469 205.535156 57.359375 204.835938 C 56.988281 204.140625 56.652344 203.425781 56.347656 202.699219 C 56.046875 201.96875 55.78125 201.226562 55.550781 200.46875 C 55.320312 199.714844 55.128906 198.949219 54.976562 198.171875 C 54.824219 197.398438 54.707031 196.617188 54.628906 195.832031 C 54.550781 195.046875 54.511719 194.257812 54.511719 193.46875 C 54.511719 192.679688 54.550781 191.890625 54.628906 191.105469 C 54.707031 190.320312 54.824219 189.539062 54.976562 188.765625 C 55.128906 187.988281 55.320312 187.222656 55.550781 186.46875 C 55.78125 185.714844 56.046875 184.96875 56.347656 184.242188 C 56.652344 183.511719 56.988281 182.796875 57.359375 182.101562 C 57.730469 181.40625 58.136719 180.726562 58.578125 180.070312 C 59.015625 179.414062 59.484375 178.78125 59.984375 178.171875 C 60.488281 177.558594 61.015625 176.976562 61.574219 176.417969 C 62.132812 175.859375 62.71875 175.328125 63.328125 174.828125 C 63.9375 174.328125 64.570312 173.855469 65.226562 173.417969 C 65.882812 172.980469 66.5625 172.574219 67.257812 172.203125 C 67.953125 171.828125 68.667969 171.492188 69.394531 171.191406 C 70.125 170.886719 70.867188 170.621094 71.625 170.390625 C 72.378906 170.164062 73.144531 169.972656 73.917969 169.816406 C 74.691406 169.664062 75.472656 169.546875 76.257812 169.46875 C 77.042969 169.394531 77.832031 169.355469 78.621094 169.355469 C 79.410156 169.355469 80.199219 169.394531 80.984375 169.46875 C 81.769531 169.546875 82.550781 169.664062 83.324219 169.816406 C 84.101562 169.972656 84.863281 170.164062 85.621094 170.390625 C 86.375 170.621094 87.117188 170.886719 87.847656 171.191406 C 88.578125 171.492188 89.289062 171.828125 89.988281 172.203125 C 90.683594 172.574219 91.359375 172.980469 92.015625 173.417969 C 92.671875 173.855469 93.304688 174.328125 93.917969 174.828125 C 94.527344 175.328125 95.109375 175.859375 95.667969 176.417969 Z M 95.667969 176.417969 " fill-opacity="1" fill-rule="nonzero"/><path fill="#d1d1d6" d="M 78.648438 169.363281 C 65.335938 169.363281 54.542969 180.160156 54.542969 193.480469 C 54.542969 206.800781 65.335938 217.59375 78.648438 217.59375 C 79.308594 217.59375 79.960938 217.566406 80.609375 217.515625 C 68.210938 216.519531 58.457031 206.140625 58.457031 193.480469 C 58.457031 180.820312 68.210938 170.441406 80.609375 169.445312 C 79.960938 169.394531 79.308594 169.363281 78.648438 169.363281 Z M 78.648438 169.363281 " fill-opacity="1" fill-rule="evenodd"/><path fill="#8ac9fe" d="M 202.511719 21.820312 C 203.550781 22.066406 204.582031 22.335938 205.609375 22.632812 C 206.636719 22.929688 207.65625 23.253906 208.664062 23.597656 C 209.675781 23.945312 210.679688 24.316406 211.671875 24.714844 C 212.664062 25.109375 213.644531 25.527344 214.617188 25.972656 C 215.589844 26.417969 216.550781 26.882812 217.5 27.375 C 218.449219 27.867188 219.382812 28.382812 220.308594 28.917969 C 221.230469 29.457031 222.140625 30.015625 223.039062 30.597656 C 223.933594 31.179688 224.816406 31.78125 225.679688 32.40625 C 226.546875 33.03125 227.398438 33.679688 228.234375 34.347656 C 229.070312 35.011719 229.886719 35.699219 230.6875 36.40625 C 231.488281 37.113281 232.273438 37.839844 233.039062 38.585938 C 233.804688 39.332031 234.550781 40.097656 235.277344 40.878906 C 236.007812 41.660156 236.714844 42.460938 237.402344 43.277344 C 238.09375 44.09375 238.761719 44.925781 239.410156 45.777344 C 240.054688 46.628906 240.683594 47.492188 241.289062 48.375 C 241.894531 49.253906 242.476562 50.148438 243.039062 51.058594 C 243.601562 51.96875 244.140625 52.890625 244.65625 53.824219 C 245.171875 54.761719 245.664062 55.710938 246.132812 56.667969 C 246.601562 57.628906 247.050781 58.601562 247.472656 59.582031 C 247.894531 60.5625 248.289062 61.554688 248.664062 62.558594 C 249.039062 63.558594 249.386719 64.570312 249.710938 65.585938 C 250.035156 66.605469 250.332031 67.632812 250.605469 68.664062 C 250.878906 69.699219 251.125 70.738281 251.347656 71.78125 C 251.570312 72.828125 251.769531 73.878906 251.9375 74.933594 C 252.109375 75.988281 252.253906 77.046875 252.375 78.109375 C 252.492188 79.171875 252.585938 80.234375 252.652344 81.300781 C 252.71875 82.367188 252.757812 83.4375 252.773438 84.503906 C 252.789062 85.574219 252.773438 86.640625 252.738281 87.710938 C 252.699219 88.777344 252.632812 89.84375 252.542969 90.910156 C 252.453125 91.976562 252.335938 93.035156 252.195312 94.097656 C 252.050781 95.15625 251.882812 96.210938 251.6875 97.261719 C 251.492188 98.3125 251.273438 99.359375 251.027344 100.398438 C 250.78125 101.4375 250.511719 102.472656 250.214844 103.496094 C 249.917969 104.523438 249.597656 105.542969 249.25 106.554688 C 248.902344 107.566406 248.53125 108.566406 248.136719 109.558594 C 247.742188 110.554688 247.320312 111.535156 246.875 112.507812 C 246.433594 113.480469 245.964844 114.441406 245.472656 115.390625 C 244.984375 116.339844 244.46875 117.277344 243.933594 118.199219 C 243.394531 119.125 242.835938 120.035156 242.253906 120.929688 C 241.671875 121.828125 241.070312 122.707031 240.445312 123.574219 C 239.820312 124.441406 239.171875 125.292969 238.507812 126.128906 C 237.839844 126.964844 237.152344 127.78125 236.445312 128.582031 C 235.738281 129.382812 235.011719 130.167969 234.265625 130.933594 C 233.519531 131.699219 232.757812 132.445312 231.976562 133.175781 C 231.195312 133.902344 230.394531 134.609375 229.578125 135.300781 C 228.761719 135.988281 227.925781 136.65625 227.078125 137.304688 C 226.226562 137.953125 225.363281 138.582031 224.480469 139.1875 C 223.601562 139.792969 222.707031 140.375 221.796875 140.9375 C 220.890625 141.5 219.964844 142.039062 219.03125 142.554688 C 218.09375 143.070312 217.148438 143.5625 216.1875 144.03125 C 215.226562 144.503906 214.257812 144.949219 213.277344 145.371094 C 212.292969 145.792969 211.304688 146.191406 210.300781 146.5625 C 209.300781 146.9375 208.289062 147.285156 207.273438 147.609375 C 206.253906 147.933594 205.230469 148.230469 204.195312 148.503906 C 203.164062 148.777344 202.125 149.027344 201.078125 149.25 C 200.035156 149.472656 198.984375 149.667969 197.929688 149.839844 C 196.875 150.011719 195.816406 150.15625 194.753906 150.273438 C 193.691406 150.394531 192.628906 150.484375 191.5625 150.550781 C 190.496094 150.617188 189.429688 150.660156 188.359375 150.671875 C 187.292969 150.6875 186.222656 150.675781 185.15625 150.636719 C 184.085938 150.597656 183.019531 150.535156 181.957031 150.445312 C 180.890625 150.355469 179.832031 150.238281 178.769531 150.09375 C 177.710938 149.953125 176.65625 149.78125 175.605469 149.589844 C 174.554688 149.394531 173.511719 149.171875 172.472656 148.929688 C 171.429688 148.683594 170.398438 148.410156 169.371094 148.113281 C 168.34375 147.816406 167.328125 147.496094 166.316406 147.148438 C 165.304688 146.800781 164.304688 146.429688 163.3125 146.035156 C 162.320312 145.640625 161.335938 145.21875 160.363281 144.777344 C 159.390625 144.332031 158.433594 143.863281 157.484375 143.371094 C 156.535156 142.882812 155.597656 142.367188 154.675781 141.832031 C 153.75 141.292969 152.839844 140.734375 151.945312 140.152344 C 151.046875 139.570312 150.167969 138.964844 149.300781 138.339844 C 148.433594 137.714844 147.582031 137.070312 146.746094 136.402344 C 145.914062 135.734375 145.09375 135.046875 144.292969 134.339844 C 143.492188 133.632812 142.710938 132.90625 141.945312 132.164062 C 141.179688 131.417969 140.429688 130.652344 139.703125 129.871094 C 138.976562 129.089844 138.265625 128.289062 137.578125 127.472656 C 136.890625 126.65625 136.222656 125.820312 135.574219 124.972656 C 134.925781 124.121094 134.296875 123.257812 133.691406 122.375 C 133.085938 121.496094 132.503906 120.597656 131.941406 119.691406 C 131.382812 118.78125 130.84375 117.859375 130.328125 116.921875 C 129.808594 115.988281 129.316406 115.039062 128.847656 114.078125 C 128.378906 113.117188 127.933594 112.148438 127.511719 111.167969 C 127.089844 110.183594 126.691406 109.191406 126.316406 108.191406 C 125.945312 107.191406 125.59375 106.179688 125.273438 105.160156 C 124.949219 104.144531 124.648438 103.117188 124.375 102.082031 C 124.101562 101.050781 123.855469 100.011719 123.632812 98.964844 C 123.410156 97.921875 123.214844 96.871094 123.042969 95.816406 C 122.871094 94.761719 122.726562 93.703125 122.609375 92.640625 C 122.488281 91.578125 122.394531 90.511719 122.328125 89.445312 C 122.261719 88.378906 122.222656 87.3125 122.207031 86.242188 C 122.195312 85.175781 122.207031 84.105469 122.246094 83.039062 C 122.28125 81.96875 122.347656 80.902344 122.4375 79.839844 C 122.527344 78.773438 122.644531 77.710938 122.789062 76.652344 C 122.929688 75.59375 123.097656 74.539062 123.292969 73.488281 C 123.488281 72.4375 123.707031 71.390625 123.953125 70.351562 C 124.199219 69.3125 124.472656 68.277344 124.765625 67.25 C 125.0625 66.222656 125.386719 65.203125 125.730469 64.195312 C 126.078125 63.183594 126.449219 62.179688 126.84375 61.1875 C 127.242188 60.195312 127.660156 59.214844 128.105469 58.242188 C 128.546875 57.269531 129.015625 56.308594 129.507812 55.359375 C 130 54.410156 130.511719 53.472656 131.050781 52.550781 C 131.585938 51.625 132.144531 50.714844 132.726562 49.820312 C 133.308594 48.921875 133.914062 48.039062 134.539062 47.171875 C 135.164062 46.308594 135.808594 45.457031 136.476562 44.621094 C 137.140625 43.785156 137.828125 42.96875 138.535156 42.164062 C 139.242188 41.363281 139.96875 40.582031 140.714844 39.816406 C 141.460938 39.050781 142.222656 38.300781 143.007812 37.574219 C 143.789062 36.847656 144.585938 36.136719 145.40625 35.449219 C 146.222656 34.757812 147.054688 34.089844 147.902344 33.441406 C 148.753906 32.796875 149.617188 32.167969 150.5 31.5625 C 151.378906 30.957031 152.273438 30.375 153.183594 29.8125 C 154.09375 29.25 155.015625 28.710938 155.949219 28.195312 C 156.886719 27.679688 157.832031 27.1875 158.792969 26.714844 C 159.753906 26.246094 160.722656 25.800781 161.707031 25.378906 C 162.6875 24.957031 163.679688 24.558594 164.679688 24.183594 C 165.679688 23.8125 166.691406 23.464844 167.707031 23.140625 C 168.726562 22.816406 169.753906 22.515625 170.785156 22.242188 C 171.820312 21.96875 172.859375 21.722656 173.902344 21.5 C 174.949219 21.277344 175.996094 21.082031 177.050781 20.910156 C 178.105469 20.738281 179.164062 20.59375 180.226562 20.476562 C 181.289062 20.355469 182.351562 20.261719 183.417969 20.195312 C 184.484375 20.128906 185.554688 20.089844 186.621094 20.074219 C 187.691406 20.0625 188.757812 20.074219 189.828125 20.109375 C 190.894531 20.148438 191.960938 20.214844 193.023438 20.304688 C 194.089844 20.394531 195.152344 20.511719 196.210938 20.652344 C 197.269531 20.796875 198.324219 20.964844 199.375 21.160156 C 200.425781 21.355469 201.46875 21.574219 202.511719 21.820312 Z M 202.511719 21.820312 " fill-opacity="1" fill-rule="nonzero"/><path fill="#60b7ff" d="M 187.464844 20.003906 C 223.523438 20.003906 252.75 49.242188 252.75 85.308594 C 252.75 121.375 223.523438 150.613281 187.464844 150.613281 C 186.296875 150.613281 185.136719 150.582031 183.980469 150.519531 C 218.421875 148.710938 245.789062 120.207031 245.789062 85.308594 C 245.789062 50.410156 218.421875 21.90625 183.980469 20.097656 C 185.136719 20.035156 186.296875 20.003906 187.464844 20.003906 Z M 187.464844 20.003906 " fill-opacity="1" fill-rule="evenodd"/><path fill="#ffe177" d="M 196.816406 46.113281 C 200.964844 47.101562 204.921875 48.746094 208.554688 50.980469 L 216.179688 47.59375 L 225.167969 56.585938 L 221.785156 64.210938 C 224.019531 67.84375 225.664062 71.804688 226.648438 75.953125 L 234.433594 78.949219 L 234.433594 91.667969 L 226.648438 94.664062 C 225.664062 98.8125 224.019531 102.773438 221.78125 106.402344 L 225.167969 114.03125 L 216.179688 123.023438 L 208.554688 119.636719 C 204.925781 121.875 200.964844 123.519531 196.816406 124.503906 L 193.820312 132.289062 L 181.109375 132.289062 L 178.113281 124.503906 C 173.964844 123.515625 170.003906 121.871094 166.375 119.636719 L 158.746094 123.023438 L 149.757812 114.035156 L 153.144531 106.40625 C 150.910156 102.777344 149.265625 98.8125 148.277344 94.664062 L 140.496094 91.667969 L 140.496094 78.953125 L 148.277344 75.957031 C 149.265625 71.808594 150.910156 67.84375 153.144531 64.214844 L 149.757812 56.585938 L 158.746094 47.59375 L 166.375 50.984375 C 170.003906 48.746094 173.964844 47.101562 178.109375 46.117188 L 181.105469 38.332031 L 193.820312 38.332031 Z M 196.816406 46.113281 " fill-opacity="1" fill-rule="evenodd"/><path fill="#ffd064" d="M 196.816406 46.113281 C 200.964844 47.101562 204.921875 48.746094 208.554688 50.980469 L 206.320312 51.972656 C 202.691406 49.738281 197.027344 47.101562 192.882812 46.113281 L 189.886719 38.328125 L 193.820312 38.328125 Z M 213.457031 48.804688 L 216.179688 47.59375 L 225.167969 56.585938 L 221.785156 64.210938 C 224.019531 67.84375 225.664062 71.804688 226.648438 75.953125 L 234.433594 78.949219 L 234.433594 91.667969 L 226.648438 94.664062 C 225.664062 98.8125 224.019531 102.773438 221.78125 106.402344 L 225.167969 114.03125 L 216.179688 123.023438 L 213.457031 121.8125 L 221.238281 114.03125 L 217.847656 106.402344 C 220.085938 102.773438 221.730469 98.8125 222.714844 94.664062 L 230.5 91.667969 L 230.5 78.949219 L 222.71875 75.953125 C 221.730469 71.804688 220.085938 67.84375 217.851562 64.210938 L 221.238281 56.585938 Z M 208.554688 119.636719 C 204.925781 121.875 200.964844 123.519531 196.816406 124.503906 L 193.820312 132.289062 L 189.886719 132.289062 L 192.882812 124.503906 C 197.027344 123.519531 202.691406 120.882812 206.324219 118.644531 Z M 166.375 119.636719 L 158.746094 123.023438 L 157.539062 121.8125 L 164.671875 118.644531 C 165.230469 118.988281 165.800781 119.320312 166.375 119.636719 Z M 157.535156 48.804688 L 158.746094 47.59375 L 166.375 50.980469 C 165.800781 51.296875 165.230469 51.628906 164.671875 51.972656 Z M 157.535156 48.804688 " fill-opacity="1" fill-rule="evenodd"/><path fill="#eceff1" d="M 204.484375 68.269531 C 205.042969 68.828125 205.570312 69.414062 206.070312 70.023438 C 206.574219 70.632812 207.042969 71.265625 207.480469 71.921875 C 207.917969 72.582031 208.324219 73.257812 208.699219 73.953125 C 209.070312 74.648438 209.40625 75.363281 209.710938 76.09375 C 210.011719 76.824219 210.277344 77.566406 210.507812 78.320312 C 210.734375 79.078125 210.925781 79.84375 211.082031 80.617188 C 211.234375 81.390625 211.351562 82.171875 211.429688 82.957031 C 211.503906 83.742188 211.542969 84.53125 211.542969 85.320312 C 211.542969 86.109375 211.503906 86.898438 211.429688 87.683594 C 211.351562 88.472656 211.234375 89.25 211.082031 90.027344 C 210.925781 90.800781 210.734375 91.566406 210.507812 92.320312 C 210.277344 93.078125 210.011719 93.820312 209.710938 94.550781 C 209.40625 95.28125 209.070312 95.992188 208.699219 96.6875 C 208.324219 97.386719 207.917969 98.0625 207.480469 98.71875 C 207.042969 99.375 206.574219 100.007812 206.070312 100.621094 C 205.570312 101.230469 205.042969 101.816406 204.484375 102.375 C 203.925781 102.929688 203.339844 103.460938 202.730469 103.960938 C 202.121094 104.464844 201.484375 104.933594 200.828125 105.371094 C 200.171875 105.8125 199.496094 106.214844 198.800781 106.589844 C 198.105469 106.960938 197.390625 107.296875 196.660156 107.601562 C 195.933594 107.902344 195.191406 108.167969 194.433594 108.398438 C 193.679688 108.628906 192.914062 108.820312 192.140625 108.972656 C 191.363281 109.128906 190.585938 109.242188 189.796875 109.320312 C 189.011719 109.398438 188.226562 109.4375 187.433594 109.4375 C 186.644531 109.4375 185.859375 109.398438 185.074219 109.320312 C 184.285156 109.242188 183.507812 109.128906 182.730469 108.972656 C 181.957031 108.820312 181.191406 108.628906 180.4375 108.398438 C 179.679688 108.167969 178.9375 107.902344 178.210938 107.601562 C 177.480469 107.296875 176.765625 106.960938 176.070312 106.589844 C 175.375 106.214844 174.699219 105.8125 174.042969 105.371094 C 173.386719 104.933594 172.75 104.464844 172.140625 103.960938 C 171.53125 103.460938 170.945312 102.929688 170.386719 102.375 C 169.828125 101.816406 169.300781 101.230469 168.800781 100.621094 C 168.296875 100.007812 167.828125 99.375 167.390625 98.71875 C 166.949219 98.0625 166.546875 97.386719 166.171875 96.6875 C 165.800781 95.992188 165.464844 95.28125 165.160156 94.550781 C 164.859375 93.820312 164.59375 93.078125 164.363281 92.320312 C 164.136719 91.566406 163.945312 90.800781 163.789062 90.027344 C 163.636719 89.25 163.519531 88.472656 163.441406 87.683594 C 163.367188 86.898438 163.328125 86.109375 163.328125 85.320312 C 163.328125 84.53125 163.367188 83.742188 163.441406 82.957031 C 163.519531 82.171875 163.636719 81.390625 163.789062 80.617188 C 163.945312 79.84375 164.136719 79.078125 164.363281 78.320312 C 164.59375 77.566406 164.859375 76.824219 165.160156 76.09375 C 165.464844 75.363281 165.800781 74.648438 166.171875 73.953125 C 166.546875 73.257812 166.949219 72.582031 167.390625 71.921875 C 167.828125 71.265625 168.296875 70.632812 168.800781 70.023438 C 169.300781 69.414062 169.828125 68.828125 170.386719 68.269531 C 170.945312 67.710938 171.53125 67.179688 172.140625 66.679688 C 172.75 66.179688 173.386719 65.710938 174.042969 65.269531 C 174.699219 64.832031 175.375 64.425781 176.070312 64.054688 C 176.765625 63.679688 177.480469 63.34375 178.210938 63.042969 C 178.9375 62.738281 179.679688 62.472656 180.4375 62.246094 C 181.191406 62.015625 181.957031 61.824219 182.730469 61.667969 C 183.507812 61.515625 184.285156 61.398438 185.074219 61.324219 C 185.859375 61.246094 186.644531 61.207031 187.433594 61.207031 C 188.226562 61.207031 189.011719 61.246094 189.796875 61.324219 C 190.585938 61.398438 191.363281 61.515625 192.140625 61.667969 C 192.914062 61.824219 193.679688 62.015625 194.433594 62.246094 C 195.191406 62.472656 195.933594 62.738281 196.660156 63.042969 C 197.390625 63.34375 198.105469 63.679688 198.800781 64.054688 C 199.496094 64.425781 200.171875 64.832031 200.828125 65.269531 C 201.484375 65.710938 202.121094 66.179688 202.730469 66.679688 C 203.339844 67.179688 203.925781 67.710938 204.484375 68.269531 Z M 204.484375 68.269531 " fill-opacity="1" fill-rule="nonzero"/><path fill="#d1d1d6" d="M 187.464844 61.195312 C 174.148438 61.195312 163.355469 71.988281 163.355469 85.308594 C 163.355469 98.628906 174.148438 109.425781 187.464844 109.425781 C 188.125 109.425781 188.777344 109.398438 189.421875 109.34375 C 177.023438 108.347656 167.273438 97.96875 167.273438 85.308594 C 167.273438 72.648438 177.023438 62.269531 189.421875 61.273438 C 188.777344 61.222656 188.125 61.195312 187.464844 61.195312 Z M 187.464844 61.195312 " fill-opacity="1" fill-rule="evenodd"/><path fill="#8ac9fe" d="M 311.324219 130.046875 C 312.363281 130.292969 313.394531 130.5625 314.421875 130.859375 C 315.449219 131.15625 316.46875 131.476562 317.476562 131.824219 C 318.488281 132.171875 319.492188 132.542969 320.484375 132.9375 C 321.476562 133.332031 322.457031 133.753906 323.429688 134.199219 C 324.402344 134.640625 325.363281 135.109375 326.3125 135.601562 C 327.257812 136.09375 328.195312 136.605469 329.121094 137.144531 C 330.042969 137.679688 330.953125 138.238281 331.851562 138.820312 C 332.746094 139.402344 333.628906 140.007812 334.492188 140.632812 C 335.359375 141.257812 336.210938 141.902344 337.046875 142.570312 C 337.882812 143.238281 338.699219 143.925781 339.5 144.632812 C 340.300781 145.339844 341.085938 146.066406 341.851562 146.8125 C 342.617188 147.558594 343.363281 148.320312 344.089844 149.101562 C 344.820312 149.886719 345.527344 150.683594 346.214844 151.503906 C 346.90625 152.320312 347.574219 153.152344 348.222656 154.003906 C 348.867188 154.851562 349.496094 155.71875 350.101562 156.597656 C 350.707031 157.480469 351.289062 158.375 351.851562 159.285156 C 352.414062 160.191406 352.953125 161.113281 353.46875 162.050781 C 353.984375 162.988281 354.476562 163.933594 354.945312 164.894531 C 355.414062 165.855469 355.863281 166.824219 356.285156 167.808594 C 356.707031 168.789062 357.101562 169.78125 357.476562 170.78125 C 357.851562 171.785156 358.199219 172.792969 358.523438 173.8125 C 358.847656 174.832031 359.144531 175.855469 359.417969 176.890625 C 359.691406 177.921875 359.9375 178.960938 360.160156 180.007812 C 360.382812 181.054688 360.582031 182.101562 360.75 183.15625 C 360.921875 184.214844 361.066406 185.273438 361.1875 186.332031 C 361.304688 187.394531 361.398438 188.460938 361.464844 189.527344 C 361.53125 190.59375 361.570312 191.660156 361.585938 192.730469 C 361.601562 193.796875 361.585938 194.867188 361.550781 195.933594 C 361.511719 197.003906 361.445312 198.070312 361.355469 199.132812 C 361.265625 200.199219 361.148438 201.261719 361.007812 202.320312 C 360.863281 203.378906 360.695312 204.433594 360.5 205.484375 C 360.304688 206.535156 360.085938 207.582031 359.839844 208.621094 C 359.59375 209.664062 359.324219 210.695312 359.027344 211.722656 C 358.730469 212.75 358.410156 213.769531 358.0625 214.78125 C 357.714844 215.789062 357.34375 216.792969 356.949219 217.785156 C 356.554688 218.777344 356.132812 219.761719 355.6875 220.734375 C 355.246094 221.703125 354.777344 222.664062 354.285156 223.613281 C 353.796875 224.5625 353.28125 225.5 352.746094 226.425781 C 352.207031 227.347656 351.648438 228.257812 351.066406 229.15625 C 350.484375 230.050781 349.882812 230.933594 349.257812 231.800781 C 348.632812 232.667969 347.984375 233.519531 347.316406 234.351562 C 346.652344 235.1875 345.964844 236.007812 345.257812 236.808594 C 344.550781 237.609375 343.824219 238.390625 343.078125 239.160156 C 342.332031 239.925781 341.570312 240.671875 340.789062 241.398438 C 340.003906 242.128906 339.207031 242.835938 338.390625 243.523438 C 337.574219 244.214844 336.738281 244.882812 335.890625 245.53125 C 335.039062 246.179688 334.175781 246.804688 333.292969 247.410156 C 332.414062 248.015625 331.519531 248.601562 330.609375 249.160156 C 329.699219 249.722656 328.777344 250.261719 327.84375 250.777344 C 326.90625 251.292969 325.960938 251.789062 325 252.257812 C 324.039062 252.726562 323.070312 253.171875 322.089844 253.59375 C 321.105469 254.015625 320.113281 254.414062 319.113281 254.789062 C 318.113281 255.160156 317.101562 255.511719 316.085938 255.835938 C 315.066406 256.160156 314.042969 256.457031 313.007812 256.730469 C 311.976562 257.003906 310.9375 257.25 309.890625 257.472656 C 308.847656 257.695312 307.796875 257.894531 306.742188 258.0625 C 305.6875 258.234375 304.628906 258.378906 303.566406 258.5 C 302.503906 258.617188 301.441406 258.710938 300.375 258.777344 C 299.308594 258.84375 298.242188 258.882812 297.171875 258.898438 C 296.105469 258.914062 295.035156 258.902344 293.96875 258.863281 C 292.898438 258.824219 291.832031 258.761719 290.769531 258.667969 C 289.703125 258.578125 288.640625 258.460938 287.582031 258.320312 C 286.523438 258.175781 285.46875 258.007812 284.417969 257.8125 C 283.367188 257.617188 282.324219 257.398438 281.285156 257.152344 C 280.242188 256.90625 279.210938 256.636719 278.183594 256.339844 C 277.15625 256.042969 276.140625 255.722656 275.128906 255.375 C 274.117188 255.027344 273.117188 254.65625 272.125 254.261719 C 271.128906 253.863281 270.148438 253.445312 269.175781 253 C 268.203125 252.554688 267.246094 252.089844 266.296875 251.597656 C 265.347656 251.105469 264.410156 250.59375 263.488281 250.054688 C 262.5625 249.519531 261.652344 248.957031 260.757812 248.375 C 259.859375 247.792969 258.980469 247.191406 258.113281 246.566406 C 257.246094 245.941406 256.394531 245.292969 255.558594 244.628906 C 254.726562 243.960938 253.90625 243.273438 253.105469 242.566406 C 252.304688 241.859375 251.519531 241.132812 250.753906 240.386719 C 249.992188 239.640625 249.242188 238.878906 248.515625 238.09375 C 247.789062 237.3125 247.078125 236.511719 246.390625 235.695312 C 245.703125 234.878906 245.035156 234.046875 244.386719 233.195312 C 243.738281 232.347656 243.109375 231.480469 242.503906 230.601562 C 241.898438 229.71875 241.316406 228.824219 240.753906 227.914062 C 240.195312 227.003906 239.65625 226.082031 239.140625 225.148438 C 238.621094 224.210938 238.128906 223.265625 237.660156 222.304688 C 237.191406 221.34375 236.746094 220.371094 236.324219 219.390625 C 235.902344 218.410156 235.503906 217.417969 235.128906 216.417969 C 234.757812 215.414062 234.40625 214.40625 234.082031 213.386719 C 233.761719 212.367188 233.460938 211.34375 233.1875 210.308594 C 232.914062 209.277344 232.667969 208.234375 232.445312 207.191406 C 232.222656 206.144531 232.027344 205.09375 231.855469 204.039062 C 231.683594 202.984375 231.539062 201.925781 231.421875 200.863281 C 231.300781 199.800781 231.207031 198.738281 231.140625 197.671875 C 231.074219 196.605469 231.035156 195.535156 231.019531 194.46875 C 231.007812 193.398438 231.019531 192.332031 231.058594 191.261719 C 231.09375 190.195312 231.160156 189.128906 231.25 188.0625 C 231.339844 187 231.457031 185.9375 231.601562 184.878906 C 231.742188 183.816406 231.910156 182.761719 232.105469 181.710938 C 232.300781 180.660156 232.519531 179.617188 232.765625 178.574219 C 233.011719 177.535156 233.28125 176.503906 233.578125 175.476562 C 233.875 174.449219 234.199219 173.429688 234.542969 172.417969 C 234.890625 171.40625 235.261719 170.40625 235.65625 169.414062 C 236.054688 168.421875 236.472656 167.4375 236.917969 166.464844 C 237.359375 165.492188 237.828125 164.53125 238.320312 163.582031 C 238.8125 162.632812 239.324219 161.699219 239.863281 160.773438 C 240.398438 159.851562 240.957031 158.941406 241.539062 158.042969 C 242.121094 157.148438 242.726562 156.265625 243.351562 155.398438 C 243.976562 154.53125 244.621094 153.679688 245.289062 152.84375 C 245.953125 152.011719 246.640625 151.191406 247.347656 150.390625 C 248.054688 149.589844 248.78125 148.804688 249.527344 148.039062 C 250.273438 147.273438 251.035156 146.527344 251.816406 145.800781 C 252.601562 145.070312 253.398438 144.363281 254.214844 143.671875 C 255.035156 142.984375 255.867188 142.316406 256.714844 141.667969 C 257.566406 141.019531 258.429688 140.394531 259.3125 139.789062 C 260.191406 139.183594 261.085938 138.597656 261.996094 138.035156 C 262.90625 137.476562 263.828125 136.9375 264.761719 136.421875 C 265.699219 135.902344 266.644531 135.410156 267.605469 134.941406 C 268.566406 134.472656 269.535156 134.023438 270.519531 133.601562 C 271.5 133.179688 272.492188 132.785156 273.492188 132.410156 C 274.492188 132.035156 275.503906 131.6875 276.519531 131.363281 C 277.539062 131.039062 278.566406 130.742188 279.597656 130.46875 C 280.632812 130.195312 281.667969 129.945312 282.714844 129.722656 C 283.761719 129.5 284.808594 129.304688 285.863281 129.132812 C 286.917969 128.964844 287.976562 128.820312 289.039062 128.699219 C 290.101562 128.582031 291.164062 128.488281 292.230469 128.421875 C 293.296875 128.355469 294.367188 128.3125 295.433594 128.300781 C 296.503906 128.285156 297.570312 128.296875 298.636719 128.335938 C 299.707031 128.375 300.773438 128.4375 301.835938 128.527344 C 302.902344 128.621094 303.964844 128.738281 305.023438 128.878906 C 306.082031 129.023438 307.136719 129.191406 308.1875 129.386719 C 309.238281 129.578125 310.28125 129.800781 311.324219 130.046875 Z M 311.324219 130.046875 " fill-opacity="1" fill-rule="nonzero"/><path fill="#60b7ff" d="M 296.277344 128.175781 C 332.335938 128.175781 361.566406 157.414062 361.566406 193.480469 C 361.566406 229.546875 332.335938 258.785156 296.277344 258.785156 C 295.109375 258.785156 293.949219 258.753906 292.796875 258.691406 C 327.234375 256.882812 354.601562 228.378906 354.601562 193.480469 C 354.601562 158.582031 327.234375 130.078125 292.796875 128.265625 C 293.949219 128.207031 295.109375 128.175781 296.277344 128.175781 Z M 296.277344 128.175781 " fill-opacity="1" fill-rule="evenodd"/><path fill="#a79ba7" d="M 305.628906 154.285156 C 309.777344 155.273438 313.738281 156.917969 317.367188 159.152344 L 324.992188 155.765625 L 333.984375 164.753906 L 330.597656 172.382812 C 332.832031 176.015625 334.476562 179.976562 335.464844 184.125 L 343.246094 187.121094 L 343.246094 199.835938 L 335.460938 202.835938 C 334.476562 206.980469 332.832031 210.945312 330.597656 214.574219 L 333.984375 222.203125 L 324.996094 231.195312 L 317.371094 227.808594 C 313.738281 230.042969 309.777344 231.6875 305.628906 232.675781 L 302.632812 240.460938 L 289.921875 240.460938 L 286.925781 232.675781 C 282.777344 231.6875 278.820312 230.042969 275.1875 227.808594 L 267.5625 231.195312 L 258.570312 222.203125 L 261.957031 214.578125 C 259.722656 210.945312 258.078125 206.984375 257.089844 202.835938 L 249.308594 199.839844 L 249.308594 187.121094 L 257.09375 184.125 C 258.078125 179.976562 259.722656 176.015625 261.957031 172.382812 L 258.570312 164.757812 L 267.558594 155.765625 L 275.1875 159.152344 C 278.816406 156.917969 282.777344 155.273438 286.925781 154.285156 L 289.921875 146.5 L 302.632812 146.5 Z M 305.628906 154.285156 " fill-opacity="1" fill-rule="evenodd"/><path fill="#837683" d="M 305.628906 154.285156 C 309.777344 155.273438 313.738281 156.917969 317.367188 159.152344 L 315.132812 160.144531 C 311.503906 157.910156 305.84375 155.273438 301.695312 154.285156 L 298.699219 146.5 L 302.632812 146.5 Z M 322.269531 156.976562 L 324.992188 155.765625 L 333.984375 164.753906 L 330.597656 172.382812 C 332.832031 176.015625 334.476562 179.976562 335.464844 184.125 L 343.246094 187.121094 L 343.246094 199.835938 L 335.460938 202.835938 C 334.476562 206.980469 332.832031 210.945312 330.597656 214.574219 L 333.984375 222.203125 L 324.996094 231.195312 L 322.269531 229.984375 L 330.050781 222.203125 L 326.664062 214.574219 C 328.898438 210.945312 330.542969 206.980469 331.527344 202.835938 L 339.3125 199.835938 L 339.3125 187.121094 L 331.53125 184.125 C 330.542969 179.976562 328.898438 176.011719 326.664062 172.382812 L 330.050781 164.753906 Z M 317.367188 227.808594 C 313.738281 230.042969 309.777344 231.6875 305.628906 232.675781 L 302.632812 240.460938 L 298.699219 240.460938 L 301.695312 232.675781 C 305.84375 231.6875 311.507812 229.054688 315.136719 226.816406 Z M 275.1875 227.808594 L 267.5625 231.195312 L 266.351562 229.984375 L 273.484375 226.816406 C 274.046875 227.160156 274.613281 227.492188 275.1875 227.808594 Z M 266.351562 156.976562 L 267.5625 155.765625 L 275.1875 159.152344 C 274.613281 159.46875 274.046875 159.800781 273.484375 160.144531 Z M 266.351562 156.976562 " fill-opacity="1" fill-rule="evenodd"/><path fill="#eceff1" d="M 319.707031 187.796875 C 319.890625 188.566406 320.035156 189.339844 320.140625 190.125 C 320.246094 190.90625 320.3125 191.691406 320.34375 192.480469 C 320.371094 193.269531 320.359375 194.058594 320.3125 194.847656 C 320.261719 195.636719 320.175781 196.417969 320.050781 197.199219 C 319.925781 197.980469 319.761719 198.75 319.558594 199.515625 C 319.359375 200.277344 319.121094 201.03125 318.84375 201.769531 C 318.570312 202.511719 318.257812 203.234375 317.910156 203.945312 C 317.566406 204.65625 317.183594 205.347656 316.769531 206.019531 C 316.355469 206.691406 315.910156 207.339844 315.429688 207.96875 C 314.953125 208.597656 314.445312 209.199219 313.90625 209.78125 C 313.371094 210.359375 312.804688 210.910156 312.214844 211.429688 C 311.621094 211.953125 311.003906 212.445312 310.367188 212.910156 C 309.726562 213.371094 309.0625 213.800781 308.382812 214.199219 C 307.699219 214.597656 307 214.960938 306.28125 215.289062 C 305.5625 215.617188 304.832031 215.910156 304.085938 216.167969 C 303.335938 216.421875 302.582031 216.644531 301.8125 216.824219 C 301.042969 217.007812 300.269531 217.152344 299.484375 217.257812 C 298.703125 217.363281 297.917969 217.429688 297.128906 217.460938 C 296.339844 217.488281 295.550781 217.480469 294.761719 217.429688 C 293.976562 217.382812 293.191406 217.292969 292.410156 217.167969 C 291.632812 217.042969 290.859375 216.878906 290.097656 216.675781 C 289.332031 216.476562 288.582031 216.238281 287.84375 215.960938 C 287.101562 215.6875 286.378906 215.375 285.667969 215.027344 C 284.957031 214.683594 284.265625 214.300781 283.59375 213.886719 C 282.921875 213.472656 282.273438 213.027344 281.644531 212.546875 C 281.015625 212.070312 280.414062 211.5625 279.835938 211.023438 C 279.257812 210.484375 278.707031 209.921875 278.183594 209.328125 C 277.660156 208.738281 277.167969 208.121094 276.707031 207.480469 C 276.242188 206.839844 275.8125 206.179688 275.414062 205.496094 C 275.019531 204.8125 274.65625 204.113281 274.328125 203.394531 C 274 202.675781 273.707031 201.945312 273.449219 201.199219 C 273.191406 200.449219 272.972656 199.691406 272.792969 198.925781 C 272.609375 198.15625 272.464844 197.378906 272.359375 196.597656 C 272.253906 195.816406 272.183594 195.03125 272.15625 194.238281 C 272.128906 193.449219 272.136719 192.664062 272.1875 191.875 C 272.234375 191.085938 272.324219 190.300781 272.449219 189.523438 C 272.574219 188.742188 272.738281 187.96875 272.9375 187.207031 C 273.140625 186.441406 273.378906 185.691406 273.652344 184.949219 C 273.929688 184.210938 274.242188 183.484375 274.585938 182.777344 C 274.933594 182.066406 275.3125 181.375 275.730469 180.703125 C 276.144531 180.03125 276.589844 179.378906 277.066406 178.753906 C 277.546875 178.125 278.054688 177.519531 278.589844 176.941406 C 279.128906 176.363281 279.695312 175.8125 280.285156 175.289062 C 280.878906 174.765625 281.492188 174.273438 282.132812 173.8125 C 282.773438 173.347656 283.433594 172.917969 284.117188 172.523438 C 284.800781 172.125 285.5 171.761719 286.21875 171.433594 C 286.933594 171.105469 287.667969 170.8125 288.414062 170.554688 C 289.160156 170.296875 289.917969 170.078125 290.6875 169.894531 C 291.457031 169.714844 292.230469 169.570312 293.011719 169.464844 C 293.796875 169.359375 294.582031 169.289062 295.371094 169.261719 C 296.160156 169.234375 296.949219 169.242188 297.734375 169.292969 C 298.523438 169.339844 299.308594 169.425781 300.085938 169.554688 C 300.867188 169.679688 301.636719 169.84375 302.402344 170.042969 C 303.164062 170.246094 303.917969 170.484375 304.65625 170.757812 C 305.398438 171.035156 306.121094 171.347656 306.832031 171.691406 C 307.539062 172.039062 308.230469 172.421875 308.902344 172.835938 C 309.574219 173.25 310.226562 173.695312 310.855469 174.175781 C 311.480469 174.652344 312.085938 175.160156 312.664062 175.699219 C 313.242188 176.234375 313.792969 176.800781 314.316406 177.394531 C 314.839844 177.984375 315.332031 178.601562 315.792969 179.242188 C 316.253906 179.882812 316.683594 180.542969 317.082031 181.226562 C 317.480469 181.90625 317.84375 182.609375 318.171875 183.324219 C 318.5 184.042969 318.792969 184.777344 319.050781 185.523438 C 319.304688 186.269531 319.527344 187.027344 319.707031 187.796875 Z M 319.707031 187.796875 " fill-opacity="1" fill-rule="nonzero"/><path fill="#d1d1d6" d="M 296.277344 169.363281 C 282.960938 169.363281 272.167969 180.160156 272.167969 193.480469 C 272.167969 206.800781 282.960938 217.59375 296.277344 217.59375 C 296.9375 217.59375 297.589844 217.566406 298.234375 217.515625 C 285.835938 216.519531 276.085938 206.140625 276.085938 193.480469 C 276.085938 180.820312 285.835938 170.441406 298.234375 169.445312 C 297.589844 169.394531 296.9375 169.363281 296.277344 169.363281 Z M 296.277344 169.363281 " fill-opacity="1" fill-rule="evenodd"/><g clip-path="url(#32a357d74f)"><path fill="#b1b1b5" d="M 175.683594 348.765625 L 199.734375 348.765625 L 199.734375 361 C 199.734375 365.011719 196.453125 368.296875 192.441406 368.296875 L 182.976562 368.296875 C 178.964844 368.296875 175.679688 365.011719 175.679688 361 L 175.679688 348.765625 Z M 175.683594 348.765625 " fill-opacity="1" fill-rule="evenodd"/></g><path fill="#d1d1d6" d="M 168.203125 331.148438 L 207.210938 331.148438 L 207.210938 346.410156 C 207.210938 350.421875 203.929688 353.703125 199.921875 353.703125 L 175.496094 353.703125 C 171.484375 353.703125 168.203125 350.421875 168.203125 346.410156 Z M 168.203125 331.148438 " fill-opacity="1" fill-rule="evenodd"/><path fill="#b1b1b5" d="M 198.71875 339.113281 L 198.71875 346.410156 C 198.71875 347.234375 198.578125 348.027344 198.324219 348.765625 C 197.339844 351.632812 194.613281 353.703125 191.425781 353.703125 L 199.921875 353.703125 C 203.929688 353.703125 207.210938 350.421875 207.210938 346.410156 L 207.210938 339.109375 C 207.132812 339.113281 207.050781 339.113281 206.96875 339.113281 Z M 198.71875 339.113281 " fill-opacity="1" fill-rule="evenodd"/><path fill="#eceff1" d="M 160.664062 317.238281 L 214.261719 317.238281 L 214.261719 331.820312 C 214.261719 335.832031 210.980469 339.113281 206.96875 339.113281 L 167.957031 339.113281 C 163.949219 339.113281 160.664062 335.832031 160.664062 331.820312 Z M 160.664062 317.238281 " fill-opacity="1" fill-rule="evenodd"/><path fill="#d1d1d6" d="M 205.765625 324.523438 L 205.765625 331.820312 C 205.765625 335.832031 202.484375 339.113281 198.472656 339.113281 L 206.96875 339.113281 C 207.050781 339.113281 207.132812 339.113281 207.210938 339.109375 C 211.113281 338.980469 214.261719 335.75 214.261719 331.820312 L 214.261719 324.523438 Z M 205.765625 324.523438 " fill-opacity="1" fill-rule="evenodd"/><path fill="#ffe177" d="M 187.464844 219.433594 C 212.25 219.433594 232.34375 239.535156 232.34375 264.328125 C 232.34375 289.261719 216.421875 287.773438 214.261719 324.523438 L 160.664062 324.523438 C 158.503906 287.773438 142.582031 289.261719 142.582031 264.328125 C 142.582031 239.535156 162.675781 219.433594 187.464844 219.433594 Z M 187.464844 219.433594 " fill-opacity="1" fill-rule="evenodd"/><path fill="#ffd064" d="M 183.214844 219.632812 C 206.011719 221.773438 223.851562 240.96875 223.851562 264.328125 C 223.851562 287.488281 210.113281 287.851562 206.425781 317.238281 C 206.144531 319.488281 205.921875 321.910156 205.765625 324.523438 L 214.261719 324.523438 C 216.421875 287.773438 232.34375 289.261719 232.34375 264.328125 C 232.34375 239.535156 212.25 219.433594 187.464844 219.433594 C 186.03125 219.433594 184.613281 219.503906 183.214844 219.632812 Z M 183.214844 219.632812 " fill-opacity="1" fill-rule="evenodd"/><path fill="#ffc338" d="M 173.910156 324.523438 L 173.910156 280.898438 L 169.28125 280.898438 C 164.8125 280.898438 160.753906 279.070312 157.8125 276.132812 C 154.875 273.191406 153.050781 269.128906 153.050781 264.660156 C 153.050781 260.1875 154.875 256.128906 157.8125 253.1875 C 160.753906 250.246094 164.8125 248.421875 169.28125 248.421875 C 173.753906 248.421875 177.8125 250.246094 180.753906 253.1875 C 183.691406 256.128906 185.515625 260.1875 185.515625 264.660156 L 185.515625 269.285156 L 189.410156 269.285156 L 189.410156 264.660156 C 189.410156 260.1875 191.234375 256.128906 194.175781 253.1875 C 197.113281 250.246094 201.175781 248.421875 205.644531 248.421875 C 210.113281 248.421875 214.175781 250.246094 217.113281 253.1875 C 220.054688 256.128906 221.878906 260.1875 221.878906 264.660156 C 221.878906 269.128906 220.054688 273.191406 217.113281 276.132812 C 214.175781 279.070312 210.113281 280.898438 205.644531 280.898438 L 201.015625 280.898438 L 201.015625 324.523438 L 189.410156 324.523438 L 189.410156 280.898438 L 185.515625 280.898438 L 185.515625 324.523438 Z M 173.910156 269.285156 L 173.910156 264.660156 C 173.910156 263.394531 173.386719 262.238281 172.546875 261.394531 C 171.703125 260.554688 170.550781 260.03125 169.28125 260.03125 C 168.015625 260.03125 166.863281 260.554688 166.019531 261.394531 C 165.179688 262.238281 164.65625 263.394531 164.65625 264.660156 C 164.65625 265.925781 165.179688 267.082031 166.019531 267.921875 C 166.863281 268.765625 168.015625 269.285156 169.28125 269.285156 Z M 201.015625 269.285156 L 205.644531 269.285156 C 206.910156 269.285156 208.066406 268.765625 208.90625 267.921875 C 209.75 267.082031 210.269531 265.925781 210.269531 264.660156 C 210.269531 263.394531 209.75 262.238281 208.90625 261.394531 C 208.066406 260.554688 206.910156 260.03125 205.644531 260.03125 C 204.378906 260.03125 203.222656 260.554688 202.382812 261.394531 C 201.539062 262.238281 201.015625 263.394531 201.015625 264.660156 Z M 201.015625 269.285156 " fill-opacity="1" fill-rule="evenodd"/></svg>