<svg xmlns="http://www.w3.org/2000/svg" xmlns:xlink="http://www.w3.org/1999/xlink" width="500" zoomAndPan="magnify" viewBox="0 0 375 359.999987" height="480" preserveAspectRatio="xMidYMid meet" version="1.0"><defs><clipPath id="3065e42e01"><path d="M 0 13.296875 L 375 13.296875 L 375 347.046875 L 0 347.046875 Z M 0 13.296875 " clip-rule="nonzero"/></clipPath><clipPath id="46c58c5ca4"><path d="M 21 89 L 361 89 L 361 347.046875 L 21 347.046875 Z M 21 89 " clip-rule="nonzero"/></clipPath></defs><g clip-path="url(#3065e42e01)"><path fill="#f5f5f5" d="M 145.4375 37.460938 C 144.289062 36.3125 144.289062 34.449219 145.4375 33.300781 L 147.101562 31.632812 C 148.253906 30.480469 150.113281 30.480469 151.261719 31.632812 L 164.074219 44.453125 C 165.222656 45.605469 165.222656 47.46875 164.074219 48.617188 L 162.40625 50.285156 C 161.257812 51.4375 159.394531 51.4375 158.246094 50.285156 Z M 220.550781 49.4375 C 221.703125 50.589844 223.5625 50.589844 224.710938 49.4375 L 237.523438 36.613281 C 238.671875 35.464844 238.671875 33.601562 237.523438 32.453125 L 235.855469 30.785156 C 234.707031 29.632812 232.84375 29.632812 231.695312 30.785156 L 218.886719 43.605469 C 217.738281 44.757812 217.738281 46.621094 218.886719 47.769531 Z M 130.910156 82.023438 L 149.027344 82.023438 C 150.648438 82.023438 151.964844 80.703125 151.964844 79.078125 L 151.964844 76.71875 C 151.964844 75.09375 150.648438 73.773438 149.027344 73.773438 L 130.910156 73.773438 C 129.285156 73.773438 127.96875 75.09375 127.96875 76.71875 L 127.96875 79.078125 C 127.96875 80.703125 129.285156 82.023438 130.910156 82.023438 Z M 190.125 37.320312 L 192.484375 37.320312 C 194.105469 37.320312 195.425781 36 195.425781 34.375 L 195.425781 16.238281 C 195.425781 14.613281 194.105469 13.296875 192.484375 13.296875 L 190.125 13.296875 C 188.503906 13.296875 187.1875 14.613281 187.1875 16.238281 L 187.1875 34.375 C 187.1875 36 188.5 37.320312 190.125 37.320312 Z M 231.839844 75.519531 L 231.839844 77.878906 C 231.839844 79.503906 233.15625 80.820312 234.78125 80.820312 L 252.898438 80.820312 C 254.523438 80.820312 255.839844 79.503906 255.839844 77.878906 L 255.839844 75.519531 C 255.839844 73.894531 254.523438 72.574219 252.898438 72.574219 L 234.78125 72.574219 C 233.15625 72.574219 231.839844 73.894531 231.839844 75.519531 Z M 374.625 263.691406 C 374.625 269.796875 374.625 280.5 374.625 286.605469 C 374.625 289.152344 372.5625 291.222656 370.015625 291.222656 C 356.925781 291.222656 319.613281 291.222656 306.523438 291.222656 C 303.976562 291.222656 301.914062 289.152344 301.914062 286.605469 L 301.914062 275.351562 L 275.46875 275.351562 L 276.949219 327.300781 L 257.273438 326.472656 L 255.714844 275.351562 L 250.054688 275.351562 L 246.855469 326.378906 L 240.398438 326.410156 C 240.394531 326.429688 240.386719 326.453125 240.378906 326.472656 L 239.148438 326.472656 C 238.832031 329.046875 238.441406 332.796875 238.457031 335.589844 C 239.417969 338.550781 239.550781 341.9375 239.496094 344.257812 L 216.957031 344.257812 L 215.078125 341.320312 C 219.398438 339.21875 224.964844 335.835938 227.101562 333.171875 C 227.773438 331.484375 228.214844 329.46875 228.453125 326.472656 L 228.128906 326.472656 L 230.222656 277.253906 L 230.292969 275.351562 L 131.78125 275.351562 L 131.144531 333.664062 C 132.4375 334.375 133.707031 334.980469 134.792969 335.507812 C 138.367188 337.234375 137.746094 340.128906 137.746094 340.128906 L 131.074219 340.128906 L 131.003906 346.777344 L 128.164062 346.777344 L 128.085938 340.128906 L 111.480469 340.128906 C 110.121094 334.699219 111.910156 332.765625 111.328125 326.875 L 100.199219 326.875 L 97.195312 317.003906 L 97.082031 317.003906 C 96.878906 317.003906 96.710938 316.835938 96.710938 316.632812 C 96.710938 316.464844 96.824219 316.328125 96.976562 316.28125 L 92.289062 300.867188 L 92.246094 301.449219 L 100.09375 336.769531 C 100.222656 337.351562 100.0625 337.964844 99.667969 338.414062 C 99.269531 338.859375 98.679688 339.089844 98.082031 339.027344 C 96.542969 338.875 95.277344 337.746094 94.941406 336.234375 C 94.164062 332.730469 92.664062 325.980469 90.996094 318.472656 L 90.378906 326.878906 L 76.367188 326.878906 C 76.636719 327.351562 77.09375 328.0625 77.859375 329.160156 C 80.074219 332.324219 83.558594 334.109375 86.453125 335.507812 C 90.027344 337.234375 89.40625 340.128906 89.40625 340.128906 L 63.144531 340.128906 C 63.007812 339.585938 62.90625 339.078125 62.820312 338.585938 C 62.4375 338.910156 61.941406 339.082031 61.433594 339.027344 C 60.28125 338.914062 59.285156 338.253906 58.714844 337.296875 L 58.9375 316.507812 C 60.390625 323.035156 61.757812 329.199219 62.707031 333.464844 C 62.964844 331.464844 63.492188 329.496094 63.894531 326.875 L 63.8125 326.875 L 65.203125 316.992188 C 65.222656 316.996094 65.238281 317.003906 65.253906 317.003906 C 65.050781 317.003906 64.882812 316.835938 64.882812 316.632812 C 64.882812 316.425781 65.050781 316.257812 65.253906 316.257812 L 65.308594 316.257812 L 66.289062 309.296875 L 59.019531 309.296875 L 59.042969 306.996094 L 58.609375 346.777344 L 55.773438 346.777344 L 55.40625 315.460938 L 55.5 323.6875 C 54.617188 319.707031 53.636719 315.292969 52.660156 310.894531 C 50.359375 321.238281 48.035156 331.703125 46.996094 336.382812 C 46.660156 337.894531 45.390625 339.023438 43.851562 339.175781 C 43.257812 339.238281 42.667969 339.007812 42.269531 338.558594 C 41.871094 338.113281 41.714844 337.5 41.84375 336.914062 L 48.015625 309.136719 L 15.117188 309.136719 C 12.691406 320.054688 10.144531 331.503906 9.046875 336.457031 C 8.710938 337.972656 7.441406 339.097656 5.902344 339.253906 C 5.308594 339.316406 4.71875 339.085938 4.320312 338.636719 C 3.921875 338.1875 3.765625 337.578125 3.894531 336.992188 L 15.5 284.769531 L 15.710938 284.746094 L 11.1875 284.746094 L 9.636719 277.898438 C 9.070312 275.527344 4.65625 257.027344 1.277344 242.867188 C 0.328125 238.890625 1.25 234.695312 3.78125 231.484375 C 6.3125 228.273438 10.175781 226.398438 14.261719 226.398438 L 14.714844 226.398438 L 14.714844 226.667969 C 15.515625 226.519531 16.332031 226.421875 17.164062 226.421875 C 19.085938 226.421875 21.0625 226.421875 23.03125 226.421875 C 22.90625 224.75 22.835938 223.050781 22.832031 221.324219 C 22.824219 218.328125 23.925781 215.996094 25.667969 214.425781 C 25.667969 214.425781 25.664062 214.425781 25.664062 214.425781 C 23.121094 212.277344 21.605469 209.054688 21.691406 205.59375 C 21.8125 200.746094 23.738281 195.171875 31.175781 192.820312 C 31.175781 192.820312 31.488281 190.644531 32.511719 188.011719 C 33.078125 185.292969 34.613281 182.769531 37.042969 181.023438 C 37.78125 180.492188 38.566406 180.070312 39.375 179.738281 C 40.324219 179.300781 41.378906 178.996094 42.550781 178.878906 C 47.414062 178.382812 50.65625 179.871094 52.898438 182.890625 C 54.671875 185.273438 55.546875 188.898438 56.003906 191.90625 C 56.339844 194.09375 56.816406 196.253906 57.382812 198.390625 C 57.445312 198.640625 57.496094 198.882812 57.554688 199.128906 C 60.582031 200.941406 62.617188 204.242188 62.617188 208.03125 C 62.617188 211.527344 60.882812 214.617188 58.234375 216.496094 L 68.339844 225.050781 L 69.042969 219.476562 C 69.101562 219.023438 69.515625 218.652344 69.96875 218.652344 L 92.847656 218.625 L 109.996094 218.605469 C 110.449219 218.605469 110.769531 218.972656 110.714844 219.429688 L 109.554688 228.609375 C 109.546875 228.605469 109.539062 228.605469 109.53125 228.601562 C 110.304688 228.839844 111.015625 229.191406 111.398438 229.597656 C 111.765625 229.992188 111.34375 231.738281 110.9375 232.046875 C 110.976562 232.09375 110.996094 232.152344 110.96875 232.210938 C 110.964844 232.214844 110.957031 232.214844 110.953125 232.222656 C 111.199219 232.585938 110.890625 234.03125 110.371094 234.429688 C 110.433594 234.457031 110.496094 234.488281 110.558594 234.519531 C 110.628906 234.554688 110.65625 234.636719 110.628906 234.707031 C 110.859375 235.140625 110.457031 236.617188 109.875 236.835938 C 109.847656 236.847656 109.804688 236.851562 109.765625 236.855469 C 109.820312 236.898438 109.84375 236.96875 109.8125 237.035156 C 109.800781 237.058594 109.777344 237.0625 109.757812 237.074219 C 109.917969 237.660156 109.699219 238.667969 108.914062 239.015625 C 108.726562 239.097656 108.484375 239.117188 108.226562 239.109375 L 107.167969 247.480469 L 117.660156 247.480469 L 117.660156 154.3125 C 102.5625 154.3125 63.859375 154.3125 55.117188 154.3125 C 54.136719 154.3125 53.34375 153.515625 53.34375 152.535156 L 53.34375 116.59375 L 50.824219 116.59375 C 50.457031 116.59375 50.097656 116.449219 49.835938 116.183594 C 49.574219 115.921875 49.425781 115.5625 49.425781 115.195312 C 49.425781 112.75 49.425781 107.746094 49.425781 105.300781 C 49.425781 104.929688 49.574219 104.574219 49.835938 104.3125 C 50.097656 104.050781 50.457031 103.902344 50.824219 103.902344 C 53.109375 103.902344 57.601562 103.902344 59.886719 103.902344 C 60.253906 103.902344 60.609375 104.050781 60.871094 104.3125 C 61.136719 104.574219 61.28125 104.933594 61.28125 105.300781 C 61.28125 106.476562 61.28125 108.238281 61.28125 110.027344 L 121.945312 110.027344 C 122.921875 110.027344 123.71875 110.824219 123.71875 111.804688 L 123.71875 114.894531 L 178.34375 114.894531 L 178.34375 113.566406 C 178.34375 112.808594 178.957031 112.195312 179.714844 112.195312 L 180.949219 112.195312 C 180.175781 105.023438 176.914062 98.324219 171.769531 93.164062 C 166.367188 87.742188 163.027344 80.261719 163.027344 72 C 163.027344 65.402344 165.132812 59.316406 168.714844 54.375 C 174.105469 46.9375 182.835938 42.101562 192.753906 42.03125 C 209.386719 41.917969 222.90625 55.378906 222.90625 72 C 222.90625 80.230469 219.59375 87.683594 214.230469 93.097656 C 209.078125 98.296875 205.773438 105 204.988281 112.195312 L 205.753906 112.195312 C 206.511719 112.195312 207.125 112.808594 207.125 113.566406 L 207.125 114.894531 L 293.058594 114.894531 L 293.058594 90.71875 L 352.253906 90.71875 C 352.253906 89.363281 352.253906 88.085938 352.253906 87.179688 C 352.253906 86.820312 352.394531 86.476562 352.648438 86.222656 C 352.902344 85.972656 353.246094 85.828125 353.605469 85.828125 C 355.808594 85.828125 360.148438 85.828125 362.351562 85.828125 C 362.707031 85.828125 363.050781 85.972656 363.304688 86.222656 C 363.558594 86.476562 363.699219 86.820312 363.699219 87.179688 C 363.699219 89.539062 363.699219 94.371094 363.699219 96.726562 C 363.699219 97.085938 363.558594 97.429688 363.304688 97.683594 C 363.050781 97.9375 362.707031 98.082031 362.351562 98.082031 L 360.265625 98.082031 L 360.265625 138.167969 L 349.800781 138.167969 L 349.800781 259.078125 C 358.097656 259.078125 365.5 259.078125 370.015625 259.078125 C 372.5625 259.078125 374.625 261.140625 374.625 263.691406 Z M 352.3125 97.09375 Z M 353.117188 97.984375 Z M 353.332031 98.542969 C 353.328125 98.527344 353.320312 98.507812 353.316406 98.492188 C 353.320312 98.507812 353.328125 98.527344 353.332031 98.542969 Z M 353.605469 98.082031 C 353.519531 98.082031 353.4375 98.070312 353.355469 98.054688 C 353.4375 98.070312 353.519531 98.082031 353.605469 98.082031 Z M 351.980469 96.914062 C 352.09375 96.964844 352.203125 97.027344 352.308594 97.09375 C 352.203125 97.023438 352.09375 96.964844 351.980469 96.914062 Z M 350.992188 96.699219 C 351.136719 96.699219 351.28125 96.714844 351.421875 96.742188 C 351.28125 96.714844 351.140625 96.699219 350.992188 96.699219 Z M 351.5625 96.773438 C 351.65625 96.796875 351.742188 96.824219 351.832031 96.859375 C 351.742188 96.824219 351.65625 96.796875 351.5625 96.773438 Z M 206.863281 122.523438 C 206.863281 122.519531 206.859375 122.515625 206.855469 122.511719 C 206.859375 122.515625 206.859375 122.519531 206.863281 122.523438 Z M 207.0625 122.933594 C 207.054688 122.910156 207.046875 122.886719 207.039062 122.863281 C 207.046875 122.886719 207.054688 122.910156 207.0625 122.933594 Z M 206.863281 117.660156 C 206.863281 117.664062 206.859375 117.667969 206.855469 117.671875 C 206.859375 117.667969 206.859375 117.664062 206.863281 117.660156 Z M 207.0625 117.253906 C 207.054688 117.277344 207.046875 117.300781 207.039062 117.324219 C 207.046875 117.300781 207.054688 117.277344 207.0625 117.253906 Z M 205.988281 121.976562 C 205.914062 121.960938 205.835938 121.949219 205.753906 121.949219 C 205.835938 121.953125 205.910156 121.960938 205.988281 121.976562 Z M 205.753906 118.234375 C 205.835938 118.234375 205.914062 118.226562 205.988281 118.210938 C 205.910156 118.222656 205.835938 118.234375 205.753906 118.234375 Z M 54.695312 255.058594 C 49.199219 255.101562 47.425781 255.160156 46.863281 255.199219 C 47.429688 255.160156 49.199219 255.101562 54.695312 255.058594 L 54.75 259.710938 L 54.921875 274.339844 Z M 62.894531 247.128906 L 65.78125 247.125 L 66.582031 240.789062 L 66.347656 240.820312 L 65.550781 247.125 L 62.894531 247.128906 C 62.691406 246.90625 62.523438 246.660156 62.371094 246.402344 C 62.523438 246.660156 62.691406 246.90625 62.894531 247.128906 Z M 46.523438 254.511719 C 46.519531 254.511719 46.519531 254.511719 46.515625 254.511719 C 46.519531 254.511719 46.519531 254.511719 46.523438 254.511719 Z M 46.304688 254.574219 C 46.304688 254.574219 46.300781 254.574219 46.300781 254.574219 C 46.300781 254.574219 46.300781 254.574219 46.304688 254.574219 Z M 46.363281 254.550781 C 46.359375 254.550781 46.359375 254.550781 46.359375 254.550781 C 46.359375 254.550781 46.359375 254.550781 46.363281 254.550781 Z M 46.429688 254.53125 C 46.429688 254.53125 46.433594 254.53125 46.433594 254.53125 C 46.433594 254.53125 46.429688 254.53125 46.429688 254.53125 Z M 46.628906 254.492188 C 46.625 254.492188 46.621094 254.492188 46.613281 254.492188 C 46.621094 254.492188 46.625 254.492188 46.628906 254.492188 Z M 54.6875 254.3125 L 54.667969 252.546875 L 53.449219 252.546875 C 53.894531 252.871094 54.304688 253.222656 54.679688 253.601562 Z M 51.886719 254.335938 C 51.886719 254.335938 51.882812 254.335938 51.878906 254.335938 C 51.882812 254.335938 51.886719 254.335938 51.886719 254.335938 Z M 50.207031 254.351562 C 50.226562 254.351562 50.246094 254.351562 50.265625 254.351562 C 50.246094 254.351562 50.226562 254.351562 50.207031 254.351562 Z M 49.691406 254.359375 C 49.738281 254.359375 49.789062 254.359375 49.835938 254.355469 C 49.789062 254.359375 49.738281 254.359375 49.691406 254.359375 Z M 49.285156 254.367188 C 49.320312 254.367188 49.351562 254.367188 49.386719 254.363281 C 49.351562 254.367188 49.320312 254.367188 49.285156 254.367188 Z M 48.984375 254.371094 C 48.953125 254.371094 48.925781 254.371094 48.898438 254.375 C 48.925781 254.371094 48.953125 254.371094 48.984375 254.371094 Z M 48.53125 254.382812 C 48.5625 254.382812 48.589844 254.378906 48.621094 254.378906 C 48.589844 254.378906 48.5625 254.382812 48.53125 254.382812 Z M 48.210938 254.390625 C 48.238281 254.390625 48.265625 254.386719 48.292969 254.386719 C 48.265625 254.386719 48.238281 254.390625 48.210938 254.390625 Z M 47.925781 254.398438 C 47.945312 254.398438 47.964844 254.398438 47.984375 254.398438 C 47.964844 254.398438 47.945312 254.398438 47.925781 254.398438 Z M 47.664062 254.410156 C 47.679688 254.410156 47.695312 254.410156 47.710938 254.40625 C 47.695312 254.410156 47.679688 254.410156 47.664062 254.410156 Z M 47.421875 254.421875 C 47.441406 254.417969 47.457031 254.417969 47.472656 254.417969 C 47.457031 254.417969 47.441406 254.417969 47.421875 254.421875 Z M 47.21875 254.433594 C 47.230469 254.433594 47.242188 254.429688 47.257812 254.429688 C 47.242188 254.429688 47.230469 254.433594 47.21875 254.433594 Z M 47.035156 254.445312 C 47.046875 254.445312 47.054688 254.445312 47.066406 254.441406 C 47.054688 254.445312 47.046875 254.445312 47.035156 254.445312 Z M 46.875 254.460938 C 46.882812 254.460938 46.890625 254.457031 46.898438 254.457031 C 46.890625 254.457031 46.882812 254.460938 46.875 254.460938 Z M 46.734375 254.476562 C 46.742188 254.476562 46.746094 254.472656 46.753906 254.472656 C 46.746094 254.472656 46.742188 254.476562 46.734375 254.476562 Z M 45.785156 267.722656 C 45.789062 267.726562 45.796875 267.730469 45.800781 267.730469 C 45.792969 267.730469 45.789062 267.726562 45.785156 267.722656 Z M 47.480469 268.4375 C 47.476562 268.4375 47.476562 268.4375 47.476562 268.4375 C 47.441406 268.421875 47.40625 268.40625 47.371094 268.386719 C 47.410156 268.40625 47.445312 268.421875 47.480469 268.4375 Z M 50.5 270.1875 C 50.484375 270.175781 50.46875 270.164062 50.457031 270.15625 C 50.457031 270.15625 50.453125 270.15625 50.453125 270.15625 C 50.46875 270.164062 50.484375 270.175781 50.5 270.1875 Z M 51.890625 271.246094 C 51.890625 271.246094 51.890625 271.246094 51.890625 271.242188 C 51.890625 271.242188 51.886719 271.242188 51.886719 271.242188 C 51.890625 271.242188 51.890625 271.246094 51.890625 271.246094 Z M 53.496094 272.722656 C 53.492188 272.71875 53.484375 272.714844 53.480469 272.707031 C 53.484375 272.714844 53.492188 272.71875 53.496094 272.722656 Z M 46.8125 255.199219 C 46.792969 255.203125 46.773438 255.203125 46.761719 255.203125 C 46.773438 255.203125 46.792969 255.203125 46.8125 255.199219 Z M 105.164062 232.824219 C 105.167969 232.800781 105.1875 232.789062 105.199219 232.769531 C 105.1875 232.789062 105.167969 232.800781 105.164062 232.824219 Z M 105.066406 237.695312 C 105.164062 237.785156 105.265625 237.875 105.375 237.960938 C 105.265625 237.875 105.164062 237.785156 105.066406 237.695312 Z M 104.910156 237.546875 C 104.765625 237.398438 104.636719 237.246094 104.527344 237.089844 C 104.636719 237.246094 104.765625 237.398438 104.910156 237.546875 Z M 106.363281 238.582031 C 106.300781 238.550781 106.238281 238.523438 106.175781 238.488281 C 106.238281 238.519531 106.300781 238.550781 106.363281 238.582031 Z M 105.882812 238.3125 C 105.785156 238.253906 105.691406 238.191406 105.597656 238.128906 C 105.691406 238.191406 105.785156 238.253906 105.882812 238.3125 Z M 108.796875 228.421875 C 108.710938 228.40625 108.625 228.390625 108.539062 228.378906 C 108.625 228.390625 108.710938 228.40625 108.796875 228.421875 Z M 107.738281 228.304688 C 107.875 228.308594 108.015625 228.316406 108.160156 228.328125 C 108.015625 228.316406 107.875 228.308594 107.738281 228.304688 Z M 106.023438 229.347656 C 106.050781 229.050781 106.195312 228.753906 106.550781 228.542969 C 106.667969 228.472656 106.816406 228.421875 106.976562 228.382812 C 106.816406 228.421875 106.667969 228.46875 106.550781 228.542969 C 106.195312 228.753906 106.050781 229.050781 106.023438 229.347656 Z M 107.070312 228.359375 C 107.222656 228.328125 107.386719 228.3125 107.5625 228.304688 C 107.386719 228.3125 107.222656 228.328125 107.070312 228.359375 Z M 104.4375 231.503906 C 104.453125 231.335938 104.507812 231.183594 104.585938 231.042969 C 104.828125 230.601562 105.292969 230.351562 105.777344 230.351562 C 105.796875 230.273438 105.871094 230.226562 105.953125 230.242188 C 105.957031 230.242188 106.082031 230.269531 106.296875 230.320312 C 106.082031 230.269531 105.957031 230.242188 105.953125 230.242188 C 105.871094 230.226562 105.796875 230.277344 105.777344 230.351562 C 105.292969 230.351562 104.828125 230.601562 104.585938 231.046875 C 104.507812 231.183594 104.453125 231.335938 104.4375 231.503906 Z M 104.359375 234.15625 C 104.300781 233.324219 104.835938 233.027344 105.179688 232.917969 C 104.835938 233.027344 104.300781 233.324219 104.359375 234.15625 Z M 104.242188 236.40625 C 104.160156 235.808594 104.613281 235.445312 104.921875 235.269531 C 104.933594 235.246094 104.945312 235.226562 104.964844 235.214844 C 104.945312 235.226562 104.933594 235.246094 104.921875 235.269531 C 104.613281 235.445312 104.160156 235.808594 104.242188 236.40625 Z M 66.058594 239.066406 L 55.980469 231.695312 L 55.605469 237.21875 C 55.589844 237.414062 55.429688 237.566406 55.234375 237.566406 C 55.226562 237.566406 55.21875 237.566406 55.210938 237.566406 C 55.1875 237.5625 55.167969 237.554688 55.148438 237.546875 C 55.09375 237.824219 55.046875 238.097656 54.988281 238.371094 L 66.4375 240.117188 L 66.527344 239.410156 C 66.511719 239.398438 66.5 239.394531 66.484375 239.382812 Z M 27.21875 213.320312 C 27.230469 213.3125 27.242188 213.308594 27.253906 213.304688 C 27.242188 213.308594 27.230469 213.3125 27.21875 213.320312 Z M 28 212.941406 C 28.0625 212.914062 28.125 212.886719 28.1875 212.863281 C 28.125 212.886719 28.0625 212.914062 28 212.941406 Z M 13.574219 226.9375 C 13.550781 226.941406 13.53125 226.949219 13.507812 226.957031 C 13.53125 226.949219 13.550781 226.945312 13.574219 226.9375 Z M 10.492188 228.234375 C 10.410156 228.28125 10.324219 228.324219 10.242188 228.375 C 10.324219 228.324219 10.410156 228.28125 10.492188 228.234375 Z M 9.082031 229.171875 C 9.253906 229.035156 9.4375 228.910156 9.617188 228.789062 C 9.433594 228.910156 9.257812 229.039062 9.082031 229.171875 Z M 7.957031 230.132812 C 8.164062 229.933594 8.371094 229.746094 8.589844 229.5625 C 8.371094 229.746094 8.164062 229.933594 7.957031 230.132812 Z M 6.6875 231.507812 C 6.972656 231.144531 7.28125 230.804688 7.597656 230.476562 C 7.28125 230.804688 6.972656 231.144531 6.6875 231.507812 Z M 6.476562 252.511719 C 6.578125 252.9375 6.679688 253.363281 6.78125 253.785156 C 6.679688 253.363281 6.578125 252.9375 6.476562 252.511719 Z M 4.179688 242.890625 C 4.609375 244.695312 5.058594 246.570312 5.511719 248.472656 C 5.058594 246.570312 4.609375 244.695312 4.179688 242.890625 Z M 5.617188 248.914062 C 5.816406 249.746094 6.015625 250.582031 6.214844 251.417969 C 6.015625 250.582031 5.816406 249.746094 5.617188 248.914062 Z M 55.222656 299.777344 L 55.214844 299.386719 C 54.902344 300.808594 54.570312 302.285156 54.238281 303.796875 C 54.554688 302.355469 54.871094 300.933594 55.175781 299.570312 C 55.191406 299.640625 55.207031 299.710938 55.222656 299.777344 Z M 53.804688 305.742188 C 53.804688 305.742188 53.804688 305.742188 53.804688 305.746094 C 53.804688 305.742188 53.804688 305.742188 53.804688 305.742188 Z M 66.851562 305.308594 L 70.136719 281.988281 C 70.152344 281.992188 70.167969 282.007812 70.183594 282.007812 C 70.097656 282.007812 70.011719 281.976562 69.941406 281.917969 C 69.855469 281.84375 69.816406 281.742188 69.816406 281.636719 L 59.316406 281.695312 L 59.332031 280.355469 L 59.597656 256.171875 L 59.597656 256.003906 L 59.0625 305.308594 Z M 69.902344 281.390625 C 69.875 281.429688 69.851562 281.46875 69.835938 281.511719 C 69.851562 281.46875 69.875 281.429688 69.902344 281.390625 Z M 121.589844 316.957031 C 121.597656 316.953125 121.601562 316.949219 121.609375 316.945312 C 121.601562 316.949219 121.597656 316.953125 121.589844 316.957031 Z M 127.988281 331.667969 L 127.058594 252.546875 L 127.328125 275.351562 L 117.65625 275.351562 L 117.65625 252.546875 L 59.636719 252.546875 L 59.609375 254.730469 L 84.660156 256.378906 C 84.894531 256.394531 85.125 256.425781 85.355469 256.453125 L 99.691406 257.410156 C 105.773438 257.808594 109.40625 262.167969 110.75 268.121094 L 121.613281 316.324219 C 121.71875 316.390625 121.789062 316.5 121.789062 316.632812 C 121.789062 316.703125 121.765625 316.769531 121.726562 316.828125 L 123.996094 326.878906 L 123.765625 326.878906 C 124.074219 327.507812 124.5625 328.363281 125.222656 329.160156 C 126.003906 330.09375 126.960938 330.917969 127.988281 331.667969 Z M 339.84375 275.351562 L 345.582031 281.625 Z M 278.605469 345.789062 C 278.710938 346.449219 278.191406 347.042969 277.527344 347.042969 L 258.4375 347.042969 C 257.835938 347.042969 257.347656 346.550781 257.351562 345.945312 C 257.359375 343.816406 257.394531 341.992188 257.441406 340.371094 C 257.445312 340.304688 257.445312 340.238281 257.449219 340.171875 C 257.453125 339.945312 257.460938 339.71875 257.46875 339.496094 C 257.472656 339.390625 257.476562 339.28125 257.480469 339.175781 C 257.488281 338.992188 257.492188 338.804688 257.5 338.625 C 257.507812 338.457031 257.511719 338.292969 257.519531 338.125 C 257.523438 338.015625 257.527344 337.902344 257.53125 337.792969 C 257.546875 337.503906 257.558594 337.214844 257.570312 336.9375 C 257.738281 333.214844 257.945312 330.539062 257.945312 327.046875 C 257.945312 326.855469 257.953125 326.683594 257.957031 326.5 L 267.96875 326.921875 C 267.925781 328.894531 268.085938 330.859375 268.800781 332.808594 C 268.851562 332.949219 268.898438 333.089844 268.957031 333.226562 C 268.957031 333.234375 268.960938 333.238281 268.964844 333.242188 C 269.101562 333.578125 269.261719 333.902344 269.4375 334.214844 C 269.496094 334.324219 269.570312 334.429688 269.636719 334.539062 C 269.757812 334.738281 269.878906 334.9375 270.011719 335.125 C 270.097656 335.25 270.195312 335.367188 270.285156 335.488281 C 270.410156 335.652344 270.535156 335.816406 270.667969 335.976562 C 270.773438 336.101562 270.882812 336.222656 270.992188 336.34375 C 271.121094 336.488281 271.253906 336.632812 271.390625 336.777344 C 271.507812 336.902344 271.628906 337.023438 271.75 337.144531 C 271.882812 337.273438 272.019531 337.40625 272.15625 337.539062 C 272.289062 337.664062 272.425781 337.792969 272.5625 337.917969 C 272.6875 338.035156 272.816406 338.152344 272.945312 338.269531 C 273.5 338.765625 274.0625 339.257812 274.605469 339.75 C 274.671875 339.808594 274.738281 339.867188 274.804688 339.925781 C 274.804688 339.925781 274.800781 339.925781 274.800781 339.925781 C 276.613281 341.574219 278.199219 343.316406 278.605469 345.789062 Z M 258.578125 337.113281 C 258.519531 337.113281 258.460938 337.113281 258.402344 337.109375 C 258.460938 337.113281 258.519531 337.113281 258.578125 337.113281 Z M 260.847656 335.890625 C 261.027344 335.699219 261.207031 335.515625 261.390625 335.335938 C 261.207031 335.515625 261.027344 335.699219 260.847656 335.890625 C 260.703125 336.042969 260.5625 336.175781 260.425781 336.296875 C 260.5625 336.175781 260.703125 336.042969 260.847656 335.890625 Z M 258.953125 337.066406 C 258.882812 337.082031 258.816406 337.09375 258.75 337.101562 C 258.816406 337.089844 258.882812 337.078125 258.953125 337.066406 Z M 259.46875 336.910156 C 259.347656 336.960938 259.226562 337 259.109375 337.03125 C 259.226562 337.003906 259.347656 336.960938 259.46875 336.910156 Z M 259.867188 336.703125 C 259.765625 336.765625 259.664062 336.816406 259.566406 336.863281 C 259.664062 336.816406 259.765625 336.765625 259.867188 336.703125 Z M 260.292969 336.398438 C 260.199219 336.476562 260.101562 336.550781 260.007812 336.613281 C 260.101562 336.550781 260.199219 336.476562 260.292969 336.398438 Z M 268.292969 332.664062 C 267.253906 332.421875 266.214844 332.5 265.183594 332.84375 C 265.375 332.777344 265.566406 332.722656 265.761719 332.675781 C 266.097656 332.597656 266.4375 332.546875 266.777344 332.53125 C 267.28125 332.503906 267.789062 332.546875 268.292969 332.664062 Z M 261.945312 334.820312 C 261.816406 334.9375 261.6875 335.054688 261.5625 335.175781 C 261.6875 335.054688 261.816406 334.9375 261.945312 334.820312 Z M 262.53125 334.335938 C 262.398438 334.4375 262.269531 334.542969 262.140625 334.652344 C 262.269531 334.542969 262.398438 334.4375 262.53125 334.335938 Z M 263.832031 333.453125 C 263.453125 333.667969 263.078125 333.917969 262.703125 334.199219 C 263.078125 333.917969 263.453125 333.667969 263.832031 333.453125 Z M 264.003906 333.359375 C 264.140625 333.289062 264.273438 333.21875 264.410156 333.15625 C 264.273438 333.21875 264.140625 333.289062 264.003906 333.359375 Z M 265.011719 332.90625 C 264.875 332.957031 264.738281 333.007812 264.601562 333.070312 C 264.738281 333.007812 264.875 332.957031 265.011719 332.90625 Z M 215.078125 341.320312 C 214.421875 341.640625 213.792969 341.929688 213.207031 342.183594 C 210.644531 343.296875 209.996094 344.578125 209.832031 345.8125 C 209.746094 346.464844 210.257812 347.042969 210.914062 347.042969 L 238.328125 347.042969 C 238.898438 347.042969 239.371094 346.605469 239.410156 346.035156 C 239.445312 345.574219 239.480469 344.960938 239.496094 344.257812 L 216.957031 344.257812 Z M 215.078125 341.320312 " fill-opacity="1" fill-rule="nonzero"/></g><path fill="#e0e0e0" d="M 279.253906 245.378906 L 248.855469 245.378906 L 248.855469 196.441406 L 279.253906 196.441406 Z M 173.390625 155.929688 L 142.992188 155.929688 L 142.992188 244.917969 L 173.390625 244.917969 Z M 222.90625 184.71875 L 192.507812 184.71875 L 192.507812 244.917969 L 222.90625 244.917969 Z M 328.769531 160.15625 L 298.367188 160.15625 L 298.367188 245.378906 L 328.769531 245.378906 Z M 207.125 126.621094 L 207.125 123.320312 C 207.125 122.566406 206.511719 121.953125 205.753906 121.953125 L 179.714844 121.953125 C 178.957031 121.953125 178.34375 122.566406 178.34375 123.320312 L 178.34375 126.621094 C 178.34375 127.378906 178.957031 127.992188 179.714844 127.992188 L 205.753906 127.992188 C 206.511719 127.992188 207.125 127.378906 207.125 126.621094 Z M 207.125 116.863281 L 207.125 113.5625 C 207.125 112.808594 206.511719 112.195312 205.753906 112.195312 L 179.714844 112.195312 C 178.957031 112.195312 178.34375 112.808594 178.34375 113.5625 L 178.34375 116.863281 C 178.34375 117.621094 178.957031 118.234375 179.714844 118.234375 L 205.753906 118.234375 C 206.511719 118.234375 207.125 117.621094 207.125 116.863281 Z M 121.945312 110.027344 L 61.28125 110.027344 C 61.28125 111.960938 61.28125 113.921875 61.28125 115.191406 C 61.28125 115.5625 61.136719 115.917969 60.875 116.183594 C 60.609375 116.445312 60.253906 116.59375 59.886719 116.59375 L 53.34375 116.59375 L 53.34375 152.535156 C 53.34375 153.515625 54.136719 154.3125 55.121094 154.3125 C 64.894531 154.3125 112.164062 154.3125 121.945312 154.3125 C 122.925781 154.3125 123.71875 153.515625 123.71875 152.535156 L 123.71875 111.804688 C 123.71875 110.824219 122.921875 110.027344 121.945312 110.027344 Z M 84.429688 140.769531 C 83.976562 141.226562 83.359375 141.480469 82.71875 141.480469 C 79.050781 141.480469 72.121094 141.480469 68.457031 141.480469 C 67.816406 141.480469 67.199219 141.226562 66.746094 140.769531 C 66.296875 140.320312 66.042969 139.707031 66.042969 139.066406 C 66.042969 138.425781 66.296875 137.808594 66.746094 137.355469 C 67.199219 136.898438 67.816406 136.648438 68.457031 136.648438 C 72.121094 136.648438 79.050781 136.648438 82.71875 136.648438 C 83.359375 136.648438 83.976562 136.898438 84.429688 137.355469 C 84.878906 137.808594 85.132812 138.425781 85.132812 139.066406 C 85.132812 139.707031 84.878906 140.320312 84.429688 140.769531 Z M 84.429688 133.644531 C 83.976562 134.101562 83.359375 134.355469 82.71875 134.355469 C 79.050781 134.355469 72.121094 134.355469 68.457031 134.355469 C 67.816406 134.355469 67.199219 134.101562 66.746094 133.644531 C 66.296875 133.195312 66.042969 132.582031 66.042969 131.941406 C 66.042969 131.300781 66.296875 130.683594 66.746094 130.230469 C 67.199219 129.773438 67.816406 129.519531 68.457031 129.519531 L 82.71875 129.519531 C 83.359375 129.519531 83.976562 129.773438 84.429688 130.230469 C 84.878906 130.683594 85.132812 131.300781 85.132812 131.941406 C 85.132812 132.582031 84.878906 133.195312 84.429688 133.644531 Z M 84.429688 126.519531 C 83.976562 126.976562 83.359375 127.230469 82.71875 127.230469 C 79.050781 127.230469 72.121094 127.230469 68.457031 127.230469 C 67.816406 127.230469 67.199219 126.976562 66.746094 126.519531 C 66.296875 126.070312 66.042969 125.457031 66.042969 124.816406 C 66.042969 124.175781 66.296875 123.558594 66.746094 123.109375 C 67.199219 122.652344 67.816406 122.398438 68.457031 122.398438 L 82.71875 122.398438 C 83.359375 122.398438 83.976562 122.652344 84.429688 123.109375 C 84.878906 123.558594 85.132812 124.175781 85.132812 124.816406 C 85.132812 125.457031 84.878906 126.066406 84.429688 126.519531 Z M 355.5 94.609375 C 355.613281 94.609375 355.722656 94.566406 355.804688 94.492188 L 357.976562 92.574219 L 360.144531 94.492188 C 360.179688 94.523438 360.222656 94.542969 360.265625 94.5625 L 360.265625 93.351562 L 358.679688 91.953125 L 360.078125 90.71875 L 358.667969 90.71875 L 357.976562 91.332031 L 357.28125 90.71875 L 355.875 90.71875 L 357.273438 91.953125 L 355.1875 93.792969 C 355.09375 93.875 355.039062 93.988281 355.03125 94.113281 C 355.023438 94.238281 355.066406 94.359375 355.148438 94.453125 C 355.238281 94.550781 355.367188 94.609375 355.5 94.609375 Z M 353.605469 98.082031 C 353.4375 98.082031 353.269531 98.046875 353.117188 97.984375 C 353.296875 98.324219 353.410156 98.707031 353.410156 99.121094 C 353.410156 100.457031 352.328125 101.539062 350.992188 101.539062 L 301.113281 101.539062 C 299.777344 101.539062 298.695312 100.457031 298.695312 99.121094 C 298.695312 97.785156 299.777344 96.699219 301.113281 96.699219 C 310.160156 96.699219 341.945312 96.699219 350.992188 96.699219 C 351.480469 96.699219 351.929688 96.847656 352.3125 97.09375 C 352.277344 96.976562 352.253906 96.855469 352.253906 96.726562 C 352.253906 95.277344 352.253906 92.890625 352.253906 90.71875 L 293.058594 90.71875 L 293.058594 138.167969 L 360.265625 138.167969 L 360.265625 98.082031 Z M 333.753906 127.414062 L 301.511719 127.175781 C 301.285156 127.171875 301.101562 126.988281 301.105469 126.757812 C 301.105469 126.53125 301.292969 126.347656 301.519531 126.347656 L 333.761719 126.585938 C 333.988281 126.585938 334.171875 126.773438 334.167969 127.003906 C 334.167969 127.230469 333.980469 127.414062 333.753906 127.414062 Z M 333.757812 121.761719 L 301.515625 121.761719 C 301.289062 121.761719 301.101562 121.574219 301.101562 121.347656 C 301.101562 121.121094 301.289062 120.933594 301.515625 120.933594 L 333.757812 120.933594 C 333.984375 120.933594 334.167969 121.121094 334.167969 121.347656 C 334.167969 121.574219 333.984375 121.761719 333.757812 121.761719 Z M 333.757812 116.535156 L 301.515625 116.535156 C 301.289062 116.535156 301.101562 116.351562 301.101562 116.121094 C 301.101562 115.894531 301.289062 115.707031 301.515625 115.707031 L 333.757812 115.707031 C 333.984375 115.707031 334.167969 115.894531 334.167969 116.121094 C 334.167969 116.351562 333.984375 116.535156 333.757812 116.535156 Z M 352.738281 131.039062 L 337.410156 131.039062 L 337.410156 113.449219 L 352.738281 113.449219 Z M 351.296875 109.242188 L 301.421875 109.242188 C 300.085938 109.242188 299.003906 108.160156 299.003906 106.824219 C 299.003906 105.488281 300.085938 104.402344 301.421875 104.402344 C 310.46875 104.402344 342.25 104.402344 351.296875 104.402344 C 352.632812 104.402344 353.714844 105.488281 353.714844 106.824219 C 353.714844 108.160156 352.632812 109.242188 351.296875 109.242188 Z M 40.527344 247.480469 L 40.527344 252.546875 L 54.667969 252.546875 L 54.921875 274.339844 C 51.089844 269.5 45.167969 266.441406 38.601562 266.457031 C 27.804688 266.480469 15.261719 266.511719 9.820312 266.523438 C 8.15625 259.550781 6.015625 250.582031 4.179688 242.890625 C 3.230469 238.914062 4.152344 234.71875 6.683594 231.507812 C 8.703125 228.949219 11.566406 227.257812 14.714844 226.671875 L 14.714844 226.402344 L 14.261719 226.402344 C 10.175781 226.402344 6.3125 228.273438 3.78125 231.484375 C 1.25 234.695312 0.328125 238.890625 1.277344 242.867188 C 4.65625 257.027344 9.070312 275.527344 9.636719 277.898438 L 11.1875 284.746094 L 15.710938 284.746094 L 15.5 284.769531 L 3.894531 336.992188 C 3.765625 337.578125 3.921875 338.191406 4.320312 338.640625 C 4.71875 339.085938 5.308594 339.316406 5.90625 339.253906 C 7.445312 339.101562 8.710938 337.972656 9.046875 336.460938 C 10.148438 331.503906 12.691406 320.054688 15.117188 309.136719 L 48.019531 309.136719 L 41.847656 336.917969 C 41.714844 337.5 41.875 338.113281 42.273438 338.5625 C 42.671875 339.011719 43.257812 339.238281 43.855469 339.179688 C 45.394531 339.023438 46.660156 337.894531 46.996094 336.382812 C 48.433594 329.910156 52.335938 312.359375 55.21875 299.386719 L 55.773438 346.777344 L 58.609375 346.777344 L 59.636719 252.546875 L 127.0625 252.546875 L 128.167969 346.777344 L 131.003906 346.777344 L 132.03125 252.546875 L 143.925781 252.546875 L 143.925781 247.484375 L 40.527344 247.484375 Z M 40.527344 247.480469 " fill-opacity="1" fill-rule="evenodd"/><path fill="#5fa9e0" d="M 205.753906 118.234375 C 205.910156 118.234375 206.058594 118.203125 206.195312 118.15625 L 206.195312 122.03125 C 206.058594 121.980469 205.910156 121.949219 205.753906 121.949219 L 179.738281 121.949219 L 179.738281 118.234375 Z M 207.09375 73.832031 C 207.859375 71.070312 207.871094 68.40625 206.445312 65.957031 C 206.316406 65.738281 206.03125 65.660156 205.8125 65.789062 C 205.589844 65.917969 205.515625 66.203125 205.644531 66.425781 C 206.808594 68.421875 206.886719 70.636719 206.347656 72.953125 C 205.671875 72.359375 204.800781 72.019531 203.867188 72.019531 C 202.578125 72.019531 201.390625 72.667969 200.691406 73.757812 L 200.234375 74.476562 L 199.785156 73.769531 C 199.089844 72.675781 197.898438 72.019531 196.601562 72.019531 C 195.308594 72.019531 194.117188 72.671875 193.421875 73.761719 L 192.964844 74.480469 L 192.511719 73.769531 C 191.816406 72.675781 190.625 72.019531 189.328125 72.019531 C 188.035156 72.019531 186.847656 72.667969 186.152344 73.757812 L 185.691406 74.476562 L 185.242188 73.769531 C 184.546875 72.671875 183.355469 72.019531 182.058594 72.019531 C 180.886719 72.019531 179.804688 72.558594 179.09375 73.472656 C 178.417969 70.960938 178.425781 68.570312 179.675781 66.421875 C 179.804688 66.203125 179.730469 65.917969 179.507812 65.789062 C 179.289062 65.660156 179.003906 65.734375 178.875 65.957031 C 177.335938 68.597656 177.464844 71.492188 178.417969 74.488281 L 176.710938 77.167969 C 176.597656 77.34375 176.648438 77.582031 176.828125 77.695312 C 177.003906 77.808594 177.242188 77.757812 177.355469 77.578125 L 178.738281 75.40625 C 179.757812 78.171875 181.394531 81.007812 183.015625 83.800781 C 183.339844 84.359375 183.660156 84.917969 183.976562 85.46875 C 186.828125 90.46875 187.167969 105.851562 187.179688 112.191406 L 188.113281 112.191406 C 188.109375 105.777344 187.78125 90.261719 184.785156 85.007812 C 184.464844 84.453125 184.144531 83.894531 183.820312 83.335938 C 182.089844 80.347656 180.332031 77.3125 179.375 74.410156 L 179.523438 74.171875 C 180.078125 73.300781 181.027344 72.78125 182.058594 72.78125 C 183.09375 72.78125 184.039062 73.304688 184.59375 74.179688 L 185.234375 75.1875 L 184.707031 76.011719 C 184.476562 76.375 184.460938 76.832031 184.671875 77.207031 C 184.878906 77.582031 185.277344 77.808594 185.707031 77.804688 C 186.132812 77.796875 186.507812 77.566406 186.710938 77.191406 C 186.914062 76.816406 186.898438 76.375 186.667969 76.015625 L 186.144531 75.1875 L 186.796875 74.167969 C 187.351562 73.300781 188.296875 72.78125 189.332031 72.78125 C 190.363281 72.78125 191.3125 73.304688 191.867188 74.175781 L 192.507812 75.1875 L 191.980469 76.011719 C 191.75 76.375 191.734375 76.832031 191.945312 77.207031 C 192.15625 77.582031 192.550781 77.808594 192.980469 77.804688 C 193.40625 77.796875 193.78125 77.566406 193.980469 77.191406 C 194.183594 76.816406 194.167969 76.375 193.941406 76.015625 L 193.417969 75.191406 L 194.066406 74.171875 C 194.621094 73.300781 195.570312 72.78125 196.601562 72.78125 C 197.636719 72.78125 198.582031 73.304688 199.136719 74.179688 L 199.777344 75.1875 L 199.25 76.011719 C 199.019531 76.375 199.003906 76.832031 199.214844 77.207031 C 199.421875 77.578125 199.808594 77.804688 200.230469 77.804688 C 200.234375 77.804688 200.242188 77.804688 200.25 77.804688 C 200.675781 77.796875 201.050781 77.566406 201.253906 77.191406 C 201.457031 76.816406 201.441406 76.375 201.210938 76.015625 L 200.6875 75.1875 L 201.339844 74.167969 C 201.894531 73.300781 202.839844 72.78125 203.875 72.78125 C 204.75 72.78125 205.5625 73.160156 206.128906 73.808594 C 205.230469 76.890625 203.355469 80.140625 201.503906 83.335938 C 201.179688 83.894531 200.855469 84.453125 200.539062 85.007812 C 197.539062 90.257812 197.210938 105.777344 197.207031 112.1875 L 198.140625 112.1875 C 198.152344 105.851562 198.492188 90.464844 201.34375 85.46875 C 201.660156 84.917969 201.980469 84.359375 202.304688 83.800781 C 204.042969 80.800781 205.804688 77.75 206.800781 74.792969 L 208.582031 77.601562 C 208.695312 77.78125 208.929688 77.832031 209.109375 77.71875 C 209.289062 77.605469 209.339844 77.367188 209.226562 77.191406 Z M 186.035156 76.832031 C 186.003906 76.894531 185.902344 77.039062 185.695312 77.042969 C 185.476562 77.046875 185.375 76.902344 185.339844 76.839844 C 185.304688 76.777344 185.238281 76.609375 185.351562 76.429688 L 185.6875 75.90625 L 186.023438 76.429688 C 186.132812 76.609375 186.070312 76.773438 186.035156 76.832031 Z M 193.308594 76.832031 C 193.273438 76.894531 193.175781 77.039062 192.964844 77.042969 C 192.75 77.042969 192.644531 76.902344 192.613281 76.839844 C 192.578125 76.777344 192.507812 76.609375 192.625 76.429688 L 192.960938 75.90625 L 193.292969 76.429688 C 193.40625 76.609375 193.339844 76.773438 193.308594 76.832031 Z M 200.578125 76.832031 C 200.542969 76.894531 200.445312 77.039062 200.234375 77.042969 C 200.019531 77.046875 199.917969 76.902344 199.882812 76.839844 C 199.847656 76.777344 199.777344 76.609375 199.894531 76.429688 L 200.230469 75.90625 L 200.5625 76.429688 C 200.675781 76.609375 200.609375 76.773438 200.578125 76.832031 Z M 370.015625 259.078125 C 356.925781 259.078125 319.613281 259.078125 306.523438 259.078125 C 303.976562 259.078125 301.914062 261.140625 301.914062 263.691406 L 301.914062 266.195312 L 374.621094 266.195312 L 374.621094 267.023438 L 301.914062 267.023438 L 301.914062 286.609375 C 301.914062 289.15625 303.972656 291.222656 306.523438 291.222656 C 319.613281 291.222656 356.921875 291.222656 370.015625 291.222656 C 372.5625 291.222656 374.625 289.15625 374.625 286.609375 C 374.625 280.5 374.625 269.800781 374.625 263.691406 C 374.625 261.140625 372.5625 259.078125 370.015625 259.078125 Z M 360.308594 263.113281 C 359.734375 263.113281 359.273438 262.648438 359.273438 262.074219 C 359.273438 261.503906 359.734375 261.039062 360.308594 261.039062 C 360.878906 261.039062 361.34375 261.503906 361.34375 262.074219 C 361.34375 262.648438 360.878906 263.113281 360.308594 263.113281 Z M 363.761719 263.113281 C 363.1875 263.113281 362.726562 262.648438 362.726562 262.074219 C 362.726562 261.503906 363.1875 261.039062 363.761719 261.039062 C 364.332031 261.039062 364.796875 261.503906 364.796875 262.074219 C 364.796875 262.648438 364.332031 263.113281 363.761719 263.113281 Z M 367.210938 263.113281 C 366.640625 263.113281 366.175781 262.648438 366.175781 262.074219 C 366.175781 261.503906 366.640625 261.039062 367.210938 261.039062 C 367.785156 261.039062 368.25 261.503906 368.25 262.074219 C 368.25 262.648438 367.785156 263.113281 367.210938 263.113281 Z M 367.34375 284.730469 C 367.171875 284.878906 366.914062 284.863281 366.761719 284.691406 L 355.546875 271.8125 L 346.183594 281.628906 C 346.105469 281.710938 345.996094 281.757812 345.886719 281.757812 C 345.882812 281.757812 345.882812 281.757812 345.882812 281.757812 C 345.765625 281.757812 345.65625 281.707031 345.582031 281.625 L 338.613281 274 L 328.402344 284.871094 C 328.324219 284.953125 328.183594 285.023438 328.101562 285 C 327.988281 285 327.882812 284.953125 327.804688 284.875 L 320.167969 276.980469 L 310.40625 285.292969 C 310.328125 285.359375 310.234375 285.390625 310.140625 285.390625 C 310.023438 285.390625 309.90625 285.339844 309.824219 285.246094 C 309.679688 285.070312 309.699219 284.8125 309.871094 284.664062 L 319.929688 276.101562 C 320.09375 275.960938 320.34375 275.972656 320.492188 276.128906 L 328.097656 283.988281 L 338.316406 273.109375 C 338.394531 273.027344 338.503906 272.980469 338.617188 272.980469 C 338.714844 272.953125 338.84375 273.03125 338.921875 273.113281 L 345.894531 280.738281 L 355.261719 270.914062 C 355.34375 270.828125 355.453125 270.804688 355.570312 270.785156 C 355.6875 270.789062 355.796875 270.839844 355.871094 270.929688 L 367.386719 284.144531 C 367.535156 284.320312 367.515625 284.578125 367.34375 284.730469 Z M 353.605469 98.082031 L 362.351562 98.082031 C 362.707031 98.082031 363.050781 97.9375 363.304688 97.683594 C 363.558594 97.429688 363.699219 97.085938 363.699219 96.726562 C 363.699219 94.371094 363.699219 89.539062 363.699219 87.179688 C 363.699219 86.820312 363.558594 86.476562 363.304688 86.222656 C 363.050781 85.972656 362.707031 85.828125 362.351562 85.828125 C 360.148438 85.828125 355.808594 85.828125 353.605469 85.828125 C 353.246094 85.828125 352.902344 85.972656 352.648438 86.222656 C 352.394531 86.476562 352.253906 86.820312 352.253906 87.179688 C 352.253906 89.539062 352.253906 94.371094 352.253906 96.726562 C 352.253906 97.085938 352.394531 97.429688 352.648438 97.683594 C 352.902344 97.9375 353.246094 98.082031 353.605469 98.082031 Z M 355.191406 90.117188 C 355 89.945312 354.980469 89.652344 355.148438 89.457031 C 355.320312 89.265625 355.613281 89.246094 355.808594 89.417969 L 357.976562 91.332031 L 360.144531 89.417969 C 360.339844 89.246094 360.632812 89.265625 360.800781 89.457031 C 360.972656 89.648438 360.953125 89.945312 360.761719 90.113281 L 358.679688 91.953125 L 360.761719 93.792969 C 360.855469 93.875 360.914062 93.988281 360.917969 94.113281 C 360.925781 94.238281 360.886719 94.359375 360.804688 94.453125 C 360.71875 94.550781 360.589844 94.609375 360.453125 94.609375 C 360.339844 94.609375 360.230469 94.566406 360.144531 94.488281 L 357.976562 92.574219 L 355.804688 94.492188 C 355.71875 94.566406 355.609375 94.609375 355.496094 94.609375 C 355.363281 94.609375 355.238281 94.550781 355.148438 94.453125 C 355.0625 94.359375 355.023438 94.238281 355.03125 94.113281 C 355.039062 93.988281 355.09375 93.875 355.1875 93.792969 L 357.269531 91.953125 Z M 89.40625 340.128906 L 63.144531 340.128906 C 61.789062 334.710938 63.101562 332.074219 63.894531 326.875 L 76.367188 326.875 C 76.636719 327.347656 77.09375 328.0625 77.859375 329.15625 C 80.074219 332.320312 83.558594 334.105469 86.453125 335.507812 C 90.027344 337.234375 89.40625 340.128906 89.40625 340.128906 Z M 102.226562 132.183594 L 109.132812 139.035156 C 107.921875 140.257812 106.40625 141.140625 104.746094 141.585938 C 99.5625 142.976562 94.226562 139.890625 92.835938 134.703125 C 91.449219 129.515625 94.53125 124.171875 99.710938 122.78125 C 104.894531 121.390625 110.234375 124.476562 111.621094 129.664062 C 111.839844 130.480469 111.953125 131.324219 111.953125 132.171875 Z M 137.746094 340.128906 L 111.480469 340.128906 C 110.121094 334.699219 111.910156 332.765625 111.328125 326.875 L 123.765625 326.875 C 124.074219 327.503906 124.5625 328.363281 125.222656 329.15625 C 127.695312 332.121094 131.898438 334.105469 134.789062 335.507812 C 138.367188 337.234375 137.746094 340.128906 137.746094 340.128906 Z M 50.824219 116.59375 L 59.886719 116.59375 C 60.253906 116.59375 60.609375 116.449219 60.875 116.183594 C 61.136719 115.921875 61.28125 115.5625 61.28125 115.195312 C 61.28125 112.75 61.28125 107.746094 61.28125 105.300781 C 61.28125 104.929688 61.136719 104.574219 60.875 104.3125 C 60.609375 104.050781 60.253906 103.902344 59.886719 103.902344 C 57.601562 103.902344 53.109375 103.902344 50.824219 103.902344 C 50.457031 103.902344 50.097656 104.050781 49.835938 104.3125 C 49.574219 104.574219 49.429688 104.933594 49.429688 105.300781 C 49.429688 107.746094 49.429688 112.75 49.429688 115.195312 C 49.429688 115.566406 49.574219 115.921875 49.835938 116.183594 C 50.097656 116.449219 50.457031 116.59375 50.824219 116.59375 Z M 52.46875 108.34375 C 52.269531 108.167969 52.25 107.863281 52.425781 107.664062 C 52.605469 107.460938 52.910156 107.445312 53.109375 107.621094 L 55.355469 109.605469 L 57.601562 107.621094 C 57.695312 107.535156 57.8125 107.488281 57.949219 107.5 C 58.078125 107.507812 58.199219 107.566406 58.285156 107.660156 C 58.371094 107.757812 58.410156 107.882812 58.402344 108.011719 C 58.394531 108.140625 58.335938 108.261719 58.238281 108.34375 L 56.085938 110.246094 L 58.242188 112.152344 C 58.339844 112.238281 58.398438 112.355469 58.40625 112.484375 C 58.414062 112.613281 58.371094 112.738281 58.285156 112.835938 C 58.191406 112.9375 58.058594 112.996094 57.921875 112.996094 C 57.804688 112.996094 57.691406 112.953125 57.601562 112.875 L 55.355469 110.890625 L 53.105469 112.875 C 53.019531 112.953125 52.90625 112.996094 52.785156 112.996094 C 52.648438 112.996094 52.515625 112.9375 52.425781 112.832031 C 52.25 112.632812 52.269531 112.328125 52.464844 112.152344 L 54.625 110.246094 Z M 183.988281 127.992188 L 201.945312 127.992188 C 200.914062 132 197.289062 134.960938 192.964844 134.960938 C 188.644531 134.960938 185.019531 132 183.988281 127.992188 Z M 91.003906 219.875 L 71.082031 227.378906 L 54.902344 213.679688 C 54.332031 213.195312 53.722656 212.828125 53.097656 212.570312 C 52.414062 212.066406 51.558594 211.679688 50.46875 211.492188 C 49.976562 211.40625 49.511719 211.324219 49.058594 211.25 L 48.90625 213.601562 C 48.609375 217.078125 45.824219 219.757812 42.347656 219.460938 C 38.871094 219.164062 36.292969 216.105469 36.589844 212.625 L 36.90625 210.65625 C 34.726562 210.988281 32.253906 211.59375 29.023438 212.5625 C 25.449219 213.632812 22.824219 216.691406 22.832031 221.328125 C 22.851562 232.542969 25.546875 242.675781 28.816406 250.261719 C 30.410156 253.964844 49.769531 252.425781 51.039062 249.871094 C 51.257812 249.429688 51.457031 248.988281 51.660156 248.546875 L 66.917969 248.339844 C 69.445312 248.304688 70.703125 246.511719 70.667969 243.984375 C 70.636719 241.636719 69.605469 240.488281 67.328125 240.253906 L 54.988281 238.375 C 55.457031 236.140625 55.78125 233.90625 55.972656 231.691406 L 66.058594 239.066406 L 66.484375 239.386719 C 68.324219 240.765625 70.738281 240.824219 72.605469 239.738281 L 95.25 226.90625 C 97.429688 225.628906 98.054688 223.949219 96.78125 221.761719 C 95.597656 219.738281 93.101562 218.957031 91.003906 219.875 Z M 61.890625 244.75 C 61.890625 242.855469 63.285156 241.25 65.15625 240.984375 L 66.582031 240.789062 L 65.78125 247.128906 L 62.894531 247.128906 C 62.285156 246.46875 61.890625 245.640625 61.890625 244.75 Z M 284.308594 180.71875 C 284.507812 183.382812 284.699219 186.046875 284.863281 188.714844 L 275.300781 189.101562 C 274.511719 195.578125 273.890625 201.574219 273.890625 204.445312 C 273.890625 210.632812 274.824219 221.535156 274.824219 226.042969 C 274.824219 227.238281 273.960938 228.25 272.78125 228.449219 C 260.363281 230.5625 245.898438 230.5 233.144531 228.433594 C 231.960938 228.242188 231.085938 227.226562 231.085938 226.023438 C 231.085938 221.503906 232.019531 210.621094 232.019531 204.445312 C 232.019531 201.550781 231.566406 195.496094 230.96875 188.96875 L 218.578125 182.304688 L 225.644531 168.289062 C 226.585938 166.234375 228.289062 164.785156 230.261719 164.101562 C 230.269531 164.097656 230.277344 164.089844 230.285156 164.085938 C 235.445312 161.929688 240.527344 160.496094 245.585938 159.761719 L 245.707031 161.328125 C 246.046875 165.402344 249.488281 168.523438 253.8125 168.152344 C 258.140625 167.785156 261.375 164.183594 261.039062 160.109375 L 260.972656 159.703125 C 266.773438 160.488281 272.625 162.167969 278.621094 164.761719 C 278.621094 164.761719 278.613281 164.789062 278.613281 164.796875 C 281.128906 165.957031 283.011719 168.34375 283.382812 171.296875 C 283.773438 174.433594 284.035156 177.578125 284.308594 180.71875 Z M 199.261719 198.539062 L 148.289062 198.539062 L 148.289062 147.476562 L 199.261719 147.476562 Z M 199.261719 198.539062 " fill-opacity="1" fill-rule="nonzero"/><g clip-path="url(#46c58c5ca4)"><path fill="#293237" d="M 234.476562 131.269531 C 234.441406 131.101562 234.511719 130.929688 234.648438 130.832031 C 234.789062 130.734375 234.972656 130.726562 235.117188 130.8125 C 235.390625 130.972656 235.71875 131.128906 236.070312 131.214844 C 236.226562 131.25 236.390625 131.210938 236.515625 131.109375 C 236.640625 131.007812 236.710938 130.851562 236.703125 130.6875 C 236.703125 130.707031 236.703125 130.71875 236.703125 130.738281 C 236.703125 130.738281 236.703125 130.742188 236.703125 130.742188 C 236.71875 131.058594 236.734375 131.25 236.703125 130.738281 C 236.546875 127.605469 238.367188 124.710938 241.253906 123.492188 C 243.542969 122.523438 246.671875 121.738281 250.136719 122.375 C 257.480469 123.714844 258.972656 129.835938 258.972656 129.835938 C 261.300781 130.738281 263.160156 132.550781 264.121094 134.859375 C 265.078125 137.164062 265.050781 139.765625 264.046875 142.050781 C 262.832031 144.8125 261.167969 147.421875 259.078125 148.058594 L 258.875 146.824219 C 259.613281 146.261719 260.121094 145.484375 260.277344 144.566406 C 260.648438 142.382812 259.585938 140.378906 257.902344 140.089844 C 256.21875 139.804688 255.832031 141.394531 255.644531 142.492188 L 255.601562 142.761719 C 254.84375 142.730469 254.203125 142.742188 254.203125 142.742188 C 253.359375 140.246094 254.515625 136.273438 254.074219 133.277344 C 245.472656 131.570312 242.328125 135.1875 238.640625 133.6875 C 238.546875 134.003906 238.476562 134.332031 238.414062 134.660156 C 236.402344 134.144531 234.867188 133.121094 234.476562 131.269531 Z M 65.253906 317.003906 C 65.238281 317.003906 65.222656 316.996094 65.203125 316.992188 L 63.8125 326.878906 L 90.378906 326.878906 L 91.109375 316.921875 C 91.046875 316.96875 90.972656 317.003906 90.886719 317.003906 Z M 121.417969 317.003906 L 97.195312 317.003906 L 100.199219 326.875 L 123.992188 326.875 L 121.726562 316.824219 C 121.664062 316.929688 121.550781 317.003906 121.417969 317.003906 Z M 46.421875 247.570312 C 46.421875 248.023438 46.789062 248.390625 47.242188 248.390625 L 66.214844 248.371094 L 68.527344 248.367188 L 85.328125 248.347656 L 106.242188 248.324219 C 106.695312 248.324219 107.109375 247.953125 107.167969 247.5 L 108.226562 239.113281 C 107.046875 239.085938 105.292969 238.222656 104.527344 237.085938 C 103.84375 236.074219 104.507812 235.503906 104.921875 235.269531 C 104.933594 235.246094 104.945312 235.226562 104.964844 235.214844 C 104.675781 234.996094 104.476562 234.769531 104.421875 234.542969 C 104.144531 233.414062 104.785156 233.042969 105.179688 232.917969 C 105.167969 232.890625 105.15625 232.859375 105.164062 232.824219 C 105.167969 232.800781 105.1875 232.789062 105.199219 232.769531 C 104.847656 232.527344 104.59375 232.28125 104.511719 232.050781 C 104.367188 231.65625 104.433594 231.320312 104.585938 231.042969 C 104.828125 230.601562 105.292969 230.351562 105.777344 230.351562 C 105.796875 230.273438 105.871094 230.222656 105.953125 230.242188 C 105.957031 230.242188 106.082031 230.269531 106.296875 230.320312 C 106.152344 230.125 106.054688 229.894531 106.027344 229.644531 C 105.980469 229.253906 106.074219 228.824219 106.550781 228.542969 C 107.183594 228.164062 108.4375 228.265625 109.554688 228.613281 L 110.714844 219.429688 C 110.773438 218.976562 110.449219 218.609375 110 218.609375 L 92.847656 218.628906 L 69.96875 218.65625 C 69.515625 218.65625 69.101562 219.023438 69.046875 219.476562 L 65.550781 247.128906 L 46.421875 247.148438 Z M 55.234375 237.566406 C 55.429688 237.566406 55.589844 237.414062 55.605469 237.21875 L 56.296875 227.074219 C 56.308594 226.871094 56.15625 226.691406 55.949219 226.679688 C 55.738281 226.671875 55.570312 226.820312 55.554688 227.023438 L 54.863281 237.167969 C 54.847656 237.375 55.003906 237.550781 55.210938 237.566406 C 55.21875 237.566406 55.226562 237.566406 55.234375 237.566406 Z M 46.019531 238.171875 C 48.773438 238.785156 51.867188 239.097656 51.894531 239.101562 C 51.910156 239.101562 51.921875 239.101562 51.933594 239.101562 C 52.121094 239.101562 52.285156 238.957031 52.304688 238.765625 C 52.324219 238.5625 52.175781 238.382812 51.96875 238.359375 C 51.941406 238.359375 48.890625 238.046875 46.179688 237.445312 C 44.085938 236.980469 37.875 228.304688 35.660156 225 C 35.546875 224.828125 35.3125 224.785156 35.144531 224.898438 C 34.972656 225.011719 34.929688 225.242188 35.042969 225.414062 C 35.875 226.652344 43.253906 237.554688 46.019531 238.171875 Z M 27.070312 234.84375 C 26.960938 234.667969 26.730469 234.621094 26.558594 234.726562 C 26.382812 234.835938 26.332031 235.0625 26.4375 235.238281 C 26.738281 235.71875 33.890625 247.0625 40.792969 247.851562 C 40.804688 247.851562 40.820312 247.855469 40.835938 247.855469 C 41.019531 247.855469 41.179688 247.714844 41.203125 247.523438 C 41.226562 247.320312 41.078125 247.136719 40.875 247.113281 C 34.332031 246.367188 27.140625 234.960938 27.070312 234.84375 Z M 25.667969 214.429688 C 26.617188 213.570312 27.761719 212.941406 29.023438 212.5625 C 32.253906 211.59375 34.726562 210.988281 36.90625 210.65625 L 37.78125 205.175781 L 38.113281 201.050781 L 37.210938 198.792969 C 37.292969 198.703125 37.367188 198.605469 37.441406 198.511719 C 37.300781 198.546875 37.152344 198.570312 36.992188 198.554688 C 35.136719 198.378906 33.710938 197.25 33.394531 195.65625 C 32.988281 193.609375 33.9375 191.691406 35.511719 191.378906 C 37.089844 191.0625 37.496094 192.550781 37.699219 193.578125 L 38.351562 196.84375 C 39.195312 194.589844 39.222656 191.671875 39.164062 190.132812 C 39.179688 190.132812 39.199219 190.132812 39.214844 190.132812 C 39.371094 190.132812 39.527344 190.132812 39.6875 190.128906 C 39.847656 190.128906 40.003906 190.125 40.167969 190.125 C 40.3125 190.121094 40.457031 190.117188 40.609375 190.113281 C 40.796875 190.109375 40.980469 190.101562 41.175781 190.09375 C 41.316406 190.089844 41.457031 190.082031 41.597656 190.074219 C 41.808594 190.0625 42.019531 190.050781 42.230469 190.039062 C 42.371094 190.027344 42.507812 190.015625 42.648438 190.003906 C 42.871094 189.988281 43.09375 189.96875 43.320312 189.945312 C 43.457031 189.929688 43.59375 189.914062 43.730469 189.898438 C 43.964844 189.871094 44.195312 189.839844 44.429688 189.804688 C 44.566406 189.785156 44.699219 189.761719 44.832031 189.742188 C 45.070312 189.703125 45.308594 189.65625 45.542969 189.609375 C 45.671875 189.585938 45.804688 189.558594 45.933594 189.53125 C 46.171875 189.476562 46.410156 189.417969 46.644531 189.355469 C 46.769531 189.320312 46.890625 189.289062 47.015625 189.25 C 47.253906 189.183594 47.484375 189.105469 47.71875 189.023438 C 47.835938 188.984375 47.949219 188.945312 48.0625 188.902344 C 48.296875 188.8125 48.523438 188.714844 48.75 188.613281 C 48.851562 188.566406 48.960938 188.519531 49.0625 188.46875 C 49.289062 188.355469 49.507812 188.234375 49.71875 188.105469 C 49.8125 188.050781 49.90625 188.003906 49.996094 187.945312 C 50.210938 187.804688 50.417969 187.652344 50.621094 187.492188 C 50.695312 187.4375 50.773438 187.382812 50.84375 187.320312 C 51.054688 187.144531 51.246094 186.953125 51.433594 186.753906 C 51.484375 186.699219 51.542969 186.648438 51.59375 186.589844 C 51.796875 186.359375 51.984375 186.109375 52.15625 185.84375 C 52.179688 185.808594 52.207031 185.78125 52.230469 185.742188 C 52.421875 185.4375 52.59375 185.113281 52.738281 184.761719 C 53.332031 185.957031 53.703125 187.289062 53.765625 188.707031 L 54.230469 198.96875 C 54.375 202.246094 52.503906 205.414062 49.347656 206.773438 L 48.90625 213.601562 L 49.058594 211.25 C 49.511719 211.328125 49.980469 211.40625 50.46875 211.492188 C 51.558594 211.679688 52.414062 212.070312 53.097656 212.574219 C 53.726562 212.832031 54.332031 213.195312 54.902344 213.679688 L 58.234375 216.5 C 60.882812 214.621094 62.617188 211.53125 62.617188 208.03125 C 62.617188 204.246094 60.585938 200.941406 57.554688 199.132812 C 57.5 198.886719 57.449219 198.644531 57.382812 198.394531 C 56.816406 196.253906 56.339844 194.09375 56.003906 191.90625 C 55.546875 188.902344 54.675781 185.277344 52.898438 182.890625 C 50.65625 179.875 47.414062 178.386719 42.550781 178.882812 C 41.378906 179 40.324219 179.304688 39.375 179.742188 C 38.566406 180.074219 37.785156 180.496094 37.042969 181.027344 C 34.613281 182.773438 33.078125 185.296875 32.511719 188.015625 C 31.488281 190.648438 31.175781 192.824219 31.175781 192.824219 C 23.738281 195.175781 21.8125 200.75 21.691406 205.597656 C 21.605469 209.058594 23.121094 212.28125 25.667969 214.429688 Z M 230.996094 189.628906 C 231.007812 189.628906 231.019531 189.628906 231.035156 189.628906 C 231.238281 189.605469 231.386719 189.421875 231.363281 189.21875 L 230.097656 176.871094 C 230.078125 176.667969 229.890625 176.515625 229.691406 176.539062 C 229.484375 176.558594 229.335938 176.742188 229.359375 176.945312 L 230.628906 189.296875 C 230.648438 189.488281 230.808594 189.628906 230.996094 189.628906 Z M 255.226562 181.53125 L 267.507812 181.53125 C 267.710938 181.53125 267.878906 181.699219 267.878906 181.902344 L 267.878906 187.4375 C 267.878906 191.03125 264.957031 193.957031 261.367188 193.957031 C 257.773438 193.957031 254.851562 191.03125 254.851562 187.4375 L 254.851562 181.902344 C 254.855469 181.699219 255.019531 181.53125 255.226562 181.53125 Z M 255.597656 187.4375 C 255.597656 190.621094 258.183594 193.210938 261.367188 193.210938 C 264.546875 193.210938 267.136719 190.621094 267.136719 187.4375 L 267.136719 182.273438 L 255.597656 182.273438 Z M 275.253906 189.433594 C 275.269531 189.433594 275.289062 189.4375 275.304688 189.4375 C 275.488281 189.4375 275.648438 189.300781 275.671875 189.117188 L 277.375 176.699219 C 277.398438 176.496094 277.257812 176.308594 277.054688 176.28125 C 276.847656 176.261719 276.664062 176.394531 276.636719 176.597656 L 274.933594 189.015625 C 274.910156 189.21875 275.050781 189.40625 275.253906 189.433594 Z M 278.605469 345.789062 C 278.199219 343.316406 276.613281 341.574219 274.800781 339.921875 C 274.738281 339.863281 274.671875 339.804688 274.605469 339.746094 C 274.058594 339.253906 273.5 338.765625 272.945312 338.265625 C 272.816406 338.152344 272.6875 338.035156 272.558594 337.914062 C 272.421875 337.789062 272.289062 337.664062 272.152344 337.535156 C 272.015625 337.40625 271.882812 337.273438 271.75 337.140625 C 271.628906 337.019531 271.507812 336.898438 271.386719 336.773438 C 271.25 336.632812 271.121094 336.484375 270.988281 336.339844 C 270.882812 336.21875 270.773438 336.097656 270.667969 335.976562 C 270.535156 335.816406 270.40625 335.648438 270.28125 335.484375 C 270.191406 335.363281 270.097656 335.246094 270.011719 335.125 C 269.878906 334.933594 269.757812 334.734375 269.636719 334.535156 C 269.570312 334.425781 269.496094 334.324219 269.433594 334.210938 C 269.261719 333.898438 269.101562 333.578125 268.960938 333.238281 C 268.960938 333.234375 268.957031 333.230469 268.957031 333.226562 C 268.898438 333.085938 268.851562 332.945312 268.800781 332.804688 C 268.125 332.582031 267.449219 332.492188 266.777344 332.527344 C 266.4375 332.542969 266.097656 332.59375 265.757812 332.671875 C 264.078125 333.066406 262.425781 334.199219 260.84375 335.890625 C 259.886719 336.914062 258.992188 337.183594 258.234375 337.101562 C 258 337.074219 257.777344 337.015625 257.570312 336.933594 C 257.558594 337.214844 257.546875 337.5 257.53125 337.789062 C 257.527344 337.898438 257.523438 338.011719 257.519531 338.121094 C 257.511719 338.289062 257.507812 338.453125 257.5 338.621094 C 257.492188 338.800781 257.488281 338.988281 257.480469 339.171875 C 257.476562 339.277344 257.472656 339.386719 257.46875 339.496094 C 257.460938 339.714844 257.453125 339.941406 257.449219 340.171875 C 257.445312 340.234375 257.445312 340.300781 257.441406 340.367188 C 257.394531 341.988281 257.359375 343.8125 257.351562 345.941406 C 257.347656 346.542969 257.835938 347.039062 258.4375 347.039062 L 277.527344 347.039062 C 278.191406 347.042969 278.710938 346.449219 278.605469 345.789062 Z M 274.113281 227.753906 C 273.761719 228.105469 273.304688 228.363281 272.785156 228.449219 C 260.367188 230.5625 245.898438 230.5 233.144531 228.433594 C 232.726562 228.367188 232.351562 228.191406 232.035156 227.945312 L 230.222656 277.253906 L 228.128906 326.472656 L 240.382812 326.472656 C 240.386719 326.453125 240.394531 326.429688 240.402344 326.410156 L 246.859375 326.375 L 252.261719 240.070312 L 252.886719 234.835938 L 254.484375 234.996094 L 257.273438 326.472656 L 276.949219 327.300781 Z M 227.113281 333.160156 C 224.984375 335.824219 219.402344 339.21875 215.078125 341.320312 L 216.957031 344.257812 L 239.496094 344.257812 C 239.550781 341.9375 239.417969 338.542969 238.453125 335.582031 C 235.6875 336.996094 230.765625 337.984375 227.113281 333.160156 Z M 215.078125 341.320312 C 214.421875 341.640625 213.792969 341.929688 213.207031 342.183594 C 210.644531 343.296875 209.996094 344.578125 209.832031 345.8125 C 209.746094 346.464844 210.257812 347.042969 210.914062 347.042969 L 238.328125 347.042969 C 238.898438 347.042969 239.371094 346.605469 239.410156 346.035156 C 239.445312 345.574219 239.480469 344.960938 239.496094 344.257812 L 216.957031 344.257812 Z M 36.039062 266.464844 C 36.902344 266.460938 37.757812 266.457031 38.601562 266.457031 C 39.160156 266.457031 39.714844 266.484375 40.265625 266.527344 C 40.390625 266.539062 40.519531 266.546875 40.644531 266.558594 C 41.195312 266.613281 41.734375 266.679688 42.269531 266.773438 C 42.292969 266.777344 42.316406 266.785156 42.339844 266.789062 C 42.863281 266.882812 43.378906 267.003906 43.890625 267.136719 C 43.988281 267.160156 44.085938 267.1875 44.179688 267.210938 C 44.714844 267.359375 45.242188 267.523438 45.757812 267.714844 C 45.773438 267.71875 45.785156 267.722656 45.800781 267.730469 C 46.316406 267.921875 46.824219 268.132812 47.320312 268.363281 C 47.375 268.386719 47.425781 268.410156 47.476562 268.433594 C 48.519531 268.925781 49.515625 269.503906 50.457031 270.15625 C 50.46875 270.164062 50.484375 270.175781 50.5 270.183594 C 50.976562 270.519531 51.441406 270.871094 51.886719 271.242188 C 51.886719 271.242188 51.890625 271.242188 51.890625 271.242188 C 53 272.167969 54.023438 273.203125 54.921875 274.339844 L 54.75 259.710938 L 54.695312 255.058594 C 48.410156 255.105469 46.996094 255.179688 46.6875 255.210938 C 46.640625 255.234375 46.585938 255.246094 46.53125 255.246094 C 46.511719 255.246094 46.492188 255.242188 46.46875 255.238281 C 46.28125 255.207031 46.132812 255.027344 46.148438 254.835938 C 46.183594 254.390625 46.191406 254.375 54.6875 254.3125 L 54.679688 253.601562 C 54.304688 253.222656 53.894531 252.871094 53.449219 252.546875 L 40.527344 252.546875 L 40.527344 252.386719 C 35.300781 252.675781 29.90625 252.1875 28.890625 250.390625 C 22.8125 253.070312 20.75 259.351562 21.085938 266.5 C 25.726562 266.488281 30.992188 266.472656 36.039062 266.464844 Z M 99.691406 257.410156 L 85.355469 256.453125 C 85.125 256.425781 84.898438 256.394531 84.660156 256.375 L 59.613281 254.730469 L 59.597656 256.078125 L 59.597656 256.171875 L 59.332031 280.355469 L 59.316406 281.695312 L 69.816406 281.636719 C 69.816406 281.550781 69.84375 281.464844 69.902344 281.394531 L 74.523438 276.035156 C 74.65625 275.878906 74.890625 275.863281 75.046875 275.996094 C 75.203125 276.128906 75.21875 276.363281 75.085938 276.519531 L 70.464844 281.878906 C 70.394531 281.964844 70.289062 282.007812 70.183594 282.007812 C 70.167969 282.007812 70.152344 281.992188 70.136719 281.988281 L 65.308594 316.261719 L 90.886719 316.261719 C 90.988281 316.261719 91.082031 316.304688 91.148438 316.371094 L 92.289062 300.867188 L 96.976562 316.28125 C 97.011719 316.269531 97.046875 316.261719 97.082031 316.261719 L 121.417969 316.261719 C 121.492188 316.261719 121.558594 316.289062 121.613281 316.324219 L 110.75 268.121094 C 109.40625 262.167969 105.777344 257.808594 99.691406 257.410156 Z M 94.960938 269.542969 L 92.796875 299.003906 C 92.78125 299.199219 92.621094 299.351562 92.425781 299.351562 C 92.417969 299.351562 92.410156 299.347656 92.398438 299.347656 C 92.195312 299.332031 92.042969 299.15625 92.054688 298.949219 L 94.21875 269.492188 C 94.429688 266.214844 93.863281 263.449219 92.539062 261.277344 C 92.429688 261.101562 92.488281 260.875 92.660156 260.765625 C 92.835938 260.660156 93.0625 260.714844 93.171875 260.890625 C 94.578125 263.191406 95.179688 266.105469 94.960938 269.542969 Z M 360.765625 93.792969 L 358.679688 91.953125 L 360.761719 90.117188 C 360.953125 89.945312 360.972656 89.652344 360.804688 89.457031 C 360.632812 89.265625 360.339844 89.25 360.144531 89.417969 L 357.976562 91.332031 L 355.808594 89.417969 C 355.617188 89.246094 355.324219 89.265625 355.148438 89.460938 C 354.980469 89.652344 355 89.945312 355.191406 90.117188 L 357.273438 91.953125 L 355.191406 93.792969 C 355.097656 93.875 355.039062 93.988281 355.035156 94.113281 C 355.027344 94.238281 355.066406 94.359375 355.152344 94.453125 C 355.238281 94.550781 355.367188 94.609375 355.5 94.609375 C 355.613281 94.609375 355.722656 94.566406 355.808594 94.492188 L 357.976562 92.574219 L 360.148438 94.492188 C 360.234375 94.566406 360.34375 94.609375 360.457031 94.609375 C 360.59375 94.609375 360.71875 94.550781 360.804688 94.453125 C 360.890625 94.359375 360.929688 94.238281 360.921875 94.113281 C 360.914062 93.988281 360.855469 93.875 360.765625 93.792969 Z M 58.242188 112.152344 L 56.085938 110.246094 L 58.238281 108.34375 C 58.335938 108.261719 58.394531 108.144531 58.402344 108.015625 C 58.410156 107.886719 58.371094 107.761719 58.285156 107.664062 C 58.199219 107.566406 58.078125 107.507812 57.949219 107.5 C 57.8125 107.488281 57.695312 107.535156 57.601562 107.621094 L 55.355469 109.605469 L 53.109375 107.621094 C 52.910156 107.445312 52.605469 107.464844 52.425781 107.664062 C 52.25 107.863281 52.269531 108.171875 52.46875 108.34375 L 54.625 110.25 L 52.464844 112.152344 C 52.269531 112.332031 52.25 112.636719 52.425781 112.835938 C 52.515625 112.9375 52.648438 113 52.789062 113 C 52.90625 113 53.019531 112.953125 53.105469 112.878906 L 55.355469 110.890625 L 57.601562 112.875 C 57.691406 112.957031 57.804688 113 57.921875 113 C 58.0625 113 58.191406 112.9375 58.285156 112.835938 C 58.371094 112.738281 58.414062 112.613281 58.40625 112.484375 C 58.398438 112.355469 58.339844 112.238281 58.242188 112.152344 Z M 196.917969 155.402344 L 195.347656 153.925781 L 196.914062 152.445312 C 196.96875 152.394531 197 152.324219 197.003906 152.25 C 197.007812 152.175781 196.980469 152.101562 196.925781 152.046875 C 196.820312 151.933594 196.640625 151.929688 196.53125 152.035156 L 194.9375 153.535156 L 193.34375 152.035156 C 193.292969 151.984375 193.226562 151.957031 193.152344 151.957031 C 193.152344 151.957031 193.148438 151.957031 193.144531 151.957031 C 193.066406 151.960938 193 151.992188 192.949219 152.046875 C 192.898438 152.101562 192.867188 152.171875 192.871094 152.25 C 192.875 152.324219 192.90625 152.394531 192.957031 152.445312 L 194.527344 153.921875 L 192.957031 155.402344 C 192.847656 155.507812 192.839844 155.6875 192.945312 155.800781 C 193 155.855469 193.074219 155.886719 193.152344 155.886719 C 193.222656 155.886719 193.289062 155.863281 193.34375 155.8125 L 194.9375 154.308594 L 196.53125 155.8125 C 196.582031 155.863281 196.648438 155.886719 196.722656 155.886719 C 196.800781 155.886719 196.875 155.855469 196.925781 155.800781 C 196.976562 155.746094 197.007812 155.671875 197.003906 155.597656 C 197.003906 155.523438 196.972656 155.453125 196.917969 155.402344 Z M 159.4375 159.523438 L 154.199219 159.523438 C 154.042969 159.523438 153.914062 159.652344 153.914062 159.808594 L 153.914062 165.050781 C 153.914062 165.207031 154.042969 165.332031 154.199219 165.332031 L 159.4375 165.332031 C 159.589844 165.332031 159.71875 165.207031 159.71875 165.050781 L 159.71875 159.808594 C 159.71875 159.652344 159.589844 159.523438 159.4375 159.523438 Z M 159.4375 167.71875 L 154.199219 167.71875 C 154.042969 167.71875 153.914062 167.84375 153.914062 168 L 153.914062 173.246094 C 153.914062 173.398438 154.042969 173.527344 154.199219 173.527344 L 159.4375 173.527344 C 159.589844 173.527344 159.71875 173.398438 159.71875 173.246094 L 159.71875 168 C 159.71875 167.84375 159.589844 167.71875 159.4375 167.71875 Z M 159.4375 175.910156 L 154.199219 175.910156 C 154.042969 175.910156 153.914062 176.039062 153.914062 176.195312 L 153.914062 181.4375 C 153.914062 181.59375 154.042969 181.71875 154.199219 181.71875 L 159.4375 181.71875 C 159.589844 181.71875 159.71875 181.59375 159.71875 181.4375 L 159.71875 176.195312 C 159.71875 176.039062 159.589844 175.910156 159.4375 175.910156 Z M 159.4375 184.105469 L 154.199219 184.105469 C 154.042969 184.105469 153.914062 184.230469 153.914062 184.386719 L 153.914062 189.632812 C 153.914062 189.785156 154.042969 189.914062 154.199219 189.914062 L 159.4375 189.914062 C 159.589844 189.914062 159.71875 189.789062 159.71875 189.632812 L 159.71875 184.386719 C 159.71875 184.230469 159.589844 184.105469 159.4375 184.105469 Z M 191.441406 162.359375 L 162.925781 162.359375 C 162.769531 162.359375 162.644531 162.484375 162.644531 162.640625 C 162.644531 162.796875 162.769531 162.921875 162.925781 162.921875 L 191.441406 162.921875 C 191.59375 162.921875 191.722656 162.796875 191.722656 162.640625 C 191.722656 162.484375 191.59375 162.359375 191.441406 162.359375 Z M 191.441406 170.578125 L 162.925781 170.578125 C 162.769531 170.578125 162.644531 170.707031 162.644531 170.859375 C 162.644531 171.015625 162.769531 171.144531 162.925781 171.144531 L 191.441406 171.144531 C 191.59375 171.144531 191.722656 171.015625 191.722656 170.859375 C 191.722656 170.707031 191.59375 170.578125 191.441406 170.578125 Z M 191.441406 178.800781 L 162.925781 178.800781 C 162.769531 178.800781 162.644531 178.925781 162.644531 179.082031 C 162.644531 179.238281 162.769531 179.363281 162.925781 179.363281 L 191.441406 179.363281 C 191.59375 179.363281 191.722656 179.238281 191.722656 179.082031 C 191.722656 178.925781 191.59375 178.800781 191.441406 178.800781 Z M 191.441406 187.019531 L 162.925781 187.019531 C 162.769531 187.019531 162.644531 187.148438 162.644531 187.300781 C 162.644531 187.457031 162.769531 187.585938 162.925781 187.585938 L 191.441406 187.585938 C 191.59375 187.585938 191.722656 187.457031 191.722656 187.300781 C 191.722656 187.148438 191.59375 187.019531 191.441406 187.019531 Z M 191.441406 187.019531 " fill-opacity="1" fill-rule="evenodd"/></g><path fill="#f5c0a2" d="M 110.371094 234.429688 C 110.433594 234.460938 110.496094 234.488281 110.558594 234.519531 C 110.628906 234.554688 110.65625 234.636719 110.628906 234.710938 C 110.859375 235.140625 110.457031 236.617188 109.875 236.839844 C 109.847656 236.847656 109.804688 236.851562 109.765625 236.855469 C 109.820312 236.902344 109.84375 236.972656 109.8125 237.039062 C 109.800781 237.058594 109.777344 237.0625 109.757812 237.078125 C 109.917969 237.664062 109.699219 238.667969 108.914062 239.015625 C 107.882812 239.472656 105.464844 238.472656 104.527344 237.082031 C 103.84375 236.074219 104.507812 235.503906 104.921875 235.265625 C 104.933594 235.246094 104.945312 235.226562 104.964844 235.210938 C 104.675781 234.992188 104.476562 234.765625 104.421875 234.542969 C 104.144531 233.410156 104.785156 233.039062 105.179688 232.917969 C 105.167969 232.886719 105.15625 232.855469 105.164062 232.820312 C 105.167969 232.796875 105.1875 232.785156 105.199219 232.769531 C 104.847656 232.523438 104.59375 232.28125 104.511719 232.046875 C 104.367188 231.65625 104.433594 231.320312 104.585938 231.042969 C 104.828125 230.601562 105.292969 230.347656 105.777344 230.347656 C 105.796875 230.273438 105.871094 230.222656 105.953125 230.238281 C 105.957031 230.238281 106.082031 230.265625 106.296875 230.320312 C 106.152344 230.125 106.054688 229.890625 106.027344 229.640625 C 105.980469 229.253906 106.074219 228.824219 106.550781 228.539062 C 107.617188 227.90625 110.464844 228.609375 111.398438 229.601562 C 111.769531 229.992188 111.347656 231.738281 110.941406 232.050781 C 110.976562 232.09375 110.996094 232.152344 110.96875 232.210938 C 110.964844 232.21875 110.957031 232.214844 110.953125 232.222656 C 111.199219 232.589844 110.890625 234.03125 110.371094 234.429688 Z M 267.96875 326.921875 L 257.957031 326.5 C 257.953125 326.683594 257.945312 326.855469 257.945312 327.046875 C 257.945312 330.539062 257.738281 333.214844 257.570312 336.9375 C 258.445312 337.285156 259.589844 337.234375 260.847656 335.890625 C 263.371094 333.191406 266.09375 331.90625 268.800781 332.808594 C 268.085938 330.859375 267.925781 328.894531 267.96875 326.921875 Z M 261.035156 160.109375 L 258.878906 146.828125 C 259.613281 146.261719 260.121094 145.484375 260.277344 144.570312 C 260.652344 142.382812 259.585938 140.378906 257.902344 140.09375 C 256.222656 139.804688 255.835938 141.398438 255.648438 142.492188 L 255.601562 142.765625 C 254.84375 142.730469 254.207031 142.746094 254.207031 142.746094 C 253.363281 140.246094 254.519531 136.273438 254.078125 133.277344 C 245.472656 131.574219 242.328125 135.1875 238.640625 133.6875 C 238.34375 134.722656 238.195312 135.820312 238.238281 136.957031 L 238.636719 147.855469 C 238.773438 151.410156 241.117188 154.664062 244.703125 155.765625 C 244.898438 155.824219 245.09375 155.867188 245.289062 155.914062 L 245.707031 161.332031 C 246.046875 165.402344 249.488281 168.523438 253.8125 168.15625 C 258.140625 167.785156 261.375 164.183594 261.035156 160.109375 Z M 230.96875 188.96875 L 220.210938 183.1875 L 214.785156 193.222656 L 207.390625 178.949219 C 207.28125 175.332031 203.355469 170.65625 201.5625 168.398438 C 200.664062 167.265625 200.3125 167.023438 199.804688 167.496094 C 199.125 168.121094 199.136719 169.347656 199.515625 170.71875 C 199.851562 171.941406 200.441406 173.136719 200.570312 173.796875 C 200.105469 173.652344 199.617188 173.519531 199.132812 173.402344 L 199.132812 186.660156 C 199.683594 186.789062 200.199219 186.886719 200.675781 186.945312 C 203.050781 193.957031 208.6875 210.527344 208.6875 210.527344 C 209.84375 214.035156 214.007812 215.722656 217.128906 213.742188 C 217.261719 213.65625 217.394531 213.566406 217.523438 213.46875 C 218.101562 213.035156 218.574219 212.511719 218.941406 211.941406 L 231.1875 191.414062 C 231.117188 190.609375 231.046875 189.792969 230.96875 188.96875 Z M 54.230469 198.96875 L 53.765625 188.707031 C 53.703125 187.285156 53.332031 185.953125 52.738281 184.761719 C 52.59375 185.109375 52.421875 185.4375 52.230469 185.742188 C 52.207031 185.777344 52.179688 185.808594 52.15625 185.84375 C 51.984375 186.105469 51.796875 186.355469 51.59375 186.589844 C 51.542969 186.648438 51.484375 186.699219 51.433594 186.753906 C 51.246094 186.953125 51.054688 187.144531 50.84375 187.320312 C 50.773438 187.382812 50.695312 187.433594 50.621094 187.492188 C 50.417969 187.648438 50.214844 187.804688 49.996094 187.941406 C 49.90625 188 49.8125 188.050781 49.71875 188.105469 C 49.503906 188.234375 49.289062 188.355469 49.0625 188.46875 C 48.960938 188.515625 48.855469 188.5625 48.75 188.609375 C 48.523438 188.710938 48.296875 188.8125 48.0625 188.898438 C 47.949219 188.941406 47.832031 188.984375 47.71875 189.023438 C 47.484375 189.105469 47.253906 189.179688 47.015625 189.25 C 46.890625 189.285156 46.769531 189.320312 46.644531 189.351562 C 46.40625 189.414062 46.171875 189.472656 45.933594 189.527344 C 45.804688 189.558594 45.671875 189.582031 45.542969 189.609375 C 45.308594 189.65625 45.070312 189.699219 44.832031 189.738281 C 44.699219 189.761719 44.566406 189.78125 44.429688 189.800781 C 44.195312 189.835938 43.964844 189.867188 43.730469 189.894531 C 43.59375 189.910156 43.457031 189.925781 43.320312 189.941406 C 43.09375 189.964844 42.871094 189.984375 42.648438 190.003906 C 42.507812 190.015625 42.371094 190.027344 42.230469 190.035156 C 42.019531 190.050781 41.808594 190.0625 41.597656 190.074219 C 41.457031 190.082031 41.316406 190.089844 41.175781 190.09375 C 40.980469 190.101562 40.796875 190.105469 40.609375 190.109375 C 40.457031 190.113281 40.3125 190.121094 40.167969 190.121094 C 40.003906 190.125 39.847656 190.125 39.6875 190.128906 C 39.527344 190.128906 39.367188 190.132812 39.214844 190.132812 C 39.199219 190.132812 39.179688 190.132812 39.164062 190.132812 C 39.222656 191.667969 39.195312 194.589844 38.351562 196.84375 L 37.699219 193.578125 C 37.496094 192.550781 37.089844 191.0625 35.511719 191.375 C 33.9375 191.691406 32.988281 193.605469 33.394531 195.65625 C 33.714844 197.25 35.136719 198.378906 36.992188 198.554688 C 37.152344 198.570312 37.300781 198.546875 37.441406 198.507812 C 37.367188 198.605469 37.292969 198.703125 37.210938 198.789062 L 38.113281 201.050781 L 37.78125 205.171875 L 36.589844 212.621094 C 36.292969 216.101562 38.871094 219.164062 42.347656 219.460938 C 45.824219 219.757812 48.609375 217.078125 48.90625 213.597656 L 49.34375 206.769531 C 52.503906 205.410156 54.375 202.246094 54.230469 198.96875 Z M 227.113281 333.160156 C 230.765625 337.984375 235.6875 336.996094 238.453125 335.582031 C 238.457031 335.582031 238.457031 335.585938 238.457031 335.589844 C 238.441406 332.792969 238.832031 329.046875 239.148438 326.472656 L 228.453125 326.472656 C 228.214844 329.46875 227.773438 331.484375 227.101562 333.171875 C 227.105469 333.167969 227.109375 333.164062 227.113281 333.160156 Z M 282.769531 188.796875 L 275.300781 189.101562 C 274.511719 195.578125 273.890625 201.570312 273.890625 204.445312 C 273.890625 210.632812 274.828125 221.53125 274.828125 226.042969 C 274.828125 227.238281 273.960938 228.25 272.785156 228.449219 C 272.1875 228.550781 271.582031 228.644531 270.976562 228.734375 C 271.625 232.167969 272.46875 234.359375 273.570312 233.851562 C 276.582031 232.460938 280.113281 222.160156 281.671875 217.171875 C 282.191406 215.507812 282.4375 213.777344 282.410156 212.03125 C 282.300781 204.609375 282.691406 191.355469 282.769531 188.796875 Z M 65.78125 247.128906 L 66.582031 240.789062 L 65.15625 240.984375 C 63.285156 241.25 61.890625 242.855469 61.890625 244.75 C 61.890625 245.640625 62.285156 246.46875 62.894531 247.128906 Z M 65.78125 247.128906 " fill-opacity="1" fill-rule="nonzero"/></svg>