<svg xmlns="http://www.w3.org/2000/svg" xmlns:xlink="http://www.w3.org/1999/xlink" width="500" zoomAndPan="magnify" viewBox="0 0 375 359.999987" height="480" preserveAspectRatio="xMidYMid meet" version="1.0"><defs><clipPath id="fcef0f4077"><path d="M 10.199219 116 L 290 116 L 290 303 L 10.199219 303 Z M 10.199219 116 " clip-rule="nonzero"/></clipPath><clipPath id="793fea2f3f"><path d="M 10.199219 257 L 290 257 L 290 303 L 10.199219 303 Z M 10.199219 257 " clip-rule="nonzero"/></clipPath><clipPath id="1f9c855e14"><path d="M 267 280 L 364.949219 280 L 364.949219 355 L 267 355 Z M 267 280 " clip-rule="nonzero"/></clipPath></defs><g clip-path="url(#fcef0f4077)"><path fill="#d9ddff" d="M 263.664062 302.359375 L 31.570312 302.359375 C 19.746094 302.359375 10.160156 292.777344 10.160156 280.957031 L 10.160156 141.566406 C 10.160156 127.441406 21.609375 116 35.734375 116 L 263.664062 116 C 277.789062 116 289.242188 127.441406 289.242188 141.566406 L 289.242188 276.800781 C 289.242188 290.917969 277.789062 302.359375 263.664062 302.359375 Z M 263.664062 302.359375 " fill-opacity="1" fill-rule="nonzero"/></g><path fill="#6967bf" d="M 186.488281 354.617188 L 112.90625 354.617188 L 125.273438 302.359375 L 174.121094 302.359375 Z M 186.488281 354.617188 " fill-opacity="1" fill-rule="nonzero"/><path fill="#5b59b2" d="M 174.121094 302.363281 L 145.570312 302.363281 L 157.9375 354.617188 L 186.488281 354.617188 Z M 174.121094 302.363281 " fill-opacity="1" fill-rule="nonzero"/><g clip-path="url(#793fea2f3f)"><path fill="#7776d0" d="M 10.160156 257.390625 L 10.160156 280.957031 C 10.160156 292.777344 19.746094 302.359375 31.570312 302.359375 L 267.828125 302.359375 C 279.65625 302.359375 289.242188 292.777344 289.242188 280.957031 L 289.242188 257.390625 Z M 10.160156 257.390625 " fill-opacity="1" fill-rule="nonzero"/></g><path fill="#7776d0" d="M 209.65625 349.269531 L 89.742188 349.269531 C 86.785156 349.269531 84.390625 351.664062 84.390625 354.617188 C 84.390625 357.574219 86.785156 359.96875 89.742188 359.96875 L 209.65625 359.96875 C 212.613281 359.96875 215.007812 357.574219 215.007812 354.617188 C 215.007812 351.664062 212.613281 349.269531 209.65625 349.269531 Z M 209.65625 349.269531 " fill-opacity="1" fill-rule="nonzero"/><path fill="#ffffff" d="M 164.828125 178.292969 L 158.511719 145.257812 C 157.957031 142.535156 155.636719 140.523438 152.863281 140.367188 C 150.085938 140.199219 147.554688 141.941406 146.695312 144.582031 C 146.675781 144.644531 146.65625 144.707031 146.640625 144.773438 L 141.632812 162.328125 L 136.433594 144.71875 C 136.414062 144.65625 136.394531 144.589844 136.375 144.523438 C 135.488281 141.894531 132.9375 140.1875 130.164062 140.375 C 127.394531 140.558594 125.09375 142.589844 124.554688 145.378906 L 118.605469 178.347656 C 118.074219 181.257812 120.011719 184.039062 122.917969 184.5625 C 125.828125 185.085938 128.613281 183.15625 129.136719 180.25 L 131.652344 166.332031 L 135.847656 180.554688 C 135.867188 180.617188 135.886719 180.679688 135.90625 180.742188 C 136.746094 183.242188 139.074219 184.914062 141.707031 184.914062 L 141.738281 184.914062 C 144.386719 184.898438 146.710938 183.199219 147.527344 180.679688 C 147.550781 180.621094 147.566406 180.558594 147.582031 180.5 L 151.632812 166.296875 L 154.3125 180.300781 C 154.867188 183.203125 157.671875 185.109375 160.574219 184.554688 C 163.480469 184 165.386719 181.199219 164.828125 178.292969 Z M 164.828125 178.292969 " fill-opacity="1" fill-rule="nonzero"/><path fill="#ffffff" d="M 71.089844 170.679688 C 68.824219 168.785156 65.445312 169.082031 63.546875 171.347656 C 63.289062 171.65625 63.007812 171.945312 62.714844 172.203125 C 61.222656 173.539062 59.292969 174.210938 56.984375 174.210938 C 50.597656 174.210938 45.40625 169.019531 45.40625 162.636719 C 45.40625 156.25 50.597656 151.058594 56.984375 151.058594 C 59.304688 151.058594 61.542969 151.746094 63.453125 153.03125 C 65.90625 154.6875 69.234375 154.042969 70.886719 151.59375 C 72.539062 149.148438 71.894531 145.820312 69.449219 144.164062 C 65.761719 141.675781 61.449219 140.355469 56.984375 140.355469 C 44.695312 140.355469 34.695312 150.351562 34.695312 162.632812 C 34.695312 174.917969 44.695312 184.914062 56.984375 184.914062 C 61.929688 184.914062 66.371094 183.28125 69.835938 180.199219 C 70.519531 179.589844 71.164062 178.925781 71.753906 178.21875 C 73.652344 175.953125 73.355469 172.582031 71.089844 170.679688 Z M 71.089844 170.679688 " fill-opacity="1" fill-rule="nonzero"/><path fill="#ffffff" d="M 110.269531 154.507812 C 110.269531 146.707031 103.695312 140.359375 95.617188 140.359375 L 86.617188 140.359375 C 86.613281 140.359375 86.613281 140.359375 86.609375 140.359375 L 86.605469 140.359375 C 83.652344 140.359375 81.25 142.753906 81.25 145.710938 L 81.25 179.5625 C 81.25 182.519531 83.652344 184.914062 86.605469 184.914062 C 89.5625 184.914062 91.957031 182.519531 91.957031 179.5625 L 91.957031 172.945312 L 100.894531 183.097656 C 101.953125 184.296875 103.433594 184.914062 104.917969 184.914062 C 106.175781 184.914062 107.433594 184.472656 108.453125 183.578125 C 110.671875 181.625 110.890625 178.246094 108.9375 176.027344 L 101.421875 167.496094 C 106.621094 165.320312 110.269531 160.320312 110.269531 154.507812 Z M 95.613281 151.058594 C 97.714844 151.058594 99.5625 152.671875 99.5625 154.507812 C 99.5625 156.34375 97.71875 157.953125 95.613281 157.953125 C 94.742188 157.953125 93.394531 157.957031 92.003906 157.964844 C 91.996094 156.628906 91.992188 155.339844 91.992188 154.507812 C 91.992188 153.789062 91.988281 152.464844 91.984375 151.058594 Z M 95.613281 151.058594 " fill-opacity="1" fill-rule="nonzero"/><path fill="#fff5b5" d="M 336.265625 65.394531 L 336.265625 182.089844 C 336.265625 192.605469 327.734375 201.132812 317.214844 201.132812 L 271.328125 201.132812 L 240.074219 224.382812 L 240.074219 201.132812 L 217.5 201.132812 C 206.976562 201.132812 198.445312 192.605469 198.445312 182.089844 L 198.445312 65.394531 C 198.445312 54.875 206.976562 46.347656 217.5 46.347656 L 317.210938 46.347656 C 327.734375 46.347656 336.265625 54.875 336.265625 65.394531 Z M 336.265625 65.394531 " fill-opacity="1" fill-rule="nonzero"/><path fill="#ffef8f" d="M 317.210938 46.347656 L 288.660156 46.347656 C 299.1875 46.347656 307.71875 54.875 307.71875 65.390625 L 307.71875 182.085938 C 307.71875 192.605469 299.1875 201.132812 288.660156 201.132812 L 317.210938 201.132812 C 327.734375 201.132812 336.265625 192.605469 336.265625 182.085938 L 336.265625 65.394531 C 336.265625 54.875 327.734375 46.347656 317.210938 46.347656 Z M 317.210938 46.347656 " fill-opacity="1" fill-rule="nonzero"/><path fill="#ffd54d" d="M 241.589844 136.902344 L 241.589844 112.695312 C 241.589844 109.738281 239.195312 107.34375 236.238281 107.34375 C 233.285156 107.34375 230.886719 109.738281 230.886719 112.695312 L 230.886719 136.902344 C 230.886719 139.863281 233.285156 142.257812 236.238281 142.257812 C 239.195312 142.257812 241.589844 139.863281 241.589844 136.902344 Z M 241.589844 136.902344 " fill-opacity="1" fill-rule="nonzero"/><path fill="#ffd54d" d="M 303.824219 136.902344 L 303.824219 112.695312 C 303.824219 109.738281 301.429688 107.34375 298.472656 107.34375 C 295.511719 107.34375 293.121094 109.738281 293.121094 112.695312 L 293.121094 136.902344 C 293.121094 139.863281 295.515625 142.257812 298.472656 142.257812 C 301.429688 142.257812 303.824219 139.863281 303.824219 136.902344 Z M 303.824219 136.902344 " fill-opacity="1" fill-rule="nonzero"/><path fill="#ffd54d" d="M 267.355469 106.851562 C 260.539062 106.851562 255 112.390625 255 119.199219 L 255 130.398438 C 255 137.207031 260.539062 142.75 267.355469 142.75 C 274.171875 142.75 279.714844 137.207031 279.714844 130.398438 L 279.714844 119.199219 C 279.714844 112.390625 274.171875 106.851562 267.355469 106.851562 Z M 269.007812 130.398438 C 269.007812 131.308594 268.265625 132.050781 267.355469 132.050781 C 266.445312 132.050781 265.707031 131.308594 265.707031 130.398438 L 265.707031 119.199219 C 265.707031 118.292969 266.445312 117.554688 267.355469 117.554688 C 268.265625 117.554688 269.007812 118.292969 269.007812 119.199219 Z M 269.007812 130.398438 " fill-opacity="1" fill-rule="nonzero"/><path fill="#ffd54d" d="M 267.355469 101.132812 C 270.3125 101.132812 272.710938 98.738281 272.710938 95.78125 L 272.710938 71.566406 C 272.710938 68.613281 270.3125 66.21875 267.355469 66.21875 C 264.398438 66.21875 262.003906 68.613281 262.003906 71.566406 L 262.003906 95.78125 C 262.003906 98.738281 264.398438 101.132812 267.355469 101.132812 Z M 267.355469 101.132812 " fill-opacity="1" fill-rule="nonzero"/><path fill="#ffd54d" d="M 236.238281 65.722656 C 229.425781 65.722656 223.882812 71.265625 223.882812 78.074219 L 223.882812 89.273438 C 223.882812 96.082031 229.425781 101.625 236.238281 101.625 C 243.054688 101.625 248.597656 96.082031 248.597656 89.273438 L 248.597656 78.074219 C 248.597656 71.265625 243.054688 65.722656 236.238281 65.722656 Z M 237.890625 89.273438 C 237.890625 90.183594 237.152344 90.921875 236.238281 90.921875 C 235.332031 90.921875 234.585938 90.183594 234.585938 89.273438 L 234.585938 78.074219 C 234.585938 77.167969 235.332031 76.421875 236.238281 76.421875 C 237.152344 76.421875 237.890625 77.167969 237.890625 78.074219 Z M 237.890625 89.273438 " fill-opacity="1" fill-rule="nonzero"/><path fill="#ffd54d" d="M 298.472656 65.722656 C 291.660156 65.722656 286.113281 71.265625 286.113281 78.074219 L 286.113281 89.273438 C 286.113281 96.082031 291.660156 101.625 298.472656 101.625 C 305.285156 101.625 310.828125 96.082031 310.828125 89.273438 L 310.828125 78.074219 C 310.828125 71.265625 305.285156 65.722656 298.472656 65.722656 Z M 300.125 89.273438 C 300.125 90.183594 299.378906 90.921875 298.472656 90.921875 C 297.558594 90.921875 296.820312 90.183594 296.820312 89.273438 L 296.820312 78.074219 C 296.820312 77.167969 297.558594 76.421875 298.472656 76.421875 C 299.378906 76.421875 300.125 77.167969 300.125 78.074219 Z M 300.125 89.273438 " fill-opacity="1" fill-rule="nonzero"/><path fill="#ffd54d" d="M 267.355469 148.472656 C 264.398438 148.472656 262.003906 150.867188 262.003906 153.820312 L 262.003906 178.035156 C 262.003906 180.988281 264.398438 183.382812 267.355469 183.382812 C 270.3125 183.382812 272.710938 180.988281 272.710938 178.035156 L 272.710938 153.820312 C 272.710938 150.867188 270.3125 148.472656 267.355469 148.472656 Z M 267.355469 148.472656 " fill-opacity="1" fill-rule="nonzero"/><path fill="#ffd54d" d="M 236.238281 147.976562 C 229.425781 147.976562 223.882812 153.515625 223.882812 160.328125 L 223.882812 171.523438 C 223.882812 178.335938 229.425781 183.878906 236.238281 183.878906 C 243.054688 183.878906 248.597656 178.335938 248.597656 171.523438 L 248.597656 160.328125 C 248.597656 153.515625 243.054688 147.976562 236.238281 147.976562 Z M 237.890625 171.523438 C 237.890625 172.433594 237.152344 173.175781 236.238281 173.175781 C 235.332031 173.175781 234.585938 172.433594 234.585938 171.523438 L 234.585938 160.328125 C 234.585938 159.417969 235.332031 158.679688 236.238281 158.679688 C 237.152344 158.679688 237.890625 159.417969 237.890625 160.328125 Z M 237.890625 171.523438 " fill-opacity="1" fill-rule="nonzero"/><path fill="#ffd54d" d="M 298.472656 147.976562 C 291.660156 147.976562 286.113281 153.515625 286.113281 160.328125 L 286.113281 171.523438 C 286.113281 178.335938 291.660156 183.878906 298.472656 183.878906 C 305.285156 183.878906 310.828125 178.335938 310.828125 171.523438 L 310.828125 160.328125 C 310.828125 153.515625 305.285156 147.976562 298.472656 147.976562 Z M 300.125 171.523438 C 300.125 172.433594 299.378906 173.175781 298.472656 173.175781 C 297.558594 173.175781 296.820312 172.433594 296.820312 171.523438 L 296.820312 160.328125 C 296.820312 159.417969 297.558594 158.679688 298.472656 158.679688 C 299.378906 158.679688 300.125 159.417969 300.125 160.328125 Z M 300.125 171.523438 " fill-opacity="1" fill-rule="nonzero"/><g clip-path="url(#1f9c855e14)"><path fill="#a6f5cf" d="M 338.441406 290.78125 C 340.378906 294.570312 341.476562 298.855469 341.476562 303.398438 C 341.476562 318.757812 329.023438 331.207031 313.660156 331.207031 C 302.839844 331.207031 293.476562 325.027344 288.875 316.015625 L 267.988281 326.648438 C 276.464844 343.25 293.730469 354.617188 313.660156 354.617188 C 341.960938 354.617188 364.902344 331.683594 364.902344 303.398438 C 364.902344 295.03125 362.890625 287.128906 359.332031 280.148438 Z M 338.441406 290.78125 " fill-opacity="1" fill-rule="nonzero"/></g><path fill="#ffd54d" d="M 285.839844 303.398438 C 285.839844 288.042969 298.296875 275.59375 313.660156 275.59375 L 313.660156 252.179688 C 285.359375 252.179688 262.417969 275.109375 262.417969 303.398438 C 262.417969 311.769531 264.425781 319.671875 267.988281 326.648438 L 288.871094 316.015625 C 286.9375 312.226562 285.839844 307.945312 285.839844 303.398438 Z M 285.839844 303.398438 " fill-opacity="1" fill-rule="nonzero"/><path fill="#ff8ccc" d="M 338.441406 290.78125 L 359.328125 280.152344 C 350.855469 263.546875 333.582031 252.183594 313.660156 252.183594 L 313.660156 275.59375 C 324.476562 275.59375 333.84375 281.773438 338.441406 290.78125 Z M 338.441406 290.78125 " fill-opacity="1" fill-rule="nonzero"/><path fill="#ffd54d" d="M 34.316406 88.804688 L 66.003906 88.804688 L 66.003906 55.707031 L 34.316406 55.707031 Z M 34.316406 88.804688 " fill-opacity="1" fill-rule="nonzero"/><path fill="#a6f5cf" d="M 131.210938 88.804688 L 162.902344 88.804688 L 162.902344 35.457031 L 131.210938 35.457031 Z M 131.210938 88.804688 " fill-opacity="1" fill-rule="nonzero"/><path fill="#ff8ccc" d="M 82.765625 88.804688 L 114.453125 88.804688 L 114.453125 0.03125 L 82.765625 0.03125 Z M 82.765625 88.804688 " fill-opacity="1" fill-rule="nonzero"/><path fill="#ffffff" d="M 165.492188 198.121094 L 40.21875 198.121094 C 37.261719 198.121094 34.867188 200.519531 34.867188 203.472656 C 34.867188 206.429688 37.261719 208.824219 40.21875 208.824219 L 165.492188 208.824219 C 168.445312 208.824219 170.84375 206.429688 170.84375 203.472656 C 170.84375 200.519531 168.445312 198.121094 165.492188 198.121094 Z M 165.492188 198.121094 " fill-opacity="1" fill-rule="nonzero"/><path fill="#ffffff" d="M 108.203125 221.316406 L 40.21875 221.316406 C 37.261719 221.316406 34.867188 223.710938 34.867188 226.664062 C 34.867188 229.621094 37.261719 232.015625 40.21875 232.015625 L 108.203125 232.015625 C 111.160156 232.015625 113.558594 229.621094 113.558594 226.664062 C 113.558594 223.710938 111.160156 221.316406 108.203125 221.316406 Z M 108.203125 221.316406 " fill-opacity="1" fill-rule="nonzero"/></svg>