<svg xmlns="http://www.w3.org/2000/svg" xmlns:xlink="http://www.w3.org/1999/xlink" width="500" zoomAndPan="magnify" viewBox="0 0 375 359.999987" height="480" preserveAspectRatio="xMidYMid meet" version="1.0"><defs><clipPath id="e7a6dc1b12"><path d="M 0 1.703125 L 375 1.703125 L 375 357.953125 L 0 357.953125 Z M 0 1.703125 " clip-rule="nonzero"/></clipPath></defs><g clip-path="url(#e7a6dc1b12)"><path fill="#f7ff00" d="M 187.5 1.703125 L 235.785156 110.160156 C 237.640625 114.324219 240.5625 117.929688 244.253906 120.609375 C 247.945312 123.289062 252.277344 124.949219 256.816406 125.425781 L 374.984375 137.789062 L 286.660156 217.183594 C 283.265625 220.230469 280.738281 224.121094 279.328125 228.457031 C 277.917969 232.792969 277.675781 237.421875 278.625 241.882812 L 303.371094 357.976562 L 200.496094 298.589844 C 196.546875 296.308594 192.0625 295.109375 187.5 295.109375 C 182.9375 295.109375 178.453125 296.308594 174.503906 298.589844 L 71.628906 357.976562 L 96.375 241.882812 C 97.324219 237.421875 97.082031 232.792969 95.671875 228.457031 C 94.261719 224.121094 91.734375 220.230469 88.34375 217.183594 L 0.0195312 137.789062 L 118.183594 125.425781 C 122.722656 124.949219 127.054688 123.289062 130.746094 120.609375 C 134.441406 117.929688 137.359375 114.324219 139.214844 110.160156 Z M 187.5 1.703125 " fill-opacity="1" fill-rule="evenodd"/></g></svg>