<svg xmlns="http://www.w3.org/2000/svg" xmlns:xlink="http://www.w3.org/1999/xlink" width="500" zoomAndPan="magnify" viewBox="0 0 375 374.999991" height="500" preserveAspectRatio="xMidYMid meet" version="1.0"><path fill="#a2acb6" d="M 265.085938 290.949219 L 109.914062 290.949219 L 109.914062 329.742188 L 265.085938 329.742188 L 265.085938 290.949219 " fill-opacity="1" fill-rule="nonzero"/><path fill="#c2c8d3" d="M 309.105469 349.136719 C 308.601562 348.355469 307.945312 347.722656 307.113281 347.269531 L 265.085938 323.277344 L 109.914062 323.277344 L 67.886719 347.269531 C 67.054688 347.722656 66.398438 348.355469 65.894531 349.136719 C 65.109375 350.222656 64.65625 351.539062 64.65625 352.902344 L 64.65625 368.535156 C 64.65625 372.09375 67.558594 375 71.121094 375 L 303.878906 375 C 307.441406 375 310.34375 372.09375 310.34375 368.535156 L 310.34375 352.902344 C 310.34375 351.539062 309.890625 350.222656 309.105469 349.136719 " fill-opacity="1" fill-rule="nonzero"/><path fill="#a2acb6" d="M 310.34375 352.902344 L 310.34375 368.535156 C 310.34375 372.09375 307.441406 375 303.878906 375 L 71.121094 375 C 67.558594 375 64.65625 372.09375 64.65625 368.535156 L 64.65625 352.902344 C 64.65625 351.539062 65.109375 350.222656 65.894531 349.136719 L 309.105469 349.136719 C 309.890625 350.222656 310.34375 351.539062 310.34375 352.902344 " fill-opacity="1" fill-rule="nonzero"/><path fill="#c2c8d3" d="M 375 245.691406 L 375 278.015625 C 375 288.75 366.335938 297.414062 355.601562 297.414062 L 19.398438 297.414062 C 8.664062 297.414062 0 288.75 0 278.015625 L 0 245.691406 L 12.929688 232.757812 L 368.535156 232.757812 L 375 245.691406 " fill-opacity="1" fill-rule="nonzero"/><path fill="#326d80" d="M 375 19.398438 L 375 245.691406 L 90.515625 245.691406 L 103.449219 0 L 355.601562 0 C 366.335938 0 375 8.664062 375 19.398438 " fill-opacity="1" fill-rule="nonzero"/><path fill="#234a56" d="M 103.449219 0 L 103.449219 245.691406 L 0 245.691406 L 0 19.398438 C 0 8.664062 8.664062 0 19.398438 0 L 103.449219 0 " fill-opacity="1" fill-rule="nonzero"/><path fill="#7b8698" d="M 200.429688 278.015625 L 174.570312 278.015625 C 171.007812 278.015625 168.101562 275.113281 168.101562 271.550781 C 168.101562 267.992188 171.007812 265.085938 174.570312 265.085938 L 200.429688 265.085938 C 203.992188 265.085938 206.898438 267.992188 206.898438 271.550781 C 206.898438 275.113281 203.992188 278.015625 200.429688 278.015625 " fill-opacity="1" fill-rule="nonzero"/><path fill="#ffffff" d="M 32.328125 38.792969 L 25.863281 38.792969 C 22.300781 38.792969 19.398438 35.886719 19.398438 32.328125 C 19.398438 28.765625 22.300781 25.863281 25.863281 25.863281 L 32.328125 25.863281 C 35.890625 25.863281 38.792969 28.765625 38.792969 32.328125 C 38.792969 35.886719 35.890625 38.792969 32.328125 38.792969 " fill-opacity="1" fill-rule="nonzero"/><path fill="#ffffff" d="M 77.585938 38.792969 L 58.191406 38.792969 C 54.628906 38.792969 51.722656 35.886719 51.722656 32.328125 C 51.722656 28.765625 54.628906 25.863281 58.191406 25.863281 L 77.585938 25.863281 C 81.148438 25.863281 84.050781 28.765625 84.050781 32.328125 C 84.050781 35.886719 81.148438 38.792969 77.585938 38.792969 " fill-opacity="1" fill-rule="nonzero"/><path fill="#ffffff" d="M 32.328125 64.65625 L 25.863281 64.65625 C 22.300781 64.65625 19.398438 61.75 19.398438 58.191406 C 19.398438 54.628906 22.300781 51.722656 25.863281 51.722656 L 32.328125 51.722656 C 35.890625 51.722656 38.792969 54.628906 38.792969 58.191406 C 38.792969 61.75 35.890625 64.65625 32.328125 64.65625 " fill-opacity="1" fill-rule="nonzero"/><path fill="#ffffff" d="M 77.585938 64.65625 L 58.191406 64.65625 C 54.628906 64.65625 51.722656 61.75 51.722656 58.191406 C 51.722656 54.628906 54.628906 51.722656 58.191406 51.722656 L 77.585938 51.722656 C 81.148438 51.722656 84.050781 54.628906 84.050781 58.191406 C 84.050781 61.75 81.148438 64.65625 77.585938 64.65625 " fill-opacity="1" fill-rule="nonzero"/><path fill="#ffffff" d="M 32.328125 90.515625 L 25.863281 90.515625 C 22.300781 90.515625 19.398438 87.613281 19.398438 84.050781 C 19.398438 80.492188 22.300781 77.585938 25.863281 77.585938 L 32.328125 77.585938 C 35.890625 77.585938 38.792969 80.492188 38.792969 84.050781 C 38.792969 87.613281 35.890625 90.515625 32.328125 90.515625 " fill-opacity="1" fill-rule="nonzero"/><path fill="#ffffff" d="M 77.585938 90.515625 L 58.191406 90.515625 C 54.628906 90.515625 51.722656 87.613281 51.722656 84.050781 C 51.722656 80.492188 54.628906 77.585938 58.191406 77.585938 L 77.585938 77.585938 C 81.148438 77.585938 84.050781 80.492188 84.050781 84.050781 C 84.050781 87.613281 81.148438 90.515625 77.585938 90.515625 " fill-opacity="1" fill-rule="nonzero"/><path fill="#ffffff" d="M 32.328125 116.378906 L 25.863281 116.378906 C 22.300781 116.378906 19.398438 113.476562 19.398438 109.914062 C 19.398438 106.351562 22.300781 103.449219 25.863281 103.449219 L 32.328125 103.449219 C 35.890625 103.449219 38.792969 106.351562 38.792969 109.914062 C 38.792969 113.476562 35.890625 116.378906 32.328125 116.378906 " fill-opacity="1" fill-rule="nonzero"/><path fill="#ffffff" d="M 77.585938 116.378906 L 58.191406 116.378906 C 54.628906 116.378906 51.722656 113.476562 51.722656 109.914062 C 51.722656 106.351562 54.628906 103.449219 58.191406 103.449219 L 77.585938 103.449219 C 81.148438 103.449219 84.050781 106.351562 84.050781 109.914062 C 84.050781 113.476562 81.148438 116.378906 77.585938 116.378906 " fill-opacity="1" fill-rule="nonzero"/><path fill="#ffffff" d="M 32.328125 142.242188 L 25.863281 142.242188 C 22.300781 142.242188 19.398438 139.335938 19.398438 135.777344 C 19.398438 132.214844 22.300781 129.308594 25.863281 129.308594 L 32.328125 129.308594 C 35.890625 129.308594 38.792969 132.214844 38.792969 135.777344 C 38.792969 139.335938 35.890625 142.242188 32.328125 142.242188 " fill-opacity="1" fill-rule="nonzero"/><path fill="#ffffff" d="M 77.585938 142.242188 L 58.191406 142.242188 C 54.628906 142.242188 51.722656 139.335938 51.722656 135.777344 C 51.722656 132.214844 54.628906 129.308594 58.191406 129.308594 L 77.585938 129.308594 C 81.148438 129.308594 84.050781 132.214844 84.050781 135.777344 C 84.050781 139.335938 81.148438 142.242188 77.585938 142.242188 " fill-opacity="1" fill-rule="nonzero"/><path fill="#ffffff" d="M 32.328125 168.101562 L 25.863281 168.101562 C 22.300781 168.101562 19.398438 165.199219 19.398438 161.636719 C 19.398438 158.078125 22.300781 155.171875 25.863281 155.171875 L 32.328125 155.171875 C 35.890625 155.171875 38.792969 158.078125 38.792969 161.636719 C 38.792969 165.199219 35.890625 168.101562 32.328125 168.101562 " fill-opacity="1" fill-rule="nonzero"/><path fill="#ffffff" d="M 77.585938 168.101562 L 58.191406 168.101562 C 54.628906 168.101562 51.722656 165.199219 51.722656 161.636719 C 51.722656 158.078125 54.628906 155.171875 58.191406 155.171875 L 77.585938 155.171875 C 81.148438 155.171875 84.050781 158.078125 84.050781 161.636719 C 84.050781 165.199219 81.148438 168.101562 77.585938 168.101562 " fill-opacity="1" fill-rule="nonzero"/><path fill="#ffffff" d="M 32.328125 193.964844 L 25.863281 193.964844 C 22.300781 193.964844 19.398438 191.0625 19.398438 187.5 C 19.398438 183.9375 22.300781 181.035156 25.863281 181.035156 L 32.328125 181.035156 C 35.890625 181.035156 38.792969 183.9375 38.792969 187.5 C 38.792969 191.0625 35.890625 193.964844 32.328125 193.964844 " fill-opacity="1" fill-rule="nonzero"/><path fill="#ffffff" d="M 77.585938 193.964844 L 58.191406 193.964844 C 54.628906 193.964844 51.722656 191.0625 51.722656 187.5 C 51.722656 183.9375 54.628906 181.035156 58.191406 181.035156 L 77.585938 181.035156 C 81.148438 181.035156 84.050781 183.9375 84.050781 187.5 C 84.050781 191.0625 81.148438 193.964844 77.585938 193.964844 " fill-opacity="1" fill-rule="nonzero"/><path fill="#ffffff" d="M 32.328125 219.828125 L 25.863281 219.828125 C 22.300781 219.828125 19.398438 216.921875 19.398438 213.363281 C 19.398438 209.800781 22.300781 206.898438 25.863281 206.898438 L 32.328125 206.898438 C 35.890625 206.898438 38.792969 209.800781 38.792969 213.363281 C 38.792969 216.921875 35.890625 219.828125 32.328125 219.828125 " fill-opacity="1" fill-rule="nonzero"/><path fill="#ffffff" d="M 77.585938 219.828125 L 58.191406 219.828125 C 54.628906 219.828125 51.722656 216.921875 51.722656 213.363281 C 51.722656 209.800781 54.628906 206.898438 58.191406 206.898438 L 77.585938 206.898438 C 81.148438 206.898438 84.050781 209.800781 84.050781 213.363281 C 84.050781 216.921875 81.148438 219.828125 77.585938 219.828125 " fill-opacity="1" fill-rule="nonzero"/><path fill="#60cbe9" d="M 161.636719 219.828125 L 129.308594 219.828125 C 125.75 219.828125 122.84375 216.921875 122.84375 213.363281 C 122.84375 209.800781 125.75 206.898438 129.308594 206.898438 L 161.636719 206.898438 C 165.199219 206.898438 168.101562 209.800781 168.101562 213.363281 C 168.101562 216.921875 165.199219 219.828125 161.636719 219.828125 " fill-opacity="1" fill-rule="nonzero"/><path fill="#9584ca" d="M 271.550781 219.828125 L 187.5 219.828125 C 183.9375 219.828125 181.035156 216.921875 181.035156 213.363281 C 181.035156 209.800781 183.9375 206.898438 187.5 206.898438 L 271.550781 206.898438 C 275.113281 206.898438 278.015625 209.800781 278.015625 213.363281 C 278.015625 216.921875 275.113281 219.828125 271.550781 219.828125 " fill-opacity="1" fill-rule="nonzero"/><path fill="#60cbe9" d="M 161.636719 142.242188 L 129.308594 142.242188 C 125.75 142.242188 122.84375 139.335938 122.84375 135.777344 C 122.84375 132.214844 125.75 129.308594 129.308594 129.308594 L 161.636719 129.308594 C 165.199219 129.308594 168.101562 132.214844 168.101562 135.777344 C 168.101562 139.335938 165.199219 142.242188 161.636719 142.242188 " fill-opacity="1" fill-rule="nonzero"/><path fill="#60cbe9" d="M 161.636719 168.101562 L 129.308594 168.101562 C 125.75 168.101562 122.84375 165.199219 122.84375 161.636719 C 122.84375 158.078125 125.75 155.171875 129.308594 155.171875 L 161.636719 155.171875 C 165.199219 155.171875 168.101562 158.078125 168.101562 161.636719 C 168.101562 165.199219 165.199219 168.101562 161.636719 168.101562 " fill-opacity="1" fill-rule="nonzero"/><path fill="#9584ca" d="M 232.757812 142.242188 L 187.5 142.242188 C 183.9375 142.242188 181.035156 139.335938 181.035156 135.777344 C 181.035156 132.214844 183.9375 129.308594 187.5 129.308594 L 232.757812 129.308594 C 236.320312 129.308594 239.222656 132.214844 239.222656 135.777344 C 239.222656 139.335938 236.320312 142.242188 232.757812 142.242188 " fill-opacity="1" fill-rule="nonzero"/><path fill="#9584ca" d="M 219.828125 168.101562 L 187.5 168.101562 C 183.9375 168.101562 181.035156 165.199219 181.035156 161.636719 C 181.035156 158.078125 183.9375 155.171875 187.5 155.171875 L 219.828125 155.171875 C 223.386719 155.171875 226.292969 158.078125 226.292969 161.636719 C 226.292969 165.199219 223.386719 168.101562 219.828125 168.101562 " fill-opacity="1" fill-rule="nonzero"/><path fill="#60cbe9" d="M 135.777344 116.378906 L 129.308594 116.378906 C 125.75 116.378906 122.84375 113.476562 122.84375 109.914062 C 122.84375 106.351562 125.75 103.449219 129.308594 103.449219 L 135.777344 103.449219 C 139.335938 103.449219 142.242188 106.351562 142.242188 109.914062 C 142.242188 113.476562 139.335938 116.378906 135.777344 116.378906 " fill-opacity="1" fill-rule="nonzero"/><path fill="#9584ca" d="M 206.898438 116.378906 L 161.636719 116.378906 C 158.078125 116.378906 155.171875 113.476562 155.171875 109.914062 C 155.171875 106.351562 158.078125 103.449219 161.636719 103.449219 L 206.898438 103.449219 C 210.457031 103.449219 213.363281 106.351562 213.363281 109.914062 C 213.363281 113.476562 210.457031 116.378906 206.898438 116.378906 " fill-opacity="1" fill-rule="nonzero"/><path fill="#fac342" d="M 303.878906 116.378906 L 232.757812 116.378906 C 229.199219 116.378906 226.292969 113.476562 226.292969 109.914062 C 226.292969 106.351562 229.199219 103.449219 232.757812 103.449219 L 303.878906 103.449219 C 307.441406 103.449219 310.34375 106.351562 310.34375 109.914062 C 310.34375 113.476562 307.441406 116.378906 303.878906 116.378906 " fill-opacity="1" fill-rule="nonzero"/><path fill="#60cbe9" d="M 135.777344 193.964844 L 129.308594 193.964844 C 125.75 193.964844 122.84375 191.0625 122.84375 187.5 C 122.84375 183.9375 125.75 181.035156 129.308594 181.035156 L 135.777344 181.035156 C 139.335938 181.035156 142.242188 183.9375 142.242188 187.5 C 142.242188 191.0625 139.335938 193.964844 135.777344 193.964844 " fill-opacity="1" fill-rule="nonzero"/><path fill="#9584ca" d="M 206.898438 193.964844 L 161.636719 193.964844 C 158.078125 193.964844 155.171875 191.0625 155.171875 187.5 C 155.171875 183.9375 158.078125 181.035156 161.636719 181.035156 L 206.898438 181.035156 C 210.457031 181.035156 213.363281 183.9375 213.363281 187.5 C 213.363281 191.0625 210.457031 193.964844 206.898438 193.964844 " fill-opacity="1" fill-rule="nonzero"/><path fill="#fac342" d="M 258.621094 193.964844 L 232.757812 193.964844 C 229.199219 193.964844 226.292969 191.0625 226.292969 187.5 C 226.292969 183.9375 229.199219 181.035156 232.757812 181.035156 L 258.621094 181.035156 C 262.183594 181.035156 265.085938 183.9375 265.085938 187.5 C 265.085938 191.0625 262.183594 193.964844 258.621094 193.964844 " fill-opacity="1" fill-rule="nonzero"/><path fill="#1c3b42" d="M 181.035156 25.863281 C 177.472656 25.863281 174.570312 28.765625 174.570312 32.328125 L 174.570312 45.257812 L 161.636719 45.257812 L 161.636719 32.328125 C 161.636719 28.765625 158.734375 25.863281 155.171875 25.863281 C 151.609375 25.863281 148.707031 28.765625 148.707031 32.328125 L 148.707031 71.121094 C 148.707031 74.683594 151.609375 77.585938 155.171875 77.585938 C 158.734375 77.585938 161.636719 74.683594 161.636719 71.121094 L 161.636719 58.191406 L 174.570312 58.191406 L 174.570312 71.121094 C 174.570312 74.683594 177.472656 77.585938 181.035156 77.585938 C 184.59375 77.585938 187.5 74.683594 187.5 71.121094 L 187.5 32.328125 C 187.5 28.765625 184.59375 25.863281 181.035156 25.863281 " fill-opacity="1" fill-rule="nonzero"/><path fill="#1c3b42" d="M 219.828125 25.863281 L 206.898438 25.863281 C 203.335938 25.863281 200.429688 28.765625 200.429688 32.328125 C 200.429688 35.886719 203.335938 38.792969 206.898438 38.792969 L 206.898438 71.121094 C 206.898438 74.683594 209.800781 77.585938 213.363281 77.585938 C 216.921875 77.585938 219.828125 74.683594 219.828125 71.121094 L 219.828125 38.792969 C 223.386719 38.792969 226.292969 35.886719 226.292969 32.328125 C 226.292969 28.765625 223.386719 25.863281 219.828125 25.863281 " fill-opacity="1" fill-rule="nonzero"/><path fill="#1c3b42" d="M 273.421875 26.140625 C 270.71875 25.304688 267.738281 26.367188 266.171875 28.742188 L 258.621094 40.082031 L 251.070312 28.742188 C 249.503906 26.367188 246.523438 25.304688 243.820312 26.140625 C 241.09375 26.972656 239.222656 29.472656 239.222656 32.328125 L 239.222656 71.121094 C 239.222656 74.683594 242.128906 77.585938 245.691406 77.585938 C 249.25 77.585938 252.15625 74.683594 252.15625 71.121094 L 252.15625 53.667969 L 253.242188 55.308594 C 255.640625 58.898438 261.601562 58.898438 264 55.308594 L 265.085938 53.667969 L 265.085938 71.121094 C 265.085938 74.683594 267.992188 77.585938 271.550781 77.585938 C 275.113281 77.585938 278.015625 74.683594 278.015625 71.121094 L 278.015625 32.328125 C 278.015625 29.472656 276.148438 26.972656 273.421875 26.140625 " fill-opacity="1" fill-rule="nonzero"/><path fill="#1c3b42" d="M 310.34375 64.65625 L 303.878906 64.65625 L 303.878906 32.328125 C 303.878906 28.765625 300.976562 25.863281 297.414062 25.863281 C 293.851562 25.863281 290.949219 28.765625 290.949219 32.328125 L 290.949219 71.121094 C 290.949219 74.683594 293.851562 77.585938 297.414062 77.585938 L 310.34375 77.585938 C 313.90625 77.585938 316.808594 74.683594 316.808594 71.121094 C 316.808594 67.558594 313.90625 64.65625 310.34375 64.65625 " fill-opacity="1" fill-rule="nonzero"/></svg>